<?xml version="1.0" encoding="utf-8"?>
<!-- Generator: Adobe Illustrator 22.0.1, SVG Export Plug-In . SVG Version: 6.00 Build 0)  -->
<svg version="1.1" id="Layer_1" xmlns="http://www.w3.org/2000/svg" xmlns:xlink="http://www.w3.org/1999/xlink" x="0px" y="0px"
	 viewBox="0 0 763.9 592.7" style="enable-background:new 0 0 763.9 592.7;" xml:space="preserve">
<style type="text/css">
	.st0{clip-path:url(#SVGID_2_);fill:#C83C33;}
</style>
<g>
	<defs>
		<rect id="SVGID_1_" width="763.9" height="592.7"/>
	</defs>
	<clipPath id="SVGID_2_">
		<use xlink:href="#SVGID_1_"  style="overflow:visible;"/>
	</clipPath>
	<path class="st0" d="M699.5,296.4c0-40.2-36.9-72.9-82.3-72.8c-0.6,0-1.2,0-1.7,0.1c-7.5,0.8-47.3,5.6-95.9,21.5
		c-51.8,17-140.5,21.9-141.4,21.9l-0.5,0c-3.5-4.3-8.8-7.1-14.8-7.1H113.9c-10,0-18.2,7.7-19,17.5c0,0,0,0,0,0H83.6
		c-10.2,0-18.9,8-19.2,18.2c-0.3,10.6,8.2,19.3,18.8,19.3h11.7c0,0,0,0,0,0c0.8,9.8,9,17.5,19,17.5h248.9c6,0,11.3-2.8,14.8-7.1
		l0.5,0c0.9,0,89.6,5,141.4,21.9c48.6,15.9,88.4,20.7,95.9,21.5c0.6,0.1,1.2,0.1,1.7,0.1C662.5,369.3,699.5,336.6,699.5,296.4
		 M671.4,326c-14.4,8.3-33.7,12.9-54.2,12.9c-0.4,0-0.8,0-1.2,0c-7.4-0.5-46.7-3.7-94.7-14c-46.6-10-122.3-13.7-139.4-14.4
		c0,0,0,0,0,0v-11.3c0,0,0,0,0,0h310.3c0,0,0,0,0,0c-0.1,1.6-0.2,3.1-0.4,4.7c0,0,0,0,0,0C689.2,312.2,682.2,319.8,671.4,326
		 M691.8,288.8c0.2,1.5,0.3,3.1,0.4,4.7c0,0,0,0,0,0H381.9c0,0,0,0,0,0v-11.3c0,0,0,0,0,0c17.1-0.7,92.7-4.4,139.4-14.4
		c49.1-10.5,90.2-13.7,94.8-14c0.4,0,0.8,0,1.3,0c20.5,0,39.8,4.6,54.2,12.9C682.2,272.9,689.2,280.5,691.8,288.8
		C691.8,288.8,691.8,288.8,691.8,288.8 M521.8,251.9c48.9-16,89.9-20.7,94.4-21.2c0.4,0,0.7-0.1,1.1-0.1c30.9,0,57.4,16.4,69,39.8
		c0,0,0,0.1,0,0c-3.3-3.1-7.3-6-11.9-8.7c-15.3-8.8-35.6-13.7-57.1-13.7c-0.5,0-1.1,0-1.6,0.1c-7.4,0.5-47.1,3.7-95.5,14.1
		c-46,9.9-120.8,13.6-138.2,14.3c0,0,0,0,0,0V274c0,0,0,0,0,0C398.8,272.9,474.9,267.3,521.8,251.9 M83.2,308
		c-6.1,0-11.1-4.7-11.6-10.7c-0.5-6.9,5-12.6,12-12.6h11.3c0,0,0,0,0,0V308c0,0,0,0,0,0H83.2z M113.9,325.5c-6.6,0-12-5.4-12-12
		v-34.4c0-6.6,5.4-12,12-12h248.9c6.6,0,12,5.4,12,12v34.4c0,6.6-5.4,12-12,12H113.9z M616.2,362c-4.5-0.5-45.5-5.2-94.4-21.2
		c-46.9-15.3-123-21-139.9-22.1c0,0,0,0,0,0v-2.4c0,0,0,0,0,0c17.4,0.7,92.2,4.4,138.2,14.3c48.4,10.4,88.1,13.6,95.5,14.1
		c0.5,0,1.1,0.1,1.6,0.1c21.5,0,41.8-4.9,57.1-13.7c4.6-2.6,8.5-5.6,11.9-8.7c0,0,0.1,0,0,0c-11.5,23.4-38.1,39.8-69,39.8
		C616.9,362.1,616.5,362.1,616.2,362"/>
</g>
</svg>
