<svg width="167" height="130" viewBox="0 0 167 130" fill="none" xmlns="http://www.w3.org/2000/svg">
<g clip-path="url(#clip0_37_1674)">
<path d="M114.97 100.675H52.0303V104.294H114.97V100.675Z" fill="#FDF6D3"/>
<mask id="mask0_37_1674" style="mask-type:luminance" maskUnits="userSpaceOnUse" x="0" y="0" width="167" height="130">
<path d="M167 0H0V130H167V0Z" fill="white"/>
</mask>
<g mask="url(#mask0_37_1674)">
<path d="M114.97 41.3448C113.986 41.3448 113.177 40.5332 113.177 39.5462C113.177 25.6404 99.8635 14.3446 83.5111 14.3446C67.1587 14.3446 53.8451 25.6404 53.8451 39.5462C53.8451 40.5332 53.0362 41.3448 52.0524 41.3448C51.0686 41.3448 50.2598 40.5332 50.2598 39.5462C50.2598 23.6664 65.1912 10.7256 83.533 10.7256C101.875 10.7256 116.806 23.6444 116.806 39.5462C116.762 40.5332 115.954 41.3448 114.97 41.3448Z" fill="#FDF6D3"/>
</g>
<mask id="mask1_37_1674" style="mask-type:luminance" maskUnits="userSpaceOnUse" x="0" y="0" width="167" height="130">
<path d="M167 0H0V130H167V0Z" fill="white"/>
</mask>
<g mask="url(#mask1_37_1674)">
<path d="M110.75 119.296H56.2278C54.2384 119.296 52.5769 117.871 52.2709 115.897L49.254 96.4854C48.1609 89.4448 44.51 83.2157 39.0009 78.9605C30.4531 72.3586 25.9278 61.7208 26.8897 50.4908C27.633 41.9587 31.1308 34.282 36.7711 28.8644C42.5644 23.3152 50.1285 20.6174 58.086 21.3192C59.0698 21.407 59.8131 22.2843 59.7257 23.2713C59.6382 24.2583 58.7637 25.0041 57.78 24.9163C43.5919 23.6881 31.8741 34.8303 30.4968 50.8198C29.6442 60.8215 33.6449 70.2749 41.2308 76.1092C47.4832 80.9346 51.615 87.9752 52.8611 95.9371L55.878 115.348C55.8999 115.546 56.0748 115.677 56.2715 115.677H110.794C110.991 115.677 111.166 115.546 111.188 115.348L114.205 95.9371C115.429 87.9752 119.561 80.9346 125.835 76.1092C133.421 70.2749 137.421 60.8215 136.569 50.8198C135.913 43.165 132.787 36.2998 127.78 31.4964C122.752 26.671 116.194 24.3461 109.264 24.9383C108.28 25.026 107.406 24.2803 107.318 23.2933C107.231 22.3063 107.974 21.4289 108.958 21.3412C116.915 20.6612 124.479 23.3371 130.273 28.8863C135.913 34.3039 139.411 41.9806 140.154 50.5128C141.116 61.7427 136.591 72.3805 128.043 78.9825C122.512 83.2376 118.883 89.4667 117.79 96.5074L114.773 115.919C114.401 117.849 112.74 119.296 110.75 119.296Z" fill="#FDF6D3"/>
</g>
<mask id="mask2_37_1674" style="mask-type:luminance" maskUnits="userSpaceOnUse" x="0" y="0" width="167" height="130">
<path d="M167 0H0V130H167V0Z" fill="white"/>
</mask>
<g mask="url(#mask2_37_1674)">
<path d="M62.8301 86.7256C62.0431 86.7256 61.2998 86.1992 61.1031 85.3876L55.4409 64.1779C55.1786 63.2128 55.747 62.2258 56.7089 61.9626C57.6708 61.6994 58.6546 62.2697 58.9169 63.2348L64.579 84.4445C64.8414 85.4096 64.273 86.3966 63.3111 86.6598C63.158 86.7036 63.005 86.7256 62.8301 86.7256Z" fill="#FFFBE7"/>
</g>
<mask id="mask3_37_1674" style="mask-type:luminance" maskUnits="userSpaceOnUse" x="0" y="0" width="167" height="130">
<path d="M167 0H0V130H167V0Z" fill="white"/>
</mask>
<g mask="url(#mask3_37_1674)">
<path d="M104.148 86.7256C103.995 86.7256 103.842 86.7036 103.689 86.6598C102.727 86.3966 102.159 85.4096 102.421 84.4445L108.083 63.2348C108.345 62.2697 109.329 61.6994 110.291 61.9626C111.253 62.2258 111.821 63.2128 111.559 64.1779L105.897 85.3876C105.678 86.1772 104.957 86.7256 104.148 86.7256Z" fill="#FFFBE7"/>
</g>
<mask id="mask4_37_1674" style="mask-type:luminance" maskUnits="userSpaceOnUse" x="0" y="0" width="167" height="130">
<path d="M167 0H0V130H167V0Z" fill="white"/>
</mask>
<g mask="url(#mask4_37_1674)">
<path d="M83.4889 86.7254C82.5052 86.7254 81.6963 85.9139 81.6963 84.9269V55.5798C81.6963 54.5928 82.5052 53.7812 83.4889 53.7812C84.4727 53.7812 85.2816 54.5928 85.2816 55.5798V84.9049C85.3034 85.9139 84.4946 86.7254 83.4889 86.7254Z" fill="#FFFBE7"/>
</g>
</g>
<defs>
<clipPath id="clip0_37_1674">
<rect width="167" height="130" fill="white"/>
</clipPath>
</defs>
</svg>
