<?xml version="1.0" encoding="utf-8"?>
<!-- Generator: Adobe Illustrator 22.0.1, SVG Export Plug-In . SVG Version: 6.00 Build 0)  -->
<svg version="1.1" id="Layer_1" xmlns="http://www.w3.org/2000/svg" xmlns:xlink="http://www.w3.org/1999/xlink" x="0px" y="0px"
	 viewBox="0 0 763.9 592.7" style="enable-background:new 0 0 763.9 592.7;" xml:space="preserve">
<style type="text/css">
	.st0{fill:#C83C33;}
	.st1{clip-path:url(#SVGID_2_);fill:#C83C33;}
	.st2{clip-path:url(#SVGID_2_);fill:#CE5C5F;}
</style>
<rect x="238" y="459" class="st0" width="287.9" height="16.5"/>
<g>
	<defs>
		<rect id="SVGID_1_" width="763.9" height="592.7"/>
	</defs>
	<clipPath id="SVGID_2_">
		<use xlink:href="#SVGID_1_"  style="overflow:visible;"/>
	</clipPath>
	<path class="st1" d="M525.9,188.5c-4.5,0-8.2-3.7-8.2-8.2c0-63.4-60.9-114.9-135.7-114.9c-74.8,0-135.7,51.5-135.7,114.9
		c0,4.5-3.7,8.2-8.2,8.2c-4.5,0-8.2-3.7-8.2-8.2c0-72.4,68.3-131.4,152.2-131.4s152.2,58.9,152.2,131.4
		C534.1,184.8,530.4,188.5,525.9,188.5"/>
	<path class="st1" d="M506.6,543.9H257.2c-9.1,0-16.7-6.5-18.1-15.5l-13.8-88.5c-5-32.1-21.7-60.5-46.9-79.9
		c-39.1-30.1-59.8-78.6-55.4-129.8c3.4-38.9,19.4-73.9,45.2-98.6c26.5-25.3,61.1-37.6,97.5-34.4c4.5,0.4,7.9,4.4,7.5,8.9
		c-0.4,4.5-4.4,7.9-8.9,7.5c-64.9-5.6-118.5,45.2-124.8,118.1c-3.9,45.6,14.4,88.7,49.1,115.3c28.6,22,47.5,54.1,53.2,90.4
		l13.8,88.5c0.1,0.9,0.9,1.5,1.8,1.5h249.4c0.9,0,1.7-0.6,1.8-1.5l13.8-88.5c5.6-36.3,24.5-68.4,53.2-90.4
		c34.7-26.6,53-69.7,49.1-115.3c-3-34.9-17.3-66.2-40.2-88.1c-23-22-53-32.6-84.7-29.9c-4.5,0.4-8.5-3-8.9-7.5
		c-0.4-4.5,3-8.5,7.5-8.9c36.4-3.1,71,9.1,97.5,34.4c25.8,24.7,41.8,59.7,45.2,98.6c4.4,51.2-16.3,99.7-55.4,129.8
		c-25.3,19.4-41.9,47.8-46.9,79.9l-13.8,88.5C523.3,537.3,515.7,543.9,506.6,543.9"/>
	<path class="st2" d="M287.4,395.4c-3.6,0-7-2.4-7.9-6.1l-25.9-96.7c-1.2-4.4,1.4-8.9,5.8-10.1c4.4-1.2,8.9,1.4,10.1,5.8l25.9,96.7
		c1.2,4.4-1.4,8.9-5.8,10.1C288.9,395.3,288.2,395.4,287.4,395.4"/>
	<path class="st2" d="M476.4,395.4c-0.7,0-1.4-0.1-2.1-0.3c-4.4-1.2-7-5.7-5.8-10.1l25.9-96.7c1.2-4.4,5.7-7,10.1-5.8
		c4.4,1.2,7,5.7,5.8,10.1l-25.9,96.7C483.4,392.9,480.1,395.4,476.4,395.4"/>
	<path class="st2" d="M381.9,395.4c-4.5,0-8.2-3.7-8.2-8.2V253.4c0-4.5,3.7-8.2,8.2-8.2c4.5,0,8.2,3.7,8.2,8.2v133.7
		C390.2,391.7,386.5,395.4,381.9,395.4"/>
</g>
</svg>
