<svg width="30" height="21" viewBox="0 0 30 21" fill="none" xmlns="http://www.w3.org/2000/svg">
<path d="M29.2959 1.02358L28.9965 0.718684C28.0554 -0.239561 26.5439 -0.239561 25.6027 0.718684L12.1134 14.4535L4.4418 6.64239C3.50068 5.68414 1.97492 5.68414 1.0338 6.64239L0.70584 6.97632C-0.23528 7.93457 -0.23528 9.48809 0.70584 10.4463L9.94593 19.8546C9.98871 19.8981 10.0172 19.9417 10.06 19.9852L10.3594 20.2901C10.887 20.8273 11.6 21.0596 12.2987 20.987C12.8406 20.929 13.3539 20.6967 13.7674 20.2756L14.0954 19.9417C14.1382 19.8981 14.181 19.8546 14.2095 19.811L29.2817 4.46456C30.2371 3.53535 30.2371 1.98183 29.2959 1.02358Z" fill="#FDF6D3"/>
</svg>
