<?xml version="1.0" encoding="utf-8"?>
<!-- Generator: Adobe Illustrator 22.0.1, SVG Export Plug-In . SVG Version: 6.00 Build 0)  -->
<svg version="1.1" id="Layer_1" xmlns="http://www.w3.org/2000/svg" xmlns:xlink="http://www.w3.org/1999/xlink" x="0px" y="0px"
	 viewBox="0 0 592.7 592.7" style="enable-background:new 0 0 592.7 592.7;" xml:space="preserve">
<style type="text/css">
	.st0{clip-path:url(#SVGID_2_);fill:#C83C33;}
	.st1{clip-path:url(#SVGID_2_);fill:#CE5C5F;}
</style>
<g>
	<defs>
		<rect id="SVGID_1_" width="592.7" height="592.7"/>
	</defs>
	<clipPath id="SVGID_2_">
		<use xlink:href="#SVGID_1_"  style="overflow:visible;"/>
	</clipPath>
	<path class="st0" d="M396.6,231l-2.1-2.1c-6.6-6.6-17.2-6.6-23.8,0l-94.6,94.6l-53.8-53.8c-6.6-6.6-17.3-6.6-23.9,0l-2.3,2.3
		c-6.6,6.6-6.6,17.3,0,23.9l64.8,64.8c0.3,0.3,0.5,0.6,0.8,0.9l2.1,2.1c3.7,3.7,8.7,5.3,13.6,4.8c3.8-0.4,7.4-2,10.3-4.9l2.3-2.3
		c0.3-0.3,0.6-0.6,0.8-0.9l105.7-105.7C403.2,248.3,403.2,237.6,396.6,231"/>
	<path class="st1" d="M104.4,309.6H67.3c-7.3,0-13.3-5.9-13.3-13.3s5.9-13.3,13.3-13.3h37.1c7.3,0,13.3,5.9,13.3,13.3
		S111.7,309.6,104.4,309.6"/>
	<path class="st1" d="M525.5,309.6h-37.1c-7.3,0-13.3-5.9-13.3-13.3s5.9-13.3,13.3-13.3h37.1c7.3,0,13.3,5.9,13.3,13.3
		S532.8,309.6,525.5,309.6"/>
	<path class="st1" d="M170,441.5l-26.2,26.2c-5.2,5.2-13.6,5.2-18.8,0c-5.2-5.2-5.2-13.6,0-18.8l26.2-26.2c5.2-5.2,13.6-5.2,18.8,0
		C175.2,427.9,175.2,436.3,170,441.5"/>
	<path class="st1" d="M467.7,143.8L441.5,170c-5.2,5.2-13.6,5.2-18.8,0c-5.2-5.2-5.2-13.6,0-18.8L449,125c5.2-5.2,13.6-5.2,18.8,0
		C472.9,130.2,472.9,138.6,467.7,143.8"/>
	<path class="st1" d="M309.6,488.4v37.1c0,7.3-5.9,13.3-13.3,13.3s-13.3-5.9-13.3-13.3v-37.1c0-7.3,5.9-13.3,13.3-13.3
		S309.6,481,309.6,488.4"/>
	<path class="st1" d="M309.6,67.3v37.1c0,7.3-5.9,13.3-13.3,13.3s-13.3-5.9-13.3-13.3V67.3c0-7.3,5.9-13.3,13.3-13.3
		S309.6,59.9,309.6,67.3"/>
	<path class="st1" d="M441.5,422.7l26.2,26.2c5.2,5.2,5.2,13.6,0,18.8c-5.2,5.2-13.6,5.2-18.8,0l-26.2-26.2
		c-5.2-5.2-5.2-13.6,0-18.8C427.9,417.6,436.3,417.6,441.5,422.7"/>
	<path class="st1" d="M143.8,125l26.2,26.2c5.2,5.2,5.2,13.6,0,18.8c-5.2,5.2-13.6,5.2-18.8,0L125,143.8c-5.2-5.2-5.2-13.6,0-18.8
		C130.2,119.8,138.6,119.8,143.8,125"/>
</g>
</svg>
