<svg width="167" height="130" viewBox="0 0 167 130" fill="none" xmlns="http://www.w3.org/2000/svg">
<g clip-path="url(#clip0_37_1534)">
<mask id="mask0_37_1534" style="mask-type:luminance" maskUnits="userSpaceOnUse" x="0" y="0" width="167" height="130">
<path d="M167 0H0V130H167V0Z" fill="white"/>
</mask>
<g mask="url(#mask0_37_1534)">
<path d="M153.486 42.9023C152.914 33.6902 147.836 25.0704 139.598 19.2799C134.67 15.8144 128.697 13.5114 122.376 12.656C119.638 12.1296 116.9 11.8445 114.212 11.8445C101.793 11.8445 90.4939 17.0646 83.4505 25.7503C74.8641 15.1564 59.9311 9.60724 44.4258 12.656C38.1539 13.5333 32.2803 15.8144 27.3773 19.258C19.1393 25.0704 14.0621 33.6683 13.4897 42.8804C12.9173 52.0925 16.8247 61.1291 24.2165 67.6433L80.1155 116.906C81.0115 117.696 82.1812 118.134 83.4505 118.134C83.4754 118.134 83.4754 118.134 83.5003 118.134C84.7696 118.134 85.9642 117.696 86.8602 116.906L142.759 67.6433C150.176 61.151 154.083 52.1144 153.486 42.9023Z" stroke="#FDF6D3" stroke-width="6" stroke-miterlimit="10"/>
</g>
</g>
<defs>
<clipPath id="clip0_37_1534">
<rect width="167" height="130" fill="white"/>
</clipPath>
</defs>
</svg>
