<?xml version="1.0" encoding="utf-8"?>
<!-- Generator: Adobe Illustrator 22.0.1, SVG Export Plug-In . SVG Version: 6.00 Build 0)  -->
<svg version="1.1" id="Layer_1" xmlns="http://www.w3.org/2000/svg" xmlns:xlink="http://www.w3.org/1999/xlink" x="0px" y="0px"
	 viewBox="0 0 671 592.7" style="enable-background:new 0 0 671 592.7;" xml:space="preserve">
<style type="text/css">
	.st0{clip-path:url(#SVGID_2_);fill:#CE5C5F;}
	.st1{clip-path:url(#SVGID_2_);fill:none;stroke:#C83C33;stroke-width:25;stroke-miterlimit:10;}
</style>
<g>
	<defs>
		<rect id="SVGID_1_" width="671" height="592.7"/>
	</defs>
	<clipPath id="SVGID_2_">
		<use xlink:href="#SVGID_1_"  style="overflow:visible;"/>
	</clipPath>
	<path class="st0" d="M616.7,195.6c-2.3-42-22.7-81.3-55.8-107.7v0c-19.8-15.8-43.8-26.3-69.2-30.2c-11-2.4-22-3.7-32.8-3.7
		c-49.9,0-95.3,23.8-123.6,63.4c-34.5-48.3-94.5-73.6-156.8-59.7c-25.2,4-48.8,14.4-68.5,30.1c-33.1,26.5-53.5,65.7-55.8,107.7
		c-2.3,42,13.4,83.2,43.1,112.9l224.6,224.6c3.6,3.6,8.3,5.6,13.4,5.6c0.1,0,0.1,0,0.2,0h0c5.1,0,9.9-2,13.5-5.6l224.6-224.6
		C603.4,278.8,619.1,237.6,616.7,195.6"/>
	<path class="st1" d="M616.7,195.6c-2.3-42-22.7-81.3-55.8-107.7v0c-19.8-15.8-43.8-26.3-69.2-30.2c-11-2.4-22-3.7-32.8-3.7
		c-49.9,0-95.3,23.8-123.6,63.4c-34.5-48.3-94.5-73.6-156.8-59.7c-25.2,4-48.8,14.4-68.5,30.1c-33.1,26.5-53.5,65.7-55.8,107.7
		c-2.3,42,13.4,83.2,43.1,112.9l224.6,224.6c3.6,3.6,8.3,5.6,13.4,5.6c0.1,0,0.1,0,0.2,0h0c5.1,0,9.9-2,13.5-5.6l224.6-224.6
		C603.4,278.8,619.1,237.6,616.7,195.6z"/>
</g>
</svg>
