<svg width="167" height="130" viewBox="0 0 167 130" fill="none" xmlns="http://www.w3.org/2000/svg">
<g clip-path="url(#clip0_37_1620)">
<mask id="mask0_37_1620" style="mask-type:luminance" maskUnits="userSpaceOnUse" x="0" y="0" width="167" height="130">
<path d="M167 0H0V130H167V0Z" fill="white"/>
</mask>
<g mask="url(#mask0_37_1620)">
<path d="M149.883 25.0697H139.302V17.1736C139.302 14.2345 136.919 11.8657 134.011 11.8657H100.738C93.1519 11.8657 86.5279 15.9892 82.9207 22.0867C79.3136 15.9673 72.6677 11.8438 65.0818 11.8438H31.8086C28.8791 11.8438 26.5181 14.2345 26.5181 17.1517V25.0477H17.1176C14.1882 25.0477 11.8271 27.4385 11.8271 30.3556V112.826C11.8271 115.765 14.2101 118.134 17.1176 118.134H149.904C152.834 118.134 155.195 115.743 155.195 112.826V30.3556C155.195 27.4385 152.812 25.0697 149.883 25.0697ZM100.738 17.5903H133.596V25.0697V98.1302C133.596 98.4812 133.465 98.8102 133.224 99.0514C132.984 99.2927 132.656 99.4243 132.306 99.4243H85.7627V32.5929C85.7627 24.3239 92.4742 17.5903 100.738 17.5903ZM32.2239 17.5903H65.0818C73.3235 17.5903 80.035 24.3239 80.035 32.5929V99.4462H33.5356C33.1858 99.4462 32.8579 99.3146 32.6174 99.0514C32.377 98.8102 32.2458 98.4812 32.2458 98.1302V25.0697V17.5903H32.2239ZM17.533 30.7943H26.5181V98.1083V99.841C26.5181 102.78 28.901 105.149 31.8086 105.149H33.5356H73.3017L80.2536 112.387H17.5111V30.7943H17.533ZM149.467 112.431H86.7246L93.6766 105.193H132.262H133.989C136.919 105.193 139.28 102.802 139.28 99.8849V98.1522V30.7943H149.445V112.431H149.467Z" fill="#FDF6D3"/>
</g>
<mask id="mask1_37_1620" style="mask-type:luminance" maskUnits="userSpaceOnUse" x="0" y="0" width="167" height="130">
<path d="M167 0H0V130H167V0Z" fill="white"/>
</mask>
<g mask="url(#mask1_37_1620)">
<path d="M59.9008 45.7526H43.3298C42.3023 45.7526 41.4497 44.9191 41.4497 43.8663V41.98C41.4497 40.9492 42.2804 40.0938 43.3298 40.0938H59.9008C60.9283 40.0938 61.7809 40.9272 61.7809 41.98V43.8663C61.759 44.9191 60.9283 45.7526 59.9008 45.7526Z" fill="#FFFAE0"/>
</g>
<mask id="mask2_37_1620" style="mask-type:luminance" maskUnits="userSpaceOnUse" x="0" y="0" width="167" height="130">
<path d="M167 0H0V130H167V0Z" fill="white"/>
</mask>
<g mask="url(#mask2_37_1620)">
<path d="M68.9077 60.0973H43.3298C42.3023 60.0973 41.4497 59.2639 41.4497 58.211V56.3248C41.4497 55.2939 42.2804 54.4385 43.3298 54.4385H68.9077C69.9352 54.4385 70.7878 55.2719 70.7878 56.3248V58.211C70.7878 59.2639 69.9571 60.0973 68.9077 60.0973Z" fill="#FFFAE0"/>
</g>
<mask id="mask3_37_1620" style="mask-type:luminance" maskUnits="userSpaceOnUse" x="0" y="0" width="167" height="130">
<path d="M167 0H0V130H167V0Z" fill="white"/>
</mask>
<g mask="url(#mask3_37_1620)">
<path d="M68.9077 74.442H43.3298C42.3023 74.442 41.4497 73.6086 41.4497 72.5558V70.6695C41.4497 69.6386 42.2804 68.7832 43.3298 68.7832H68.9077C69.9352 68.7832 70.7878 69.6167 70.7878 70.6695V72.5558C70.7878 73.6086 69.9571 74.442 68.9077 74.442Z" fill="#FFFAE0"/>
</g>
<mask id="mask4_37_1620" style="mask-type:luminance" maskUnits="userSpaceOnUse" x="0" y="0" width="167" height="130">
<path d="M167 0H0V130H167V0Z" fill="white"/>
</mask>
<g mask="url(#mask4_37_1620)">
<path d="M114.248 45.7526H97.677C96.6495 45.7526 95.7969 44.9191 95.7969 43.8663V41.98C95.7969 40.9492 96.6276 40.0938 97.677 40.0938H114.248C115.275 40.0938 116.128 40.9272 116.128 41.98V43.8663C116.106 44.9191 115.275 45.7526 114.248 45.7526Z" fill="#FFFAE0"/>
</g>
<mask id="mask5_37_1620" style="mask-type:luminance" maskUnits="userSpaceOnUse" x="0" y="0" width="167" height="130">
<path d="M167 0H0V130H167V0Z" fill="white"/>
</mask>
<g mask="url(#mask5_37_1620)">
<path d="M123.255 60.0973H97.677C96.6495 60.0973 95.7969 59.2639 95.7969 58.211V56.3248C95.7969 55.2939 96.6276 54.4385 97.677 54.4385H123.255C124.282 54.4385 125.135 55.2719 125.135 56.3248V58.211C125.135 59.2639 124.304 60.0973 123.255 60.0973Z" fill="#FFFAE0"/>
</g>
<mask id="mask6_37_1620" style="mask-type:luminance" maskUnits="userSpaceOnUse" x="0" y="0" width="167" height="130">
<path d="M167 0H0V130H167V0Z" fill="white"/>
</mask>
<g mask="url(#mask6_37_1620)">
<path d="M123.255 74.442H97.677C96.6495 74.442 95.7969 73.6086 95.7969 72.5558V70.6695C95.7969 69.6386 96.6276 68.7832 97.677 68.7832H123.255C124.282 68.7832 125.135 69.6167 125.135 70.6695V72.5558C125.135 73.6086 124.304 74.442 123.255 74.442Z" fill="#FFFAE0"/>
</g>
</g>
<defs>
<clipPath id="clip0_37_1620">
<rect width="167" height="130" fill="white"/>
</clipPath>
</defs>
</svg>
