<?xml version="1.0" encoding="utf-8"?>
<!-- Generator: Adobe Illustrator 22.0.1, SVG Export Plug-In . SVG Version: 6.00 Build 0)  -->
<svg version="1.1" id="Layer_1" xmlns="http://www.w3.org/2000/svg" xmlns:xlink="http://www.w3.org/1999/xlink" x="0px" y="0px"
	 viewBox="0 0 763.9 592.7" style="enable-background:new 0 0 763.9 592.7;" xml:space="preserve">
<style type="text/css">
	.st0{clip-path:url(#SVGID_2_);fill:#C83C33;}
	.st1{clip-path:url(#SVGID_2_);fill:#CE5C5F;}
</style>
<g>
	<defs>
		<rect id="SVGID_1_" width="763.9" height="592.7"/>
	</defs>
	<clipPath id="SVGID_2_">
		<use xlink:href="#SVGID_1_"  style="overflow:visible;"/>
	</clipPath>
	<path class="st0" d="M685.6,114.3h-48.4v-36c0-13.4-10.9-24.2-24.2-24.2H460.8c-34.7,0-65,18.8-81.5,46.6
		C362.8,72.8,332.4,54,297.7,54H145.5c-13.4,0-24.2,10.9-24.2,24.2v36h-43c-13.4,0-24.2,10.9-24.2,24.2v376
		c0,13.4,10.9,24.2,24.2,24.2h607.4c13.4,0,24.2-10.9,24.2-24.2v-376C709.9,125.1,699,114.3,685.6,114.3 M460.8,80.2h150.3v34.1
		v333.1c0,1.6-0.6,3.1-1.7,4.2c-1.1,1.1-2.6,1.7-4.2,1.7H392.3V148.6C392.3,110.9,423,80.2,460.8,80.2 M147.4,80.2h150.3
		c37.7,0,68.4,30.7,68.4,68.4v304.8H153.4c-1.6,0-3.1-0.6-4.2-1.8c-1.1-1.1-1.7-2.6-1.7-4.2V114.3V80.2z M80.2,140.4h41.1v306.9v7.9
		c0,13.4,10.9,24.2,24.2,24.2h7.9h181.9l31.8,33h-287V140.4z M683.7,512.6h-287l31.8-33h176.5h7.9c13.4,0,24.2-10.9,24.2-24.2v-7.9
		V140.4h46.5V512.6z"/>
	<path class="st1" d="M274,208.6h-75.8c-4.7,0-8.6-3.8-8.6-8.6v-8.6c0-4.7,3.8-8.6,8.6-8.6H274c4.7,0,8.6,3.8,8.6,8.6v8.6
		C282.5,204.8,278.7,208.6,274,208.6"/>
	<path class="st1" d="M315.2,274h-117c-4.7,0-8.6-3.8-8.6-8.6v-8.6c0-4.7,3.8-8.6,8.6-8.6h117c4.7,0,8.6,3.8,8.6,8.6v8.6
		C323.8,270.2,320,274,315.2,274"/>
	<path class="st1" d="M315.2,339.4h-117c-4.7,0-8.6-3.8-8.6-8.6v-8.6c0-4.7,3.8-8.6,8.6-8.6h117c4.7,0,8.6,3.8,8.6,8.6v8.6
		C323.8,335.6,320,339.4,315.2,339.4"/>
	<path class="st1" d="M522.6,208.6h-75.8c-4.7,0-8.6-3.8-8.6-8.6v-8.6c0-4.7,3.8-8.6,8.6-8.6h75.8c4.7,0,8.6,3.8,8.6,8.6v8.6
		C531.1,204.8,527.3,208.6,522.6,208.6"/>
	<path class="st1" d="M563.8,274h-117c-4.7,0-8.6-3.8-8.6-8.6v-8.6c0-4.7,3.8-8.6,8.6-8.6h117c4.7,0,8.6,3.8,8.6,8.6v8.6
		C572.4,270.2,568.6,274,563.8,274"/>
	<path class="st1" d="M563.8,339.4h-117c-4.7,0-8.6-3.8-8.6-8.6v-8.6c0-4.7,3.8-8.6,8.6-8.6h117c4.7,0,8.6,3.8,8.6,8.6v8.6
		C572.4,335.6,568.6,339.4,563.8,339.4"/>
</g>
</svg>
