<svg width="228" height="321" viewBox="0 0 228 321" fill="none" xmlns="http://www.w3.org/2000/svg">
<path d="M222.101 9.97902L23.1103 23.7595C20.218 23.9598 17.9741 26.3645 17.9741 29.2637V284.385C17.9741 287.241 20.1543 289.625 22.9993 289.88L221.99 307.7C225.219 307.989 228 305.446 228 302.204V15.4832C228 12.286 225.291 9.75814 222.101 9.97902Z" fill="#250958"/>
<path d="M222.101 9.97902L23.1103 23.7595C20.218 23.9598 17.9741 26.3645 17.9741 29.2637V284.385C17.9741 287.241 20.1543 289.625 22.9993 289.88L221.99 307.7C225.219 307.989 228 305.446 228 302.204V15.4832C228 12.286 225.291 9.75814 222.101 9.97902Z" fill="url(#paint0_linear_91_3850)"/>
<path d="M226.315 11.5159C226.315 11.5159 227.374 12.4754 227.719 13.6208C228.002 14.5589 227.991 14.8423 228 14.8355V302.566C228 302.566 227.893 303.405 227.719 303.916C227.389 304.89 226.315 306.163 226.315 306.163V11.5159Z" fill="url(#paint1_linear_91_3850)"/>
<path d="M226.315 11.5159C226.315 11.5159 227.374 12.4754 227.719 13.6208C228.002 14.5589 227.991 14.8423 228 14.8355V302.566C228 302.566 227.893 303.405 227.719 303.916C227.389 304.89 226.315 306.163 226.315 306.163V11.5159Z" fill="url(#paint2_linear_91_3850)"/>
<path d="M222.899 15.8539L21.3331 29.8127V284.439L222.899 302.489V15.8539Z" fill="white"/>
<path d="M221.796 15.144L20.5978 29.1544V284.724L221.796 302.841V15.144Z" fill="white"/>
<path d="M220.692 14.7895L19.4943 28.8516V285.364L220.692 303.548V14.7895Z" fill="white"/>
<path d="M219.588 14.0825L18.3903 28.1963V285.652L219.588 303.903V14.0825Z" fill="white"/>
<path d="M218.485 13.7289L17.2872 27.8945V286.293L218.485 304.611V13.7289Z" fill="white"/>
<path d="M217.382 13.0219L17.2872 27.2736V287.244L217.382 305.673V13.0219Z" fill="white"/>
<path d="M216.278 12.6675L16.1836 26.9881V288.216L216.278 306.734V12.6675Z" fill="white"/>
<path d="M215.175 11.6059L15.0802 26.0299V289.144L215.175 307.796V11.6059Z" fill="white"/>
<path d="M214.072 10.8989L13.9772 25.4091V290.095L214.072 308.858V10.8989Z" fill="white"/>
<path d="M212.968 9.83539L12.8737 24.4834V291.684L212.968 310.626V9.83539Z" fill="white"/>
<path d="M211.865 8.77386L11.7701 23.5253V292.612L211.865 311.687V8.77386Z" fill="white"/>
<path d="M210.761 7.71346L10.6661 22.5855V293.873L210.761 313.104V7.71346Z" fill="white"/>
<path d="M209.658 6.65179L9.56312 21.6273V294.801L209.658 314.166V6.65179Z" fill="white"/>
<path d="M204.098 0.0155912L5.10694 14.8574C2.22701 15.0722 0 17.4715 0 20.3594V295.975C0 298.817 2.1588 301.194 4.98764 301.467L203.979 320.659C207.22 320.972 210.026 318.424 210.026 315.167V5.51762C210.026 2.30882 207.298 -0.223075 204.098 0.0155912Z" fill="#B388FF"/>
<path d="M204.098 0.0155912L5.10694 14.8574C2.22701 15.0722 0 17.4715 0 20.3594V295.975C0 298.817 2.1588 301.194 4.98764 301.467L203.979 320.659C207.22 320.972 210.026 318.424 210.026 315.167V5.51762C210.026 2.30882 207.298 -0.223075 204.098 0.0155912Z" fill="url(#paint3_linear_91_3850)"/>
<path d="M206.143 0.260973C206.143 0.260973 208.492 1.16858 209.322 2.40126C210.002 3.41085 210.167 5.35341 210.189 5.34614V315.381C210.189 315.381 209.692 317.78 209.033 318.623C208.188 319.705 206.143 320.514 206.143 320.514V0.260973Z" fill="url(#paint4_linear_91_3850)"/>
<path d="M206.143 0.260973C206.143 0.260973 208.492 1.16858 209.322 2.40126C210.002 3.41085 210.167 5.35341 210.189 5.34614V315.381C210.189 315.381 209.692 317.78 209.033 318.623C208.188 319.705 206.143 320.514 206.143 320.514V0.260973Z" fill="url(#paint5_linear_91_3850)"/>
<path d="M36.5561 276.706L34.1417 283.165L33.1549 283.078L35.935 276.002L36.5712 276.058L36.5561 276.706ZM38.5799 283.558L36.1604 276.671L36.1454 276.021L36.7816 276.077L39.5717 283.646L38.5799 283.558ZM38.4547 280.836V281.631L34.3571 281.269V280.474L38.4547 280.836Z" fill="white" fill-opacity="0.7"/>
<path d="M43.8747 279.666V284.026L42.943 283.944V278.502L43.8246 278.58L43.8747 279.666ZM43.6843 281.082L43.2535 281.029C43.2569 280.657 43.3053 280.318 43.3988 280.011C43.4923 279.701 43.6309 279.437 43.8146 279.218C43.9982 279 44.227 278.839 44.5008 278.736C44.7747 278.629 45.0919 278.592 45.4526 278.624C45.7064 278.646 45.9402 278.704 46.1539 278.796C46.3676 278.886 46.553 279.014 46.7099 279.182C46.8669 279.35 46.9888 279.559 47.0756 279.808C47.1624 280.057 47.2058 280.353 47.2058 280.695V284.32L46.2791 284.238V280.658C46.2791 280.373 46.2307 280.141 46.1339 279.961C46.0404 279.782 45.9068 279.646 45.7331 279.554C45.5595 279.458 45.3558 279.4 45.122 279.379C44.8481 279.355 44.6194 279.383 44.4357 279.464C44.252 279.545 44.1051 279.666 43.9949 279.827C43.8847 279.989 43.8045 280.178 43.7545 280.395C43.7077 280.608 43.6843 280.838 43.6843 281.082ZM47.1958 280.88L46.5747 281.016C46.578 280.718 46.6264 280.436 46.7199 280.169C46.8168 279.903 46.9554 279.67 47.1357 279.471C47.3194 279.273 47.5448 279.124 47.812 279.023C48.0791 278.92 48.3847 278.883 48.7287 278.913C49.0192 278.939 49.2763 279 49.5001 279.097C49.7272 279.194 49.9175 279.33 50.0711 279.505C50.2281 279.676 50.3466 279.889 50.4268 280.145C50.5069 280.4 50.547 280.698 50.547 281.04V284.616L49.6153 284.533V280.948C49.6153 280.643 49.5669 280.402 49.47 280.226C49.3765 280.047 49.2429 279.916 49.0693 279.833C48.899 279.748 48.6953 279.695 48.4582 279.674C48.2544 279.656 48.0741 279.675 47.9172 279.732C47.7602 279.788 47.6283 279.874 47.5214 279.988C47.4146 280.1 47.3327 280.231 47.276 280.384C47.2225 280.537 47.1958 280.702 47.1958 280.88Z" fill="white" fill-opacity="0.7"/>
<path d="M55.2657 283.776V279.592L56.1975 279.674V285.115L55.3108 285.037L55.2657 283.776ZM55.4411 282.645L55.8268 282.669C55.8268 283.031 55.7884 283.363 55.7116 283.664C55.6381 283.963 55.5179 284.217 55.3509 284.427C55.1839 284.637 54.9652 284.793 54.6947 284.897C54.4242 284.997 54.0952 285.03 53.7079 284.996C53.444 284.972 53.2019 284.912 52.9815 284.816C52.7645 284.72 52.5774 284.584 52.4205 284.409C52.2635 284.234 52.1416 284.014 52.0548 283.748C51.9713 283.483 51.9296 283.169 51.9296 282.807V279.297L52.8563 279.379V282.899C52.8563 283.144 52.883 283.349 52.9364 283.514C52.9932 283.677 53.0684 283.809 53.1619 283.912C53.2587 284.011 53.3656 284.084 53.4824 284.131C53.6027 284.179 53.7262 284.208 53.8531 284.219C54.2472 284.254 54.5594 284.206 54.7899 284.076C55.0203 283.942 55.1856 283.75 55.2858 283.501C55.3893 283.249 55.4411 282.963 55.4411 282.645Z" fill="white" fill-opacity="0.7"/>
<path d="M60.7659 284.076C60.7659 283.942 60.7359 283.815 60.6758 283.696C60.619 283.573 60.5004 283.457 60.3201 283.348C60.1431 283.235 59.8759 283.127 59.5186 283.025C59.2181 282.935 58.9459 282.835 58.7021 282.727C58.4617 282.618 58.2563 282.495 58.086 282.355C57.919 282.217 57.7904 282.059 57.7002 281.884C57.6101 281.708 57.565 281.508 57.565 281.284C57.565 281.069 57.6118 280.87 57.7053 280.687C57.8021 280.505 57.9374 280.348 58.111 280.215C58.288 280.084 58.5001 279.987 58.7472 279.925C58.9943 279.863 59.2698 279.845 59.5737 279.872C60.0079 279.91 60.3785 280.02 60.6858 280.202C60.993 280.383 61.2284 280.61 61.3921 280.883C61.5557 281.152 61.6375 281.442 61.6375 281.754L60.7108 281.672C60.7108 281.521 60.6657 281.372 60.5756 281.223C60.4887 281.071 60.3602 280.941 60.1899 280.832C60.0229 280.723 59.8175 280.658 59.5737 280.636C59.3166 280.614 59.1079 280.635 58.9476 280.702C58.7906 280.765 58.6754 280.854 58.6019 280.968C58.5318 281.082 58.4967 281.207 58.4967 281.341C58.4967 281.441 58.5134 281.533 58.5468 281.617C58.5836 281.697 58.647 281.775 58.7372 281.85C58.8273 281.921 58.9542 281.993 59.1179 282.064C59.2815 282.136 59.4902 282.211 59.744 282.291C60.1882 282.431 60.5539 282.584 60.8411 282.75C61.1283 282.916 61.342 283.108 61.4822 283.325C61.6225 283.541 61.6926 283.796 61.6926 284.087C61.6926 284.325 61.6425 284.539 61.5424 284.728C61.4455 284.917 61.3036 285.076 61.1166 285.203C60.9329 285.328 60.7125 285.419 60.4553 285.477C60.2015 285.531 59.916 285.545 59.5988 285.517C59.1212 285.474 58.7171 285.353 58.3865 285.153C58.0559 284.953 57.8054 284.709 57.6351 284.423C57.4648 284.136 57.3797 283.842 57.3797 283.54L58.3114 283.623C58.3247 283.879 58.3982 284.088 58.5318 284.25C58.6654 284.41 58.829 284.53 59.0227 284.611C59.2164 284.688 59.4084 284.735 59.5988 284.752C59.8526 284.775 60.0646 284.76 60.2349 284.708C60.4086 284.656 60.5405 284.576 60.6307 284.466C60.7208 284.357 60.7659 284.227 60.7659 284.076Z" fill="white" fill-opacity="0.7"/>
<path d="M65.1791 280.468V281.182L62.2487 280.923V280.209L65.1791 280.468ZM63.2405 278.974L64.1672 279.056V284.472C64.1672 284.656 64.1956 284.798 64.2524 284.897C64.3091 284.996 64.3826 285.064 64.4728 285.103C64.5629 285.141 64.6598 285.164 64.7633 285.174C64.8401 285.18 64.9203 285.181 65.0038 285.175C65.0906 285.166 65.1557 285.158 65.1991 285.152L65.2041 285.911C65.1307 285.928 65.0338 285.942 64.9136 285.951C64.7967 285.964 64.6548 285.963 64.4878 285.949C64.2607 285.929 64.052 285.865 63.8616 285.758C63.6713 285.65 63.5193 285.486 63.4058 285.265C63.2956 285.04 63.2405 284.747 63.2405 284.385V278.974Z" fill="white" fill-opacity="0.7"/>
<path d="M68.1947 282.681V283.445L65.7501 283.229V282.465L68.1947 282.681Z" fill="white" fill-opacity="0.7"/>
<path d="M70.0281 278.614V286.338L69.1013 286.256V278.532L70.0281 278.614ZM69.8076 283.392L69.4219 283.342C69.4253 282.971 69.4804 282.632 69.5872 282.326C69.6941 282.017 69.8444 281.754 70.0381 281.536C70.2318 281.319 70.4622 281.158 70.7293 281.054C70.9998 280.947 71.2987 280.909 71.626 280.937C71.8932 280.961 72.1336 281.019 72.3473 281.112C72.5611 281.201 72.7431 281.331 72.8933 281.502C73.047 281.673 73.1638 281.888 73.244 282.147C73.3241 282.402 73.3642 282.709 73.3642 283.067V286.633L72.4325 286.55V282.975C72.4325 282.69 72.3908 282.458 72.3073 282.28C72.2238 282.098 72.1019 281.962 71.9416 281.871C71.7813 281.776 71.5843 281.718 71.3505 281.698C71.1201 281.677 70.9097 281.707 70.7193 281.788C70.5323 281.868 70.3703 281.988 70.2334 282.147C70.0998 282.306 69.9947 282.493 69.9178 282.707C69.8444 282.919 69.8076 283.147 69.8076 283.392Z" fill="white" fill-opacity="0.7"/>
<path d="M77.9477 286.108V283.307C77.9477 283.092 77.9043 282.902 77.8175 282.737C77.734 282.569 77.6071 282.433 77.4368 282.331C77.2664 282.229 77.0561 282.167 76.8056 282.145C76.5718 282.124 76.3664 282.146 76.1894 282.211C76.0158 282.276 75.8789 282.369 75.7787 282.491C75.6818 282.614 75.6334 282.75 75.6334 282.901L74.7067 282.819C74.7067 282.625 74.7568 282.436 74.857 282.254C74.9572 282.072 75.1008 281.912 75.2878 281.774C75.4781 281.633 75.7052 281.529 75.969 281.462C76.2362 281.392 76.5334 281.371 76.8607 281.4C77.2547 281.435 77.6021 281.533 77.9026 281.693C78.2065 281.854 78.4436 282.078 78.6139 282.365C78.7876 282.648 78.8744 282.993 78.8744 283.399V285.933C78.8744 286.114 78.8894 286.308 78.9195 286.515C78.9529 286.723 79.0013 286.903 79.0648 287.056V287.137L78.098 287.051C78.0512 286.94 78.0145 286.794 77.9878 286.614C77.9611 286.431 77.9477 286.262 77.9477 286.108ZM78.108 283.753L78.118 284.408L77.1813 284.325C76.9175 284.302 76.682 284.303 76.475 284.328C76.2679 284.35 76.0943 284.397 75.954 284.468C75.8138 284.539 75.7069 284.636 75.6334 284.757C75.56 284.874 75.5232 285.017 75.5232 285.184C75.5232 285.355 75.5616 285.515 75.6384 285.662C75.7152 285.81 75.8305 285.932 75.9841 286.03C76.141 286.124 76.333 286.181 76.5601 286.201C76.844 286.226 77.0945 286.188 77.3115 286.087C77.5286 285.985 77.7006 285.853 77.8275 285.69C77.9577 285.527 78.0278 285.364 78.0379 285.2L78.4336 285.683C78.4102 285.822 78.3468 285.972 78.2432 286.134C78.1397 286.296 78.0011 286.448 77.8275 286.59C77.6572 286.729 77.4535 286.84 77.2163 286.923C76.9826 287.003 76.7188 287.03 76.4249 287.004C76.0575 286.972 75.7353 286.871 75.4581 286.702C75.1843 286.534 74.9705 286.322 74.8169 286.067C74.6666 285.809 74.5915 285.529 74.5915 285.228C74.5915 284.936 74.6483 284.685 74.7618 284.473C74.8754 284.259 75.039 284.087 75.2527 283.959C75.4664 283.827 75.7236 283.735 76.0241 283.685C76.3247 283.634 76.6603 283.625 77.031 283.658L78.108 283.753Z" fill="white" fill-opacity="0.7"/>
<path d="M81.9 286.548L83.3828 282.077L84.3295 282.161L82.3809 287.43L81.7598 287.375L81.9 286.548ZM80.6627 281.837L82.1906 286.598L82.2957 287.422L81.6746 287.368L79.711 281.753L80.6627 281.837Z" fill="white" fill-opacity="0.7"/>
<path d="M87.4002 287.974C87.0228 287.941 86.6805 287.847 86.3733 287.692C86.0694 287.535 85.8072 287.329 85.5868 287.075C85.3698 286.821 85.2028 286.528 85.0859 286.196C84.969 285.863 84.9106 285.506 84.9106 285.124V284.913C84.9106 284.47 84.9757 284.082 85.1059 283.748C85.2362 283.411 85.4132 283.132 85.6369 282.91C85.8607 282.689 86.1145 282.528 86.3983 282.429C86.6822 282.33 86.9761 282.294 87.28 282.321C87.6674 282.356 88.0013 282.452 88.2818 282.611C88.5657 282.77 88.7978 282.978 88.9781 283.236C89.1584 283.49 89.292 283.783 89.3788 284.116C89.4657 284.446 89.5091 284.801 89.5091 285.184V285.601L85.4616 285.243V284.484L88.5824 284.76V284.689C88.569 284.447 88.5189 284.208 88.4321 283.972C88.3486 283.737 88.215 283.537 88.0314 283.373C87.8477 283.21 87.5972 283.114 87.28 283.086C87.0696 283.067 86.8759 283.095 86.6989 283.17C86.5219 283.242 86.37 283.359 86.243 283.522C86.1161 283.685 86.0176 283.889 85.9475 284.135C85.8774 284.38 85.8423 284.667 85.8423 284.995V285.206C85.8423 285.465 85.8774 285.711 85.9475 285.945C86.021 286.176 86.1262 286.383 86.2631 286.566C86.4033 286.75 86.572 286.899 86.769 287.013C86.9694 287.128 87.1965 287.197 87.4503 287.219C87.7776 287.248 88.0547 287.206 88.2818 287.092C88.5089 286.978 88.7076 286.816 88.8779 286.606L89.439 287.103C89.3221 287.271 89.1735 287.427 88.9931 287.572C88.8128 287.717 88.5907 287.828 88.3269 287.905C88.0664 287.983 87.7575 288.006 87.4002 287.974Z" fill="white" fill-opacity="0.7"/>
<path d="M94.5183 288.503L93.5916 288.421V282.407C93.5916 282.014 93.6618 281.69 93.802 281.434C93.9456 281.176 94.151 280.989 94.4182 280.875C94.6853 280.758 95.0026 280.716 95.3699 280.748C95.4768 280.758 95.5836 280.774 95.6905 280.797C95.8007 280.82 95.9076 280.85 96.0111 280.885L95.961 281.64C95.8909 281.617 95.8107 281.599 95.7206 281.584C95.6337 281.57 95.5469 281.559 95.4601 281.551C95.2631 281.533 95.0927 281.559 94.9491 281.626C94.8089 281.691 94.702 281.796 94.6286 281.94C94.5551 282.084 94.5183 282.267 94.5183 282.488V288.503ZM95.6705 283.164V283.878L92.735 283.618V282.904L95.6705 283.164Z" fill="white" fill-opacity="0.7"/>
<path d="M96.4569 286.014V285.898C96.4569 285.506 96.5137 285.147 96.6273 284.822C96.7408 284.494 96.9044 284.215 97.1182 283.986C97.3319 283.753 97.5907 283.581 97.8946 283.471C98.1985 283.357 98.5391 283.317 98.9165 283.35C99.2972 283.384 99.6395 283.484 99.9434 283.652C100.251 283.817 100.511 284.034 100.725 284.304C100.942 284.572 101.107 284.88 101.221 285.228C101.334 285.574 101.391 285.942 101.391 286.335V286.45C101.391 286.843 101.334 287.201 101.221 287.526C101.107 287.852 100.942 288.13 100.725 288.363C100.511 288.592 100.252 288.763 99.9484 288.877C99.6478 288.988 99.3072 289.027 98.9265 288.993C98.5458 288.96 98.2035 288.861 97.8996 288.696C97.5957 288.529 97.3352 288.311 97.1182 288.044C96.9044 287.773 96.7408 287.466 96.6273 287.12C96.5137 286.775 96.4569 286.406 96.4569 286.014ZM97.3836 285.98V286.096C97.3836 286.368 97.4154 286.627 97.4788 286.874C97.5423 287.117 97.6374 287.337 97.7644 287.533C97.8946 287.729 98.0566 287.889 98.2503 288.013C98.4439 288.134 98.6694 288.206 98.9265 288.229C99.1803 288.251 99.4024 288.219 99.5927 288.132C99.7864 288.042 99.9467 287.91 100.074 287.737C100.201 287.564 100.296 287.361 100.359 287.128C100.426 286.893 100.459 286.639 100.459 286.368V286.252C100.459 285.984 100.426 285.728 100.359 285.484C100.296 285.237 100.199 285.016 100.069 284.82C99.9417 284.621 99.7814 284.459 99.5877 284.335C99.3974 284.211 99.1736 284.137 98.9165 284.114C98.6627 284.092 98.4389 284.126 98.2452 284.216C98.0549 284.306 97.8946 284.44 97.7644 284.616C97.6374 284.789 97.5423 284.994 97.4788 285.229C97.4154 285.462 97.3836 285.712 97.3836 285.98Z" fill="white" fill-opacity="0.7"/>
<path d="M103.48 284.709V289.295L102.553 289.213V283.772L103.455 283.852L103.48 284.709ZM105.173 283.973L105.168 284.838C105.091 284.814 105.018 284.798 104.948 284.788C104.881 284.776 104.804 284.766 104.717 284.758C104.503 284.739 104.315 284.756 104.151 284.808C103.988 284.861 103.849 284.943 103.735 285.053C103.622 285.164 103.532 285.3 103.465 285.462C103.401 285.621 103.36 285.798 103.34 285.994L103.079 286.122C103.079 285.793 103.111 285.488 103.174 285.205C103.241 284.922 103.343 284.677 103.48 284.467C103.617 284.255 103.79 284.096 104.001 283.991C104.215 283.882 104.468 283.841 104.762 283.867C104.829 283.873 104.906 283.888 104.993 283.912C105.08 283.933 105.14 283.954 105.173 283.973Z" fill="white" fill-opacity="0.7"/>
<path d="M109.501 285.432V291.919L108.569 291.837V284.304L109.421 284.379L109.501 285.432ZM113.153 287.384V287.49C113.153 287.886 113.106 288.249 113.013 288.579C112.919 288.906 112.782 289.185 112.602 289.418C112.425 289.65 112.206 289.824 111.946 289.938C111.685 290.052 111.386 290.095 111.049 290.065C110.705 290.034 110.401 289.951 110.137 289.813C109.873 289.676 109.65 289.49 109.466 289.256C109.282 289.022 109.135 288.747 109.025 288.433C108.918 288.118 108.845 287.768 108.805 287.382V286.819C108.845 286.42 108.92 286.066 109.03 285.758C109.14 285.449 109.286 285.19 109.466 284.982C109.65 284.77 109.872 284.617 110.132 284.523C110.393 284.425 110.693 284.391 111.034 284.421C111.375 284.451 111.677 284.545 111.941 284.703C112.204 284.857 112.426 285.064 112.607 285.325C112.787 285.585 112.922 285.891 113.013 286.241C113.106 286.587 113.153 286.969 113.153 287.384ZM112.221 287.408V287.302C112.221 287.03 112.193 286.773 112.136 286.53C112.079 286.284 111.991 286.065 111.87 285.873C111.754 285.678 111.603 285.521 111.42 285.401C111.236 285.277 111.017 285.204 110.763 285.182C110.53 285.161 110.326 285.183 110.152 285.248C109.982 285.314 109.837 285.41 109.716 285.537C109.596 285.66 109.498 285.806 109.421 285.973C109.347 286.138 109.292 286.311 109.256 286.492V287.794C109.322 288.035 109.416 288.264 109.536 288.483C109.656 288.698 109.817 288.878 110.017 289.023C110.217 289.165 110.47 289.249 110.773 289.276C111.024 289.298 111.239 289.265 111.42 289.177C111.603 289.086 111.754 288.954 111.87 288.78C111.991 288.606 112.079 288.403 112.136 288.17C112.193 287.933 112.221 287.679 112.221 287.408Z" fill="white" fill-opacity="0.7"/>
<path d="M115.262 285.75V290.337L114.335 290.255V284.814L115.237 284.893L115.262 285.75ZM116.955 285.015L116.95 285.88C116.873 285.856 116.8 285.839 116.729 285.83C116.663 285.817 116.586 285.807 116.499 285.799C116.285 285.781 116.097 285.797 115.933 285.85C115.769 285.903 115.631 285.984 115.517 286.095C115.404 286.206 115.313 286.342 115.247 286.503C115.183 286.662 115.141 286.839 115.121 287.035L114.861 287.163C114.861 286.835 114.893 286.529 114.956 286.246C115.023 285.964 115.125 285.718 115.262 285.509C115.399 285.297 115.572 285.138 115.783 285.032C115.996 284.924 116.25 284.882 116.544 284.908C116.611 284.914 116.688 284.929 116.775 284.954C116.861 284.975 116.921 284.995 116.955 285.015Z" fill="white" fill-opacity="0.7"/>
<path d="M117.466 287.871V287.756C117.466 287.363 117.523 287.005 117.636 286.679C117.75 286.351 117.913 286.072 118.127 285.843C118.341 285.61 118.6 285.439 118.903 285.328C119.207 285.214 119.548 285.174 119.925 285.207C120.306 285.241 120.648 285.342 120.952 285.509C121.259 285.674 121.52 285.891 121.734 286.162C121.951 286.429 122.116 286.737 122.23 287.086C122.343 287.431 122.4 287.8 122.4 288.192V288.307C122.4 288.7 122.343 289.058 122.23 289.384C122.116 289.709 121.951 289.988 121.734 290.22C121.52 290.449 121.261 290.621 120.957 290.735C120.657 290.845 120.316 290.884 119.935 290.85C119.555 290.817 119.212 290.718 118.908 290.553C118.605 290.386 118.344 290.168 118.127 289.901C117.913 289.631 117.75 289.323 117.636 288.978C117.523 288.632 117.466 288.264 117.466 287.871ZM118.393 287.838V287.953C118.393 288.225 118.424 288.484 118.488 288.731C118.551 288.975 118.646 289.194 118.773 289.39C118.903 289.586 119.065 289.746 119.259 289.87C119.453 289.991 119.678 290.063 119.935 290.086C120.189 290.108 120.411 290.076 120.602 289.989C120.795 289.899 120.956 289.767 121.082 289.594C121.209 289.421 121.305 289.218 121.368 288.986C121.435 288.75 121.468 288.497 121.468 288.225V288.109C121.468 287.841 121.435 287.585 121.368 287.341C121.305 287.094 121.208 286.873 121.077 286.677C120.951 286.478 120.79 286.316 120.597 286.192C120.406 286.068 120.182 285.994 119.925 285.972C119.672 285.949 119.448 285.983 119.254 286.073C119.064 286.164 118.903 286.297 118.773 286.473C118.646 286.646 118.551 286.851 118.488 287.087C118.424 287.319 118.393 287.569 118.393 287.838Z" fill="white" fill-opacity="0.7"/>
<path d="M127.074 285.94L127.915 286.014V291.34C127.915 291.819 127.818 292.219 127.625 292.541C127.431 292.862 127.16 293.095 126.813 293.239C126.469 293.386 126.072 293.44 125.621 293.4C125.434 293.383 125.213 293.334 124.96 293.251C124.709 293.172 124.462 293.051 124.218 292.889C123.978 292.73 123.776 292.526 123.612 292.277L124.098 291.767C124.325 292.062 124.562 292.274 124.809 292.403C125.06 292.532 125.307 292.608 125.551 292.629C125.845 292.655 126.098 292.622 126.312 292.531C126.526 292.439 126.691 292.289 126.808 292.082C126.928 291.878 126.988 291.618 126.988 291.303V287.129L127.074 285.94ZM123.342 288.391V288.285C123.342 287.869 123.39 287.497 123.487 287.167C123.587 286.833 123.729 286.553 123.913 286.324C124.1 286.096 124.325 285.928 124.589 285.821C124.853 285.71 125.15 285.669 125.481 285.698C125.821 285.728 126.118 285.815 126.372 285.958C126.629 286.098 126.846 286.29 127.023 286.534C127.204 286.774 127.346 287.058 127.449 287.386C127.553 287.714 127.625 288.08 127.665 288.486V288.949C127.628 289.345 127.556 289.697 127.449 290.006C127.346 290.315 127.204 290.574 127.023 290.783C126.846 290.992 126.629 291.145 126.372 291.243C126.115 291.338 125.815 291.37 125.471 291.34C125.147 291.311 124.853 291.216 124.589 291.056C124.328 290.895 124.105 290.683 123.918 290.418C123.731 290.153 123.587 289.849 123.487 289.505C123.39 289.158 123.342 288.786 123.342 288.391ZM124.268 288.367V288.473C124.268 288.744 124.295 289.001 124.349 289.244C124.405 289.487 124.49 289.704 124.604 289.895C124.721 290.087 124.869 290.242 125.05 290.362C125.23 290.479 125.446 290.548 125.696 290.57C126.003 290.597 126.257 290.554 126.457 290.441C126.658 290.328 126.816 290.17 126.933 289.965C127.054 289.762 127.147 289.537 127.214 289.291V288.079C127.177 287.892 127.12 287.709 127.044 287.531C126.97 287.35 126.873 287.188 126.753 287.043C126.636 286.895 126.491 286.773 126.317 286.677C126.144 286.582 125.94 286.523 125.706 286.503C125.452 286.48 125.234 286.515 125.05 286.606C124.869 286.694 124.721 286.825 124.604 286.999C124.49 287.17 124.405 287.373 124.349 287.61C124.295 287.843 124.268 288.096 124.268 288.367Z" fill="white" fill-opacity="0.7"/>
<path d="M130.249 287.075V291.662L129.323 291.58V286.139L130.224 286.218L130.249 287.075ZM131.943 286.34L131.938 287.204C131.861 287.181 131.787 287.164 131.717 287.155C131.65 287.142 131.574 287.132 131.487 287.124C131.273 287.105 131.084 287.122 130.921 287.175C130.757 287.228 130.618 287.309 130.505 287.42C130.391 287.53 130.301 287.667 130.234 287.828C130.171 287.987 130.129 288.164 130.109 288.36L129.849 288.488C129.849 288.16 129.88 287.854 129.944 287.571C130.011 287.289 130.113 287.043 130.249 286.834C130.386 286.621 130.56 286.463 130.77 286.357C130.984 286.249 131.238 286.207 131.532 286.233C131.599 286.239 131.675 286.254 131.762 286.279C131.849 286.3 131.909 286.32 131.943 286.34Z" fill="white" fill-opacity="0.7"/>
<path d="M135.795 291.222V288.42C135.795 288.206 135.751 288.016 135.664 287.851C135.581 287.682 135.454 287.547 135.284 287.445C135.113 287.343 134.903 287.281 134.653 287.258C134.419 287.238 134.213 287.26 134.036 287.325C133.863 287.39 133.726 287.483 133.626 287.605C133.529 287.727 133.48 287.864 133.48 288.015L132.554 287.933C132.554 287.738 132.604 287.55 132.704 287.368C132.804 287.186 132.948 287.026 133.135 286.888C133.325 286.747 133.552 286.643 133.816 286.576C134.083 286.506 134.38 286.485 134.708 286.514C135.102 286.549 135.449 286.647 135.75 286.807C136.054 286.968 136.291 287.192 136.461 287.479C136.635 287.762 136.721 288.107 136.721 288.512V291.047C136.721 291.228 136.736 291.422 136.766 291.629C136.8 291.837 136.848 292.017 136.912 292.17V292.251L135.945 292.165C135.898 292.054 135.861 291.908 135.835 291.728C135.808 291.545 135.795 291.376 135.795 291.222ZM135.955 288.867L135.965 289.522L135.028 289.439C134.764 289.416 134.529 289.417 134.322 289.442C134.115 289.464 133.941 289.51 133.801 289.582C133.661 289.653 133.554 289.749 133.48 289.87C133.407 289.988 133.37 290.13 133.37 290.298C133.37 290.469 133.409 290.628 133.485 290.776C133.562 290.924 133.677 291.046 133.831 291.143C133.988 291.238 134.18 291.295 134.407 291.315C134.691 291.34 134.941 291.302 135.159 291.2C135.376 291.099 135.548 290.967 135.674 290.804C135.805 290.641 135.875 290.478 135.885 290.314L136.281 290.797C136.257 290.936 136.194 291.086 136.09 291.248C135.987 291.409 135.848 291.561 135.674 291.704C135.504 291.843 135.3 291.954 135.063 292.037C134.83 292.117 134.566 292.144 134.272 292.118C133.905 292.085 133.582 291.985 133.305 291.816C133.031 291.648 132.818 291.436 132.664 291.181C132.514 290.923 132.438 290.643 132.438 290.341C132.438 290.05 132.495 289.798 132.609 289.587C132.722 289.373 132.886 289.201 133.1 289.072C133.313 288.94 133.571 288.849 133.871 288.799C134.172 288.748 134.507 288.739 134.878 288.772L135.955 288.867Z" fill="white" fill-opacity="0.7"/>
<path d="M139.101 288.084V292.444L138.169 292.362V286.921L139.051 286.999L139.101 288.084ZM138.91 289.501L138.48 289.447C138.483 289.076 138.531 288.736 138.625 288.429C138.718 288.119 138.857 287.855 139.041 287.636C139.224 287.418 139.453 287.257 139.727 287.154C140.001 287.047 140.318 287.01 140.679 287.042C140.933 287.064 141.166 287.122 141.38 287.215C141.594 287.304 141.779 287.432 141.936 287.601C142.093 287.769 142.215 287.977 142.302 288.226C142.389 288.475 142.432 288.771 142.432 289.113V292.739L141.505 292.657V289.076C141.505 288.791 141.457 288.559 141.36 288.379C141.266 288.2 141.133 288.064 140.959 287.972C140.786 287.876 140.582 287.818 140.348 287.797C140.074 287.773 139.846 287.801 139.662 287.882C139.478 287.963 139.331 288.084 139.221 288.246C139.111 288.407 139.031 288.596 138.981 288.813C138.934 289.027 138.91 289.256 138.91 289.501ZM142.422 289.298L141.801 289.434C141.804 289.136 141.853 288.854 141.946 288.587C142.043 288.321 142.182 288.088 142.362 287.89C142.546 287.691 142.771 287.542 143.038 287.442C143.305 287.338 143.611 287.301 143.955 287.331C144.245 287.357 144.502 287.418 144.726 287.515C144.953 287.613 145.144 287.748 145.297 287.923C145.454 288.094 145.573 288.308 145.653 288.563C145.733 288.818 145.773 289.117 145.773 289.458V293.034L144.841 292.952V289.366C144.841 289.061 144.793 288.82 144.696 288.644C144.603 288.465 144.469 288.334 144.295 288.252C144.125 288.166 143.921 288.113 143.684 288.092C143.481 288.074 143.3 288.093 143.143 288.15C142.986 288.206 142.854 288.292 142.748 288.407C142.641 288.518 142.559 288.65 142.502 288.802C142.449 288.955 142.422 289.12 142.422 289.298Z" fill="white" fill-opacity="0.7"/>
<path d="M148.097 288.879V293.239L147.166 293.157V287.716L148.047 287.794L148.097 288.879ZM147.907 290.296L147.476 290.243C147.48 289.871 147.528 289.531 147.622 289.225C147.715 288.914 147.854 288.65 148.037 288.432C148.221 288.213 148.45 288.052 148.724 287.949C148.997 287.843 149.315 287.805 149.675 287.837C149.929 287.86 150.163 287.917 150.377 288.01C150.59 288.099 150.776 288.228 150.933 288.396C151.09 288.564 151.212 288.773 151.298 289.022C151.385 289.271 151.429 289.566 151.429 289.908V293.534L150.502 293.452V289.871C150.502 289.587 150.453 289.354 150.357 289.175C150.263 288.995 150.13 288.86 149.956 288.767C149.782 288.671 149.579 288.613 149.345 288.592C149.071 288.568 148.842 288.597 148.658 288.678C148.475 288.759 148.328 288.88 148.218 289.041C148.107 289.202 148.027 289.391 147.977 289.608C147.93 289.822 147.907 290.051 147.907 290.296ZM151.419 290.093L150.797 290.23C150.801 289.931 150.849 289.649 150.943 289.382C151.04 289.116 151.178 288.884 151.358 288.685C151.542 288.487 151.768 288.337 152.035 288.237C152.302 288.133 152.607 288.096 152.951 288.127C153.242 288.152 153.499 288.214 153.723 288.311C153.95 288.408 154.14 288.544 154.294 288.718C154.451 288.89 154.569 289.103 154.65 289.358C154.73 289.613 154.77 289.912 154.77 290.254V293.829L153.838 293.747V290.161C153.838 289.856 153.79 289.616 153.693 289.439C153.599 289.26 153.466 289.129 153.292 289.047C153.122 288.962 152.918 288.908 152.681 288.887C152.477 288.869 152.297 288.889 152.14 288.945C151.983 289.002 151.851 289.087 151.744 289.202C151.637 289.313 151.556 289.445 151.499 289.598C151.445 289.75 151.419 289.916 151.419 290.093Z" fill="white" fill-opacity="0.7"/>
<path d="M158.422 294.253C158.044 294.219 157.702 294.125 157.395 293.971C157.091 293.813 156.829 293.607 156.608 293.353C156.391 293.099 156.224 292.806 156.107 292.474C155.99 292.142 155.932 291.785 155.932 291.403V291.191C155.932 290.749 155.997 290.361 156.127 290.027C156.258 289.69 156.435 289.41 156.658 289.189C156.882 288.967 157.136 288.807 157.42 288.708C157.704 288.609 157.997 288.573 158.301 288.6C158.689 288.634 159.023 288.731 159.303 288.889C159.587 289.049 159.819 289.257 159.999 289.514C160.18 289.768 160.313 290.062 160.4 290.395C160.487 290.724 160.53 291.08 160.53 291.462V291.879L156.483 291.522V290.762L159.604 291.038V290.968C159.59 290.725 159.54 290.486 159.453 290.25C159.37 290.015 159.236 289.816 159.053 289.652C158.869 289.488 158.619 289.392 158.301 289.364C158.091 289.346 157.897 289.374 157.72 289.449C157.543 289.52 157.391 289.637 157.264 289.8C157.138 289.964 157.039 290.168 156.969 290.413C156.899 290.658 156.864 290.945 156.864 291.274V291.485C156.864 291.743 156.899 291.989 156.969 292.223C157.042 292.455 157.148 292.662 157.284 292.845C157.425 293.028 157.593 293.177 157.79 293.292C157.991 293.407 158.218 293.475 158.472 293.498C158.799 293.527 159.076 293.484 159.303 293.37C159.53 293.256 159.729 293.094 159.899 292.885L160.46 293.382C160.343 293.549 160.195 293.705 160.014 293.85C159.834 293.995 159.612 294.106 159.348 294.184C159.088 294.261 158.779 294.284 158.422 294.253Z" fill="white" fill-opacity="0.7"/>
<path d="M162.539 289.93V294.516L161.612 294.434V288.993L162.514 289.073L162.539 289.93ZM164.232 289.194L164.227 290.059C164.151 290.035 164.077 290.019 164.007 290.009C163.94 289.997 163.863 289.987 163.776 289.979C163.563 289.96 163.374 289.977 163.21 290.029C163.047 290.082 162.908 290.164 162.795 290.274C162.681 290.385 162.591 290.521 162.524 290.683C162.461 290.841 162.419 291.019 162.399 291.215L162.138 291.343C162.138 291.014 162.17 290.709 162.234 290.426C162.3 290.143 162.402 289.898 162.539 289.688C162.676 289.476 162.85 289.317 163.06 289.212C163.274 289.103 163.528 289.062 163.822 289.088C163.888 289.094 163.965 289.109 164.052 289.133C164.139 289.154 164.199 289.175 164.232 289.194Z" fill="white" fill-opacity="0.7"/>
<path d="M168.245 293.577C168.245 293.443 168.215 293.316 168.155 293.197C168.098 293.075 167.979 292.959 167.799 292.849C167.622 292.736 167.355 292.629 166.997 292.527C166.697 292.436 166.425 292.337 166.181 292.228C165.94 292.12 165.735 291.996 165.565 291.857C165.398 291.718 165.269 291.561 165.179 291.385C165.089 291.21 165.044 291.01 165.044 290.785C165.044 290.57 165.091 290.372 165.184 290.189C165.281 290.006 165.416 289.849 165.59 289.717C165.767 289.585 165.979 289.488 166.226 289.426C166.473 289.364 166.749 289.346 167.053 289.373C167.487 289.412 167.857 289.522 168.165 289.703C168.472 289.884 168.707 290.111 168.871 290.384C169.035 290.653 169.116 290.944 169.116 291.256L168.19 291.174C168.19 291.023 168.145 290.873 168.054 290.724C167.968 290.572 167.839 290.442 167.669 290.333C167.502 290.224 167.296 290.159 167.053 290.138C166.795 290.115 166.587 290.137 166.426 290.203C166.269 290.266 166.154 290.355 166.081 290.469C166.011 290.584 165.976 290.708 165.976 290.842C165.976 290.943 165.992 291.035 166.026 291.118C166.062 291.198 166.126 291.276 166.216 291.351C166.306 291.423 166.433 291.494 166.597 291.566C166.76 291.637 166.969 291.713 167.223 291.792C167.667 291.932 168.033 292.085 168.32 292.251C168.607 292.417 168.821 292.609 168.961 292.826C169.101 293.043 169.171 293.297 169.171 293.589C169.171 293.827 169.121 294.04 169.021 294.229C168.924 294.418 168.782 294.577 168.595 294.704C168.412 294.829 168.191 294.92 167.934 294.978C167.68 295.033 167.395 295.046 167.078 295.018C166.6 294.976 166.196 294.854 165.865 294.654C165.535 294.454 165.284 294.211 165.114 293.924C164.944 293.637 164.858 293.343 164.858 293.042L165.79 293.124C165.804 293.38 165.877 293.589 166.011 293.752C166.144 293.911 166.308 294.031 166.501 294.112C166.695 294.19 166.887 294.237 167.078 294.254C167.331 294.276 167.543 294.261 167.714 294.209C167.887 294.157 168.019 294.077 168.109 293.968C168.2 293.858 168.245 293.728 168.245 293.577Z" fill="white" fill-opacity="0.7"/>
<path d="M60.075 125.414V123.662L56.5322 122.434L56.0925 122.273L56.5322 122.117L60.075 120.959V119.213L54.3534 121.514V122.969L60.075 125.414Z" fill="white" fill-opacity="0.9"/>
<path d="M62.021 122.82V122.955C62.021 123.464 62.0835 123.937 62.2085 124.374C62.3335 124.806 62.5145 125.182 62.7516 125.499C62.9843 125.817 63.2688 126.068 63.605 126.253C63.9455 126.434 64.3291 126.528 64.7558 126.533C65.148 126.538 65.4928 126.467 65.7902 126.32C66.0876 126.173 66.3462 125.965 66.566 125.696L66.6565 126.428L68.2792 126.448V116.517L66.4755 116.494V120.057C66.26 119.813 66.0121 119.624 65.732 119.491C65.4561 119.354 65.135 119.283 64.7687 119.279C64.3334 119.273 63.9455 119.355 63.605 119.523C63.2688 119.691 62.9822 119.931 62.7451 120.243C62.5081 120.554 62.327 120.929 62.202 121.367C62.0814 121.805 62.021 122.29 62.021 122.82ZM63.8183 122.978V122.842C63.8183 122.549 63.8442 122.276 63.8959 122.022C63.9476 121.764 64.0295 121.539 64.1416 121.346C64.2536 121.158 64.398 121.011 64.5747 120.906C64.7558 120.796 64.9734 120.743 65.2277 120.746C65.5337 120.75 65.788 120.82 65.9906 120.956C66.1932 121.088 66.3548 121.273 66.4755 121.512V124.343C66.3548 124.575 66.191 124.756 65.9841 124.887C65.7816 125.018 65.5251 125.082 65.2148 125.078C64.9605 125.074 64.745 125.018 64.5683 124.908C64.3916 124.798 64.2472 124.647 64.1351 124.456C64.023 124.269 63.9412 124.051 63.8894 123.8C63.842 123.545 63.8183 123.271 63.8183 122.978Z" fill="white" fill-opacity="0.9"/>
<path d="M73.5547 126.644C74.2314 126.652 74.8176 126.528 75.3132 126.272C75.8089 126.015 76.171 125.726 76.3994 125.406L75.5007 124.425C75.2939 124.689 75.0245 124.886 74.6926 125.016C74.3607 125.145 74.0181 125.208 73.6646 125.203C73.4147 125.2 73.1841 125.159 72.9729 125.078C72.7617 124.998 72.5742 124.886 72.4104 124.742C72.251 124.602 72.1238 124.447 72.029 124.278C71.9342 124.104 71.8566 123.877 71.7962 123.596V123.576L76.5416 123.636V122.873C76.5416 122.36 76.4705 121.892 76.3283 121.468C76.186 121.039 75.9792 120.672 75.7076 120.367C75.4318 120.062 75.0956 119.825 74.6991 119.656C74.3069 119.483 73.8586 119.393 73.3543 119.387C72.8673 119.381 72.4169 119.464 72.0031 119.635C71.5894 119.807 71.2316 120.05 70.9299 120.365C70.6282 120.68 70.3933 121.059 70.2252 121.501C70.0571 121.938 69.9731 122.424 69.9731 122.959V123.217C69.9731 123.687 70.0571 124.13 70.2252 124.546C70.3976 124.958 70.6411 125.316 70.9558 125.622C71.2704 125.932 71.6475 126.178 72.0872 126.36C72.5268 126.543 73.016 126.637 73.5547 126.644ZM73.3414 120.842C73.5698 120.844 73.7702 120.884 73.9426 120.959C74.1194 121.03 74.2681 121.127 74.3887 121.249C74.5094 121.376 74.6042 121.523 74.6732 121.692C74.7422 121.861 74.7766 122.041 74.7766 122.23V122.373L71.8286 122.335C71.8717 122.108 71.9363 121.901 72.0225 121.717C72.1087 121.533 72.2165 121.375 72.3458 121.243C72.4708 121.111 72.6173 121.011 72.7854 120.944C72.9535 120.873 73.1388 120.839 73.3414 120.842Z" fill="white" fill-opacity="0.9"/>
<path d="M84.4161 123.225V123.089C84.4161 122.666 84.3773 122.269 84.2997 121.898C84.2265 121.526 84.1122 121.191 83.9571 120.891C83.8579 120.705 83.7437 120.533 83.6144 120.376C83.4851 120.215 83.3407 120.077 83.1813 119.963C82.983 119.814 82.7567 119.699 82.5024 119.619C82.2525 119.538 81.9766 119.496 81.6749 119.492C81.4551 119.489 81.2504 119.51 81.0607 119.555C80.8754 119.596 80.703 119.661 80.5435 119.749C80.4314 119.808 80.3259 119.88 80.2267 119.965C80.1276 120.046 80.0349 120.135 79.9487 120.233V116.664L78.1514 116.641V126.572L79.7677 126.593L79.8517 125.85C79.925 125.946 80.0026 126.035 80.0845 126.118C80.1664 126.197 80.2547 126.269 80.3496 126.335C80.5263 126.467 80.7245 126.566 80.9443 126.633C81.1685 126.705 81.4163 126.743 81.6878 126.746C81.9852 126.75 82.2568 126.715 82.5024 126.64C82.7524 126.57 82.9765 126.465 83.1748 126.325C83.3946 126.177 83.5843 125.99 83.7437 125.764C83.9075 125.537 84.039 125.285 84.1381 125.006C84.2286 124.752 84.2976 124.477 84.345 124.181C84.3924 123.879 84.4161 123.561 84.4161 123.225ZM82.6188 123.066V123.202C82.6188 123.383 82.6102 123.557 82.5929 123.725C82.58 123.893 82.5563 124.048 82.5218 124.19C82.4787 124.383 82.4141 124.557 82.3279 124.711C82.246 124.861 82.1382 124.983 82.0046 125.076C81.9098 125.143 81.7977 125.196 81.6684 125.233C81.5391 125.27 81.3947 125.288 81.2353 125.286C81.0499 125.284 80.884 125.26 80.7375 125.215C80.5952 125.17 80.4702 125.106 80.3625 125.023C80.272 124.957 80.1922 124.88 80.1233 124.793C80.0586 124.702 80.0004 124.602 79.9487 124.494V121.707C79.9875 121.626 80.0306 121.551 80.078 121.482C80.1254 121.41 80.1772 121.346 80.2332 121.29C80.3496 121.175 80.4896 121.089 80.6534 121.031C80.8172 120.972 81.0068 120.945 81.2223 120.947C81.3818 120.949 81.524 120.97 81.649 121.011C81.774 121.047 81.8861 121.102 81.9852 121.177C82.1361 121.295 82.2481 121.426 82.3214 121.569C82.399 121.708 82.4615 121.866 82.5089 122.043C82.5477 122.195 82.5757 122.357 82.5929 122.529C82.6102 122.702 82.6188 122.881 82.6188 123.066Z" fill="white" fill-opacity="0.9"/>
<path d="M90.6291 126.73L92.2583 126.75V119.754L90.4545 119.732V124.639C90.3985 124.75 90.3317 124.851 90.2541 124.94C90.1765 125.03 90.0881 125.106 89.989 125.17C89.8726 125.242 89.7369 125.296 89.5817 125.333C89.4309 125.37 89.2606 125.387 89.071 125.385C88.8598 125.382 88.6809 125.354 88.5344 125.3C88.3878 125.247 88.2693 125.159 88.1788 125.037C88.0883 124.92 88.0215 124.764 87.9784 124.569C87.9396 124.375 87.9202 124.135 87.9202 123.851V119.7L86.1229 119.677V123.815C86.1229 124.345 86.1811 124.801 86.2974 125.181C86.4181 125.558 86.5862 125.868 86.8017 126.112C87.0172 126.361 87.2758 126.543 87.5775 126.659C87.8792 126.775 88.2111 126.835 88.5732 126.839C88.9697 126.844 89.3339 126.75 89.6657 126.556C90.0019 126.362 90.2886 126.092 90.5256 125.746L90.6291 126.73Z" fill="white" fill-opacity="0.9"/>
<path d="M93.8357 123.22V123.356C93.8357 123.865 93.9004 124.338 94.0297 124.775C94.1633 125.207 94.3529 125.583 94.5986 125.9C94.8443 126.218 95.1395 126.47 95.4843 126.655C95.8334 126.836 96.2257 126.929 96.661 126.935C96.8808 126.938 97.0855 126.917 97.2752 126.871C97.4691 126.827 97.6458 126.762 97.8053 126.678C97.913 126.619 98.0143 126.551 98.1092 126.475C98.204 126.398 98.2945 126.313 98.3807 126.219V126.62C98.3807 126.857 98.3462 127.07 98.2773 127.259C98.2126 127.448 98.1178 127.606 97.9928 127.734C97.8549 127.874 97.6825 127.98 97.4756 128.051C97.273 128.121 97.0403 128.155 96.7774 128.152C96.6136 128.15 96.4541 128.131 96.2989 128.094C96.1481 128.062 96.0015 128.013 95.8593 127.946C95.7128 127.88 95.5727 127.794 95.4391 127.689C95.3055 127.588 95.1805 127.47 95.0641 127.335L94.256 128.418C94.4068 128.613 94.5878 128.782 94.799 128.922C95.0102 129.067 95.2344 129.186 95.4714 129.28C95.7085 129.373 95.9477 129.443 96.189 129.489C96.4304 129.535 96.6567 129.56 96.8679 129.563C97.3592 129.569 97.8075 129.508 98.2126 129.379C98.6221 129.255 98.9733 129.067 99.2664 128.817C99.5552 128.566 99.7793 128.256 99.9388 127.888C100.103 127.519 100.184 127.098 100.184 126.624V119.854L98.5488 119.834L98.4777 120.499C98.3915 120.39 98.2966 120.292 98.1932 120.204C98.0898 120.112 97.9777 120.033 97.857 119.967C97.6975 119.875 97.5187 119.806 97.3204 119.76C97.1265 119.71 96.911 119.684 96.6739 119.681C96.2343 119.675 95.8399 119.756 95.4908 119.924C95.1417 120.092 94.8443 120.332 94.5986 120.644C94.3529 120.955 94.1633 121.33 94.0297 121.768C93.9004 122.206 93.8357 122.69 93.8357 123.22ZM95.6395 123.379V123.243C95.6395 122.95 95.6697 122.677 95.73 122.423C95.7903 122.165 95.883 121.94 96.008 121.748C96.1287 121.56 96.2817 121.413 96.467 121.307C96.6524 121.198 96.8722 121.144 97.1265 121.148C97.2644 121.149 97.3915 121.164 97.5079 121.191C97.6286 121.219 97.7385 121.257 97.8376 121.305C97.954 121.363 98.0574 121.437 98.1479 121.529C98.2385 121.621 98.316 121.727 98.3807 121.849V124.81C98.3204 124.917 98.2492 125.013 98.1673 125.098C98.0855 125.183 97.9906 125.255 97.8829 125.314C97.7794 125.369 97.6631 125.411 97.5338 125.439C97.4088 125.468 97.2687 125.481 97.1135 125.479C96.8592 125.476 96.6394 125.42 96.4541 125.309C96.2688 125.199 96.1158 125.049 95.9951 124.857C95.8744 124.671 95.7839 124.452 95.7235 124.201C95.6675 123.946 95.6395 123.672 95.6395 123.379Z" fill="white" fill-opacity="0.9"/>
<path d="M101.788 123.321V123.456C101.788 123.965 101.852 124.438 101.982 124.875C102.115 125.307 102.305 125.683 102.551 126C102.796 126.318 103.092 126.57 103.436 126.755C103.786 126.936 104.178 127.03 104.613 127.035C104.833 127.038 105.038 127.017 105.227 126.972C105.421 126.927 105.598 126.862 105.757 126.778C105.865 126.719 105.966 126.651 106.061 126.575C106.156 126.498 106.247 126.413 106.333 126.32V126.72C106.333 126.958 106.298 127.17 106.229 127.359C106.165 127.548 106.07 127.706 105.945 127.834C105.807 127.975 105.635 128.08 105.428 128.151C105.225 128.222 104.992 128.255 104.729 128.252C104.566 128.25 104.406 128.231 104.251 128.194C104.1 128.162 103.954 128.113 103.811 128.046C103.665 127.98 103.525 127.894 103.391 127.789C103.258 127.688 103.133 127.57 103.016 127.435L102.208 128.518C102.359 128.714 102.54 128.882 102.751 129.022C102.962 129.167 103.186 129.286 103.423 129.38C103.661 129.473 103.9 129.543 104.141 129.589C104.382 129.636 104.609 129.66 104.82 129.663C105.311 129.669 105.76 129.608 106.165 129.479C106.574 129.355 106.925 129.168 107.218 128.917C107.507 128.666 107.731 128.357 107.891 127.988C108.055 127.619 108.137 127.198 108.137 126.724V119.954L106.501 119.934L106.43 120.599C106.344 120.49 106.249 120.392 106.145 120.304C106.042 120.212 105.93 120.133 105.809 120.067C105.65 119.975 105.471 119.906 105.272 119.86C105.079 119.81 104.863 119.784 104.626 119.781C104.186 119.775 103.792 119.856 103.443 120.025C103.094 120.193 102.796 120.432 102.551 120.744C102.305 121.055 102.115 121.43 101.982 121.868C101.852 122.306 101.788 122.79 101.788 123.321ZM103.592 123.479V123.343C103.592 123.05 103.622 122.777 103.682 122.523C103.742 122.265 103.835 122.04 103.96 121.848C104.081 121.66 104.234 121.513 104.419 121.408C104.604 121.298 104.824 121.245 105.079 121.248C105.216 121.249 105.344 121.264 105.46 121.291C105.581 121.319 105.691 121.357 105.79 121.405C105.906 121.463 106.009 121.537 106.1 121.629C106.191 121.721 106.268 121.827 106.333 121.949V124.91C106.272 125.017 106.201 125.113 106.119 125.198C106.038 125.284 105.943 125.356 105.835 125.415C105.731 125.469 105.615 125.511 105.486 125.54C105.361 125.568 105.221 125.581 105.066 125.579C104.811 125.576 104.591 125.52 104.406 125.41C104.221 125.299 104.068 125.149 103.947 124.958C103.826 124.771 103.736 124.552 103.676 124.301C103.62 124.046 103.592 123.772 103.592 123.479Z" fill="white" fill-opacity="0.9"/>
<path d="M110.399 119.983V121.451L112.391 121.476V125.542L110.399 125.517V126.979L116.102 127.05V125.589L114.207 125.565V120.031L110.399 119.983ZM112.261 118.215C112.261 118.353 112.285 118.483 112.332 118.604C112.384 118.721 112.455 118.821 112.546 118.904C112.636 118.992 112.744 119.06 112.869 119.109C112.998 119.158 113.14 119.183 113.296 119.185C113.615 119.189 113.867 119.104 114.052 118.93C114.242 118.751 114.337 118.522 114.337 118.241C114.337 117.961 114.242 117.732 114.052 117.552C113.867 117.369 113.615 117.275 113.296 117.271C113.14 117.269 112.998 117.291 112.869 117.337C112.744 117.383 112.636 117.446 112.546 117.527C112.455 117.612 112.384 117.715 112.332 117.835C112.285 117.95 112.261 118.077 112.261 118.215Z" fill="white" fill-opacity="0.9"/>
<path d="M117.873 127.073L119.677 127.095V122.123C119.737 122.029 119.804 121.944 119.877 121.867C119.95 121.791 120.032 121.725 120.123 121.67C120.235 121.594 120.362 121.537 120.504 121.5C120.651 121.463 120.81 121.446 120.983 121.448C121.19 121.451 121.375 121.475 121.539 121.52C121.702 121.561 121.842 121.633 121.959 121.738C122.075 121.843 122.164 121.987 122.224 122.168C122.289 122.346 122.321 122.573 122.321 122.849V127.129L124.118 127.151V122.845C124.118 122.337 124.058 121.905 123.937 121.55C123.821 121.191 123.657 120.895 123.446 120.664C123.23 120.438 122.976 120.271 122.683 120.163C122.39 120.056 122.067 120 121.713 119.996C121.437 119.993 121.177 120.028 120.931 120.103C120.685 120.177 120.459 120.286 120.252 120.43C120.131 120.515 120.017 120.61 119.909 120.717C119.802 120.823 119.703 120.941 119.612 121.069L119.502 120.097L117.873 120.077V127.073Z" fill="white" fill-opacity="0.9"/>
<path d="M125.644 123.621V123.757C125.644 124.265 125.709 124.738 125.838 125.175C125.972 125.608 126.161 125.983 126.407 126.301C126.653 126.619 126.948 126.87 127.293 127.056C127.642 127.237 128.034 127.33 128.469 127.335C128.689 127.338 128.894 127.317 129.083 127.272C129.277 127.227 129.454 127.163 129.614 127.078C129.721 127.019 129.823 126.952 129.917 126.875C130.012 126.799 130.103 126.714 130.189 126.62V127.021C130.189 127.258 130.154 127.471 130.085 127.66C130.021 127.849 129.926 128.007 129.801 128.135C129.663 128.275 129.491 128.381 129.284 128.451C129.081 128.522 128.849 128.556 128.586 128.552C128.422 128.55 128.262 128.531 128.107 128.495C127.956 128.463 127.81 128.413 127.668 128.347C127.521 128.28 127.381 128.195 127.247 128.089C127.114 127.989 126.989 127.871 126.872 127.736L126.064 128.818C126.215 129.014 126.396 129.182 126.607 129.323C126.818 129.468 127.043 129.587 127.28 129.68C127.517 129.774 127.756 129.844 127.997 129.89C128.239 129.936 128.465 129.96 128.676 129.963C129.167 129.969 129.616 129.908 130.021 129.78C130.43 129.655 130.782 129.468 131.075 129.217C131.363 128.967 131.588 128.657 131.747 128.288C131.911 127.92 131.993 127.498 131.993 127.024V120.255L130.357 120.234L130.286 120.899C130.2 120.79 130.105 120.692 130.001 120.605C129.898 120.513 129.786 120.434 129.665 120.368C129.506 120.275 129.327 120.206 129.129 120.16C128.935 120.111 128.719 120.084 128.482 120.081C128.043 120.076 127.648 120.157 127.299 120.325C126.95 120.493 126.653 120.733 126.407 121.044C126.161 121.356 125.972 121.731 125.838 122.169C125.709 122.607 125.644 123.091 125.644 123.621ZM127.448 123.779V123.644C127.448 123.351 127.478 123.077 127.538 122.824C127.599 122.566 127.691 122.341 127.816 122.148C127.937 121.96 128.09 121.813 128.275 121.708C128.461 121.598 128.68 121.545 128.935 121.548C129.073 121.55 129.2 121.564 129.316 121.592C129.437 121.619 129.547 121.657 129.646 121.706C129.762 121.763 129.866 121.838 129.956 121.93C130.047 122.021 130.124 122.128 130.189 122.249V125.211C130.129 125.318 130.057 125.414 129.976 125.499C129.894 125.584 129.799 125.656 129.691 125.715C129.588 125.77 129.471 125.811 129.342 125.84C129.217 125.869 129.077 125.882 128.922 125.88C128.667 125.877 128.448 125.82 128.262 125.71C128.077 125.6 127.924 125.449 127.803 125.258C127.683 125.071 127.592 124.852 127.532 124.602C127.476 124.347 127.448 124.073 127.448 123.779Z" fill="white" fill-opacity="0.9"/>
<path d="M143.914 128.209L147.438 118.031L145.763 118.01L142.24 128.188L143.914 128.209Z" fill="white" fill-opacity="0.9"/>
<path d="M149.81 126.55L155.629 124.251V122.783L149.81 120.343V122.083L153.521 123.351L153.909 123.486L153.515 123.61L149.81 124.805V126.55Z" fill="white" fill-opacity="0.9"/>
<path d="M56.2542 143.297L57.4567 143.312V137.241L60.1526 137.275V136.35L57.4567 136.316V135.825C57.4567 135.532 57.4933 135.276 57.5666 135.057C57.6442 134.838 57.7562 134.66 57.9028 134.524C58.0407 134.392 58.2131 134.295 58.42 134.233C58.6312 134.167 58.8725 134.136 59.1441 134.139C59.4113 134.142 59.6613 134.169 59.894 134.22C60.1311 134.266 60.338 134.32 60.5147 134.383L60.6569 133.395C60.5448 133.364 60.4349 133.336 60.3272 133.313C60.2194 133.286 60.1117 133.261 60.0039 133.238C59.8401 133.206 59.6742 133.18 59.5061 133.161C59.338 133.137 59.1678 133.124 58.9954 133.122C58.5816 133.117 58.2066 133.17 57.8704 133.282C57.5343 133.395 57.2476 133.563 57.0106 133.789C56.7692 134.014 56.5817 134.296 56.4481 134.635C56.3188 134.97 56.2542 135.361 56.2542 135.81V136.301L54.3276 136.277V137.201L56.2542 137.225V143.297Z" fill="white" fill-opacity="0.9"/>
<path d="M62.0857 139.808V139.95C62.0857 140.454 62.159 140.923 62.3055 141.356C62.452 141.789 62.6632 142.166 62.9391 142.489C63.2106 142.811 63.5425 143.065 63.9347 143.251C64.3312 143.437 64.7773 143.533 65.273 143.54C65.7643 143.546 66.2061 143.461 66.5983 143.285C66.9905 143.109 67.3246 142.863 67.6004 142.547C67.8719 142.232 68.081 141.859 68.2275 141.43C68.3741 141.001 68.4473 140.534 68.4473 140.03V139.888C68.4473 139.383 68.3741 138.915 68.2275 138.482C68.081 138.045 67.8719 137.665 67.6004 137.343C67.3246 137.02 66.9884 136.766 66.5918 136.58C66.1996 136.39 65.7557 136.291 65.26 136.285C64.7687 136.279 64.3269 136.366 63.9347 136.546C63.5425 136.722 63.2106 136.968 62.9391 137.284C62.6632 137.599 62.452 137.974 62.3055 138.407C62.159 138.836 62.0857 139.303 62.0857 139.808ZM63.2817 139.965V139.823C63.2817 139.482 63.3227 139.157 63.4046 138.848C63.4864 138.534 63.6114 138.26 63.7795 138.025C63.9433 137.79 64.148 137.605 64.3937 137.47C64.6394 137.331 64.9282 137.264 65.26 137.268C65.5919 137.272 65.8807 137.347 66.1264 137.492C66.3763 137.633 66.5854 137.823 66.7535 138.062C66.9173 138.302 67.0401 138.579 67.122 138.895C67.2082 139.206 67.2513 139.532 67.2513 139.873V140.015C67.2513 140.36 67.2103 140.689 67.1284 141.003C67.0466 141.312 66.9237 141.584 66.7599 141.819C66.5918 142.054 66.3828 142.239 66.1328 142.374C65.8872 142.508 65.6005 142.574 65.273 142.57C64.9411 142.566 64.6502 142.493 64.4002 142.352C64.1502 142.211 63.9433 142.021 63.7795 141.782C63.6114 141.542 63.4864 141.267 63.4046 140.956C63.3227 140.64 63.2817 140.31 63.2817 139.965Z" fill="white" fill-opacity="0.9"/>
<path d="M74.9577 136.407C74.4491 136.401 73.9944 136.507 73.5935 136.726C73.197 136.941 72.8565 137.238 72.5721 137.618L72.5656 137.444L72.5139 136.506L71.376 136.491V143.487L72.5785 143.502V139.015C72.6561 138.801 72.7531 138.608 72.8694 138.437C72.9901 138.262 73.1302 138.115 73.2897 137.996C73.4664 137.86 73.6733 137.76 73.9103 137.694C74.1474 137.623 74.4125 137.59 74.7055 137.594C74.934 137.597 75.1516 137.612 75.3585 137.641C75.5697 137.665 75.7917 137.704 76.0244 137.759L76.186 136.591C76.0654 136.537 75.8843 136.494 75.643 136.461C75.4059 136.428 75.1775 136.41 74.9577 136.407Z" fill="white" fill-opacity="0.9"/>
<path d="M90.8747 143.733L92.1225 143.748V143.645C92.0449 143.45 91.9846 143.223 91.9415 142.964C91.8984 142.7 91.8768 142.452 91.8768 142.219V138.967C91.8768 138.575 91.8057 138.231 91.6635 137.937C91.5212 137.642 91.3273 137.393 91.0816 137.192C90.8316 136.995 90.5364 136.847 90.1959 136.748C89.8554 136.644 89.4869 136.59 89.0904 136.585C88.655 136.58 88.265 136.635 87.9202 136.751C87.5797 136.868 87.2909 137.022 87.0539 137.213C86.8125 137.408 86.6272 137.627 86.4979 137.871C86.3729 138.116 86.3082 138.365 86.3039 138.619L87.5064 138.634C87.5064 138.488 87.5409 138.348 87.6099 138.215C87.6831 138.078 87.7844 137.961 87.9137 137.863C88.043 137.766 88.2003 137.688 88.3857 137.63C88.5753 137.572 88.7887 137.545 89.0257 137.548C89.28 137.551 89.5084 137.586 89.711 137.653C89.9179 137.721 90.0924 137.813 90.2347 137.931C90.3769 138.054 90.4868 138.2 90.5644 138.369C90.642 138.538 90.6808 138.728 90.6808 138.939V139.489L89.3748 139.472C88.8878 139.466 88.446 139.508 88.0495 139.598C87.6573 139.688 87.3211 139.826 87.0409 140.012C86.7608 140.202 86.5431 140.441 86.388 140.728C86.2371 141.015 86.1617 141.35 86.1617 141.734C86.1617 142.027 86.2177 142.301 86.3298 142.557C86.4461 142.808 86.6099 143.026 86.8211 143.21C87.028 143.398 87.2801 143.547 87.5775 143.659C87.8792 143.77 88.2154 143.829 88.5861 143.833C88.8145 143.836 89.03 143.815 89.2326 143.77C89.4352 143.725 89.627 143.663 89.808 143.583C89.9847 143.504 90.1463 143.411 90.2929 143.305C90.4437 143.199 90.5795 143.087 90.7002 142.968C90.7131 143.114 90.7325 143.257 90.7584 143.395C90.7885 143.529 90.8273 143.642 90.8747 143.733ZM88.7606 142.794C88.5279 142.791 88.3232 142.759 88.1465 142.696C87.9697 142.634 87.8232 142.548 87.7068 142.438C87.5905 142.334 87.5021 142.207 87.4418 142.06C87.3857 141.913 87.3577 141.753 87.3577 141.581C87.3577 141.4 87.39 141.238 87.4547 141.097C87.5236 140.956 87.6228 140.834 87.7521 140.732C87.9331 140.588 88.1766 140.483 88.4826 140.418C88.793 140.349 89.155 140.317 89.5688 140.322L90.6808 140.336V141.752C90.6118 141.889 90.517 142.021 90.3963 142.149C90.2756 142.273 90.1334 142.383 89.9696 142.48C89.8015 142.577 89.6162 142.654 89.4136 142.712C89.211 142.77 88.9934 142.797 88.7606 142.794Z" fill="white" fill-opacity="0.9"/>
<path d="M100.159 140.429V140.294C100.159 139.927 100.128 139.58 100.068 139.251C100.008 138.919 99.9194 138.616 99.803 138.343C99.6909 138.1 99.5616 137.881 99.4151 137.685C99.2686 137.485 99.1026 137.315 98.9173 137.174C98.7104 137.025 98.4798 136.908 98.2255 136.823C97.9712 136.738 97.6932 136.693 97.3915 136.69C97.1502 136.687 96.926 136.708 96.7192 136.752C96.5123 136.797 96.3226 136.864 96.1502 136.952C96.0123 137.024 95.883 137.11 95.7623 137.212C95.6416 137.31 95.5317 137.421 95.4326 137.544V133.859L94.2366 133.844V143.775L95.3356 143.789L95.3938 142.994C95.4714 143.094 95.5533 143.186 95.6395 143.269C95.7257 143.352 95.8162 143.429 95.911 143.499C96.1093 143.639 96.3313 143.748 96.5769 143.824C96.8269 143.9 97.1028 143.94 97.4045 143.944C97.6674 143.948 97.9109 143.918 98.135 143.856C98.3635 143.795 98.5725 143.707 98.7621 143.593C99.025 143.428 99.2492 143.22 99.4345 142.968C99.6241 142.711 99.7772 142.422 99.8935 142.101C99.9797 141.856 100.044 141.594 100.087 141.314C100.135 141.03 100.159 140.735 100.159 140.429ZM98.9625 140.278V140.414C98.9625 140.621 98.9496 140.824 98.9238 141.022C98.8979 141.219 98.857 141.404 98.8009 141.576C98.732 141.804 98.6393 142.009 98.5229 142.193C98.4066 142.377 98.2622 142.528 98.0898 142.647C97.9605 142.74 97.8139 142.811 97.6501 142.861C97.4864 142.906 97.3053 142.928 97.1071 142.925C96.9002 142.923 96.7105 142.895 96.5381 142.841C96.3657 142.782 96.2106 142.703 96.0727 142.602C95.9347 142.501 95.8119 142.385 95.7041 142.255C95.6007 142.12 95.5102 141.974 95.4326 141.818V138.76C95.5059 138.606 95.5942 138.464 95.6977 138.336C95.8054 138.204 95.9283 138.089 96.0662 137.992C96.1998 137.899 96.3528 137.827 96.5252 137.778C96.6976 137.724 96.8873 137.698 97.0941 137.701C97.2838 137.703 97.4562 137.727 97.6113 137.772C97.7665 137.817 97.9066 137.879 98.0316 137.959C98.2126 138.069 98.3656 138.219 98.4906 138.41C98.6156 138.602 98.7169 138.812 98.7945 139.041C98.8505 139.227 98.8914 139.426 98.9173 139.638C98.9475 139.845 98.9625 140.059 98.9625 140.278Z" fill="white" fill-opacity="0.9"/>
<path d="M106.831 142.078C106.831 142.19 106.809 142.295 106.766 142.394C106.723 142.493 106.66 142.582 106.578 142.663C106.445 142.795 106.259 142.898 106.022 142.973C105.785 143.043 105.507 143.076 105.188 143.072C104.986 143.07 104.781 143.046 104.574 143C104.367 142.954 104.18 142.879 104.012 142.773C103.839 142.668 103.695 142.53 103.579 142.36C103.467 142.191 103.402 141.983 103.385 141.737L102.189 141.722C102.189 142.02 102.255 142.307 102.389 142.585C102.527 142.862 102.725 143.106 102.984 143.316C103.238 143.531 103.551 143.705 103.921 143.839C104.292 143.968 104.714 144.036 105.188 144.042C105.602 144.047 105.984 144.003 106.333 143.908C106.682 143.813 106.981 143.677 107.231 143.499C107.481 143.321 107.675 143.106 107.813 142.853C107.955 142.601 108.027 142.319 108.027 142.009C108.027 141.72 107.964 141.465 107.839 141.244C107.718 141.022 107.542 140.826 107.309 140.655C107.076 140.488 106.79 140.345 106.449 140.224C106.109 140.099 105.723 139.989 105.292 139.893C104.964 139.824 104.693 139.754 104.477 139.682C104.266 139.61 104.098 139.531 103.973 139.443C103.844 139.355 103.753 139.257 103.701 139.148C103.65 139.04 103.624 138.917 103.624 138.779C103.624 138.645 103.656 138.516 103.721 138.392C103.786 138.268 103.882 138.159 104.012 138.066C104.137 137.973 104.294 137.899 104.484 137.846C104.678 137.792 104.902 137.767 105.156 137.77C105.402 137.773 105.622 137.811 105.816 137.882C106.014 137.953 106.182 138.046 106.32 138.16C106.458 138.274 106.565 138.404 106.643 138.552C106.721 138.695 106.759 138.842 106.759 138.993L107.955 139.008C107.955 138.702 107.889 138.417 107.755 138.152C107.626 137.883 107.44 137.648 107.199 137.447C106.958 137.246 106.665 137.087 106.32 136.97C105.975 136.854 105.587 136.793 105.156 136.787C104.755 136.782 104.387 136.832 104.051 136.935C103.719 137.039 103.432 137.182 103.191 137.364C102.949 137.546 102.762 137.762 102.628 138.01C102.495 138.254 102.428 138.518 102.428 138.803C102.428 139.092 102.492 139.347 102.622 139.568C102.751 139.785 102.934 139.975 103.171 140.138C103.404 140.304 103.684 140.448 104.012 140.568C104.344 140.689 104.71 140.793 105.111 140.88C105.438 140.948 105.712 141.025 105.932 141.11C106.152 141.19 106.328 141.279 106.462 141.375C106.596 141.472 106.69 141.578 106.747 141.695C106.803 141.808 106.831 141.936 106.831 142.078Z" fill="white" fill-opacity="0.9"/>
<path d="M109.798 140.408V140.551C109.798 141.055 109.871 141.524 110.018 141.957C110.164 142.389 110.376 142.767 110.651 143.09C110.923 143.412 111.255 143.666 111.647 143.852C112.044 144.038 112.49 144.134 112.985 144.14C113.477 144.147 113.918 144.062 114.311 143.886C114.703 143.71 115.037 143.464 115.313 143.148C115.584 142.833 115.793 142.46 115.94 142.031C116.086 141.602 116.16 141.135 116.16 140.631V140.489C116.16 139.984 116.086 139.516 115.94 139.083C115.793 138.646 115.584 138.266 115.313 137.943C115.037 137.621 114.701 137.367 114.304 137.181C113.912 136.99 113.468 136.892 112.972 136.886C112.481 136.88 112.039 136.967 111.647 137.147C111.255 137.323 110.923 137.569 110.651 137.885C110.376 138.2 110.164 138.575 110.018 139.008C109.871 139.437 109.798 139.904 109.798 140.408ZM110.994 140.566V140.424C110.994 140.083 111.035 139.758 111.117 139.449C111.199 139.135 111.324 138.861 111.492 138.626C111.656 138.391 111.86 138.206 112.106 138.071C112.352 137.932 112.641 137.864 112.972 137.869C113.304 137.873 113.593 137.948 113.839 138.093C114.089 138.234 114.298 138.424 114.466 138.663C114.63 138.902 114.752 139.18 114.834 139.496C114.921 139.807 114.964 140.133 114.964 140.474V140.616C114.964 140.961 114.923 141.29 114.841 141.603C114.759 141.913 114.636 142.185 114.472 142.42C114.304 142.655 114.095 142.84 113.845 142.975C113.6 143.109 113.313 143.175 112.985 143.171C112.653 143.166 112.363 143.094 112.113 142.953C111.863 142.812 111.656 142.622 111.492 142.382C111.324 142.143 111.199 141.868 111.117 141.557C111.035 141.241 110.994 140.911 110.994 140.566Z" fill="white" fill-opacity="0.9"/>
<path d="M118.274 134.147V135.188L120.653 135.218V143.073L118.274 143.043V144.078L124.131 144.152V143.117L121.849 143.088V134.192L118.274 134.147Z" fill="white" fill-opacity="0.9"/>
<path d="M130.648 144.234L131.734 144.247V137.252L130.532 137.236V142.254C130.467 142.404 130.385 142.543 130.286 142.671C130.191 142.795 130.079 142.901 129.95 142.99C129.795 143.1 129.611 143.186 129.4 143.248C129.189 143.306 128.95 143.333 128.683 143.33C128.454 143.327 128.252 143.294 128.075 143.231C127.902 143.169 127.756 143.061 127.635 142.909C127.515 142.761 127.424 142.562 127.364 142.311C127.303 142.06 127.273 141.745 127.273 141.366V137.195L126.077 137.18V141.338C126.077 141.859 126.133 142.308 126.245 142.685C126.362 143.057 126.525 143.365 126.737 143.609C126.948 143.853 127.202 144.035 127.499 144.155C127.797 144.271 128.129 144.331 128.495 144.336C128.952 144.342 129.355 144.252 129.704 144.067C130.053 143.877 130.344 143.611 130.577 143.269L130.648 144.234Z" fill="white" fill-opacity="0.9"/>
<path d="M136.822 135.622L135.62 135.606V137.3L133.784 137.277V138.202L135.62 138.225V142.027C135.62 142.458 135.676 142.827 135.788 143.135C135.904 143.438 136.061 143.685 136.26 143.878C136.458 144.074 136.691 144.219 136.958 144.313C137.229 144.403 137.52 144.449 137.831 144.453C138.016 144.456 138.201 144.449 138.387 144.435C138.576 144.42 138.755 144.396 138.923 144.364C139.091 144.336 139.247 144.301 139.389 144.26C139.531 144.214 139.652 144.162 139.751 144.103L139.583 143.253C139.509 143.27 139.415 143.29 139.298 143.315C139.186 143.335 139.065 143.355 138.936 143.375C138.803 143.394 138.667 143.412 138.529 143.428C138.391 143.439 138.257 143.444 138.128 143.442C137.951 143.44 137.783 143.416 137.624 143.371C137.469 143.326 137.331 143.249 137.21 143.14C137.089 143.035 136.995 142.893 136.926 142.716C136.857 142.538 136.822 142.314 136.822 142.042V138.24L139.486 138.274V137.349L136.822 137.316V135.622Z" fill="white" fill-opacity="0.9"/>
<path d="M145.033 144.544C145.714 144.553 146.285 144.424 146.746 144.158C147.212 143.888 147.561 143.578 147.793 143.228L147.063 142.649C146.843 142.931 146.567 143.156 146.235 143.324C145.903 143.493 145.524 143.574 145.097 143.569C144.774 143.565 144.479 143.5 144.212 143.376C143.944 143.252 143.716 143.084 143.526 142.87C143.341 142.669 143.195 142.439 143.087 142.179C142.983 141.919 142.917 141.619 142.886 141.278V141.233L147.884 141.295V140.759C147.884 140.272 147.821 139.818 147.696 139.399C147.576 138.979 147.39 138.612 147.14 138.299C146.89 137.99 146.576 137.747 146.197 137.569C145.822 137.388 145.382 137.294 144.878 137.288C144.477 137.283 144.085 137.36 143.701 137.519C143.322 137.678 142.983 137.908 142.686 138.211C142.384 138.517 142.143 138.893 141.962 139.339C141.781 139.781 141.69 140.284 141.69 140.849V141.12C141.69 141.608 141.772 142.059 141.936 142.475C142.1 142.891 142.328 143.251 142.621 143.557C142.914 143.862 143.266 144.102 143.675 144.275C144.089 144.448 144.541 144.538 145.033 144.544ZM144.878 138.27C145.184 138.274 145.447 138.334 145.666 138.449C145.89 138.563 146.076 138.712 146.222 138.895C146.369 139.078 146.483 139.295 146.565 139.546C146.647 139.793 146.688 140.024 146.688 140.239V140.298L142.925 140.25C142.973 139.928 143.054 139.644 143.171 139.4C143.292 139.151 143.438 138.942 143.61 138.772C143.783 138.606 143.977 138.481 144.192 138.398C144.408 138.31 144.636 138.267 144.878 138.27Z" fill="white" fill-opacity="0.9"/>
<path d="M76.3024 157.129V156.993C76.3024 156.627 76.2722 156.279 76.2119 155.951C76.1516 155.618 76.0632 155.315 75.9468 155.042C75.8348 154.8 75.7055 154.58 75.5589 154.385C75.4124 154.184 75.2464 154.014 75.0611 153.874C74.8542 153.725 74.6236 153.608 74.3693 153.523C74.1151 153.437 73.8371 153.393 73.5354 153.389C73.294 153.386 73.0699 153.407 72.863 153.452C72.6561 153.497 72.4665 153.563 72.2941 153.652C72.1561 153.723 72.0268 153.81 71.9062 153.912C71.7855 154.009 71.6756 154.12 71.5764 154.244V150.558L70.3804 150.543V160.475L71.4795 160.488L71.5376 159.694C71.6152 159.794 71.6971 159.886 71.7833 159.969C71.8695 160.052 71.96 160.128 72.0548 160.198C72.2531 160.339 72.4751 160.447 72.7207 160.523C72.9707 160.6 73.2466 160.64 73.5483 160.644C73.8112 160.647 74.0547 160.618 74.2788 160.556C74.5073 160.494 74.7163 160.406 74.906 160.292C75.1689 160.128 75.393 159.919 75.5783 159.667C75.768 159.411 75.921 159.122 76.0373 158.8C76.1235 158.556 76.1882 158.293 76.2313 158.014C76.2787 157.73 76.3024 157.435 76.3024 157.129ZM75.1064 156.978V157.114C75.1064 157.321 75.0934 157.523 75.0676 157.721C75.0417 157.919 75.0008 158.104 74.9447 158.276C74.8758 158.503 74.7831 158.709 74.6667 158.893C74.5504 159.077 74.406 159.228 74.2336 159.346C74.1043 159.44 73.9577 159.511 73.794 159.561C73.6302 159.606 73.4491 159.627 73.2509 159.625C73.044 159.622 72.8544 159.594 72.682 159.54C72.5096 159.482 72.3544 159.402 72.2165 159.302C72.0786 159.201 71.9557 159.085 71.848 158.954C71.7445 158.819 71.654 158.674 71.5764 158.518V155.459C71.6497 155.305 71.7381 155.164 71.8415 155.036C71.9493 154.904 72.0721 154.789 72.21 154.692C72.3436 154.598 72.4966 154.527 72.669 154.477C72.8414 154.424 73.0311 154.398 73.238 154.401C73.4276 154.403 73.6 154.427 73.7552 154.472C73.9103 154.517 74.0504 154.579 74.1754 154.658C74.3564 154.768 74.5094 154.919 74.6344 155.11C74.7594 155.301 74.8607 155.512 74.9383 155.741C74.9943 155.927 75.0353 156.126 75.0611 156.337C75.0913 156.545 75.1064 156.758 75.1064 156.978Z" fill="white" fill-opacity="0.9"/>
<path d="M81.4163 160.743C82.0973 160.751 82.6684 160.623 83.1295 160.357C83.595 160.087 83.9441 159.777 84.1769 159.426L83.4463 158.848C83.2265 159.13 82.9507 159.355 82.6188 159.523C82.2869 159.691 81.9076 159.773 81.4809 159.767C81.1577 159.763 80.8625 159.699 80.5952 159.575C80.328 159.451 80.0996 159.282 79.9099 159.069C79.7246 158.868 79.5781 158.638 79.4703 158.378C79.3669 158.118 79.3001 157.817 79.2699 157.477V157.431L84.2674 157.494V156.958C84.2674 156.471 84.2049 156.017 84.0799 155.597C83.9592 155.178 83.7739 154.811 83.5239 154.498C83.2739 154.189 82.9593 153.945 82.58 153.768C82.205 153.587 81.7654 153.493 81.2611 153.487C80.8603 153.481 80.4681 153.558 80.0845 153.717C79.7052 153.876 79.3669 154.107 79.0695 154.409C78.7678 154.716 78.5264 155.092 78.3454 155.538C78.1644 155.98 78.0738 156.483 78.0738 157.048V157.319C78.0738 157.806 78.1557 158.258 78.3195 158.674C78.4833 159.09 78.7117 159.45 79.0048 159.756C79.2979 160.061 79.6492 160.3 80.0586 160.474C80.4724 160.647 80.925 160.737 81.4163 160.743ZM81.2611 154.469C81.5671 154.473 81.8301 154.533 82.0499 154.647C82.274 154.762 82.4593 154.911 82.6059 155.094C82.7524 155.277 82.8666 155.494 82.9485 155.745C83.0304 155.992 83.0714 156.223 83.0714 156.438V156.496L79.3087 156.449C79.3561 156.126 79.438 155.843 79.5544 155.599C79.675 155.35 79.8216 155.141 79.994 154.971C80.1664 154.805 80.3603 154.68 80.5758 154.596C80.7913 154.509 81.0198 154.466 81.2611 154.469Z" fill="white" fill-opacity="0.9"/>
<path d="M86.0582 157.116V157.252C86.0582 157.752 86.1229 158.22 86.2522 158.657C86.3815 159.09 86.5668 159.467 86.8082 159.789C87.0452 160.111 87.3362 160.365 87.681 160.55C88.0258 160.736 88.4115 160.831 88.8382 160.836C89.0925 160.84 89.3296 160.815 89.5494 160.761C89.7692 160.712 89.9696 160.639 90.1506 160.543C90.267 160.479 90.3748 160.405 90.4739 160.32C90.5773 160.235 90.6743 160.142 90.7648 160.039V160.641C90.7648 160.943 90.7217 161.209 90.6355 161.441C90.5493 161.673 90.4265 161.865 90.267 162.018C90.1032 162.176 89.9071 162.294 89.6787 162.373C89.4502 162.452 89.1938 162.49 88.9093 162.486C88.7499 162.484 88.5904 162.465 88.4309 162.428C88.2714 162.396 88.112 162.342 87.9525 162.267C87.793 162.192 87.6357 162.091 87.4805 161.964C87.3254 161.841 87.1745 161.69 87.028 161.512L86.4073 162.222C86.5668 162.452 86.7565 162.646 86.9763 162.804C87.2004 162.962 87.4331 163.088 87.6745 163.182C87.9116 163.279 88.1465 163.349 88.3792 163.391C88.6119 163.437 88.8188 163.461 88.9998 163.463C89.4395 163.469 89.8403 163.409 90.2024 163.285C90.5644 163.16 90.8769 162.974 91.1398 162.727C91.3984 162.481 91.5988 162.179 91.741 161.823C91.8876 161.467 91.9609 161.059 91.9609 160.598V153.751L90.8747 153.737L90.8165 154.499C90.7346 154.395 90.6463 154.299 90.5515 154.211C90.461 154.124 90.364 154.047 90.2605 153.981C90.0709 153.854 89.8575 153.756 89.6205 153.689C89.3877 153.621 89.1313 153.586 88.8512 153.582C88.4158 153.577 88.0258 153.66 87.681 153.832C87.3362 154.005 87.0431 154.247 86.8017 154.558C86.5603 154.87 86.375 155.245 86.2457 155.683C86.1207 156.117 86.0582 156.594 86.0582 157.116ZM87.2543 157.267V157.131C87.2543 156.79 87.2888 156.468 87.3577 156.162C87.431 155.853 87.5452 155.581 87.7004 155.346C87.8512 155.115 88.0452 154.932 88.2822 154.797C88.5236 154.662 88.8124 154.597 89.1485 154.601C89.3468 154.603 89.5278 154.632 89.6916 154.685C89.8554 154.735 90.0041 154.804 90.1377 154.891C90.2713 154.984 90.3898 155.091 90.4933 155.213C90.5967 155.335 90.6872 155.469 90.7648 155.617V158.824C90.6872 158.974 90.5967 159.111 90.4933 159.234C90.3898 159.358 90.2735 159.464 90.1442 159.553C90.0106 159.642 89.8597 159.711 89.6916 159.761C89.5278 159.806 89.3425 159.828 89.1356 159.825C88.8037 159.821 88.5193 159.75 88.2822 159.614C88.0452 159.473 87.8512 159.285 87.7004 159.05C87.5452 158.816 87.431 158.545 87.3577 158.238C87.2888 157.931 87.2543 157.607 87.2543 157.267Z" fill="white" fill-opacity="0.9"/>
<path d="M94.4176 153.782V154.822L96.7967 154.852V159.773L94.4176 159.743V160.777L100.275 160.851V159.817L97.9928 159.788V153.827L94.4176 153.782ZM96.6416 151.973C96.6416 152.167 96.6998 152.33 96.8161 152.46C96.9368 152.591 97.1178 152.658 97.3592 152.661C97.5963 152.664 97.7751 152.602 97.8958 152.474C98.0165 152.346 98.0768 152.185 98.0768 151.991C98.0768 151.884 98.0596 151.784 98.0251 151.693C97.9906 151.602 97.9389 151.526 97.8699 151.465C97.8139 151.408 97.7428 151.364 97.6566 151.333C97.5704 151.297 97.4713 151.279 97.3592 151.278C97.2471 151.276 97.1459 151.292 97.0554 151.326C96.9692 151.355 96.898 151.397 96.842 151.452C96.773 151.516 96.7213 151.593 96.6868 151.683C96.6567 151.773 96.6416 151.87 96.6416 151.973Z" fill="white" fill-opacity="0.9"/>
<path d="M102.182 160.875L103.378 160.89V155.873C103.46 155.723 103.555 155.586 103.663 155.463C103.775 155.339 103.895 155.231 104.025 155.137C104.184 155.032 104.359 154.95 104.548 154.892C104.738 154.83 104.943 154.8 105.163 154.803C105.417 154.806 105.641 154.839 105.835 154.902C106.033 154.964 106.201 155.064 106.339 155.199C106.473 155.334 106.574 155.51 106.643 155.726C106.712 155.943 106.747 156.206 106.747 156.517V160.933L107.943 160.948V156.506C107.943 156.04 107.884 155.639 107.768 155.301C107.656 154.959 107.494 154.677 107.283 154.454C107.072 154.232 106.815 154.067 106.514 153.96C106.216 153.853 105.885 153.797 105.518 153.792C105.247 153.793 104.988 153.831 104.742 153.905C104.501 153.975 104.277 154.078 104.07 154.213C103.932 154.302 103.801 154.408 103.676 154.532C103.555 154.651 103.443 154.783 103.339 154.928L103.255 153.893L102.182 153.879V160.875Z" fill="white" fill-opacity="0.9"/>
<path d="M110.134 160.975L111.33 160.99V155.973C111.412 155.823 111.507 155.686 111.615 155.563C111.727 155.439 111.847 155.331 111.977 155.238C112.136 155.132 112.311 155.05 112.5 154.992C112.69 154.93 112.895 154.9 113.115 154.903C113.369 154.906 113.593 154.939 113.787 155.002C113.985 155.065 114.153 155.164 114.291 155.299C114.425 155.434 114.526 155.61 114.595 155.827C114.664 156.043 114.699 156.306 114.699 156.617V161.033L115.895 161.048V156.606C115.895 156.14 115.836 155.739 115.72 155.401C115.608 155.059 115.446 154.777 115.235 154.554C115.024 154.332 114.768 154.167 114.466 154.06C114.168 153.953 113.837 153.897 113.47 153.892C113.199 153.893 112.94 153.931 112.694 154.005C112.453 154.075 112.229 154.178 112.022 154.314C111.884 154.402 111.753 154.508 111.628 154.632C111.507 154.751 111.395 154.883 111.291 155.029L111.207 153.993L110.134 153.979V160.975Z" fill="white" fill-opacity="0.9"/>
<path d="M121.177 161.244C121.858 161.252 122.429 161.124 122.89 160.858C123.355 160.588 123.704 160.278 123.937 159.927L123.207 159.349C122.987 159.631 122.711 159.856 122.379 160.024C122.047 160.192 121.668 160.274 121.241 160.268C120.918 160.264 120.623 160.2 120.356 160.076C120.088 159.952 119.86 159.783 119.67 159.569C119.485 159.369 119.338 159.139 119.231 158.879C119.127 158.619 119.06 158.318 119.03 157.977V157.932L124.028 157.995V157.458C124.028 156.971 123.965 156.518 123.84 156.098C123.72 155.679 123.534 155.312 123.284 154.999C123.034 154.689 122.72 154.446 122.34 154.269C121.965 154.088 121.526 153.994 121.021 153.987C120.621 153.982 120.228 154.059 119.845 154.218C119.466 154.377 119.127 154.608 118.83 154.91C118.528 155.217 118.287 155.593 118.106 156.039C117.925 156.481 117.834 156.984 117.834 157.548V157.82C117.834 158.307 117.916 158.759 118.08 159.174C118.244 159.59 118.472 159.951 118.765 160.256C119.058 160.562 119.409 160.801 119.819 160.974C120.233 161.148 120.685 161.237 121.177 161.244ZM121.021 154.97C121.327 154.974 121.59 155.033 121.81 155.148C122.034 155.263 122.22 155.412 122.366 155.595C122.513 155.778 122.627 155.995 122.709 156.246C122.791 156.492 122.832 156.723 122.832 156.939V156.997L119.069 156.95C119.116 156.627 119.198 156.344 119.315 156.099C119.435 155.851 119.582 155.642 119.754 155.471C119.927 155.305 120.121 155.181 120.336 155.097C120.552 155.009 120.78 154.967 121.021 154.97Z" fill="white" fill-opacity="0.9"/>
<path d="M130.622 154.108C130.113 154.102 129.659 154.208 129.258 154.427C128.861 154.642 128.521 154.939 128.236 155.32L128.23 155.145L128.178 154.207L127.04 154.192V161.188L128.243 161.203V156.716C128.321 156.502 128.417 156.309 128.534 156.138C128.655 155.963 128.795 155.816 128.954 155.697C129.131 155.561 129.338 155.461 129.575 155.395C129.812 155.324 130.077 155.291 130.37 155.295C130.598 155.298 130.816 155.313 131.023 155.342C131.234 155.366 131.456 155.405 131.689 155.46L131.85 154.292C131.73 154.239 131.549 154.195 131.307 154.162C131.07 154.129 130.842 154.111 130.622 154.108Z" fill="white" fill-opacity="0.9"/>
<path d="M138.639 159.479C138.639 159.591 138.617 159.696 138.574 159.795C138.531 159.893 138.469 159.983 138.387 160.064C138.253 160.196 138.068 160.299 137.831 160.374C137.594 160.444 137.316 160.477 136.997 160.473C136.794 160.47 136.589 160.446 136.382 160.401C136.176 160.355 135.988 160.279 135.82 160.174C135.648 160.068 135.503 159.931 135.387 159.761C135.275 159.591 135.21 159.384 135.193 159.138L133.997 159.123C133.997 159.42 134.064 159.708 134.197 159.985C134.335 160.263 134.533 160.507 134.792 160.717C135.046 160.931 135.359 161.105 135.73 161.239C136.1 161.369 136.523 161.437 136.997 161.443C137.41 161.448 137.792 161.403 138.141 161.309C138.49 161.214 138.79 161.078 139.04 160.9C139.29 160.722 139.484 160.507 139.621 160.254C139.764 160.001 139.835 159.72 139.835 159.41C139.835 159.121 139.772 158.866 139.647 158.644C139.527 158.423 139.35 158.227 139.117 158.056C138.884 157.889 138.598 157.745 138.257 157.625C137.917 157.5 137.531 157.389 137.1 157.293C136.773 157.224 136.501 157.154 136.286 157.083C136.074 157.011 135.906 156.931 135.781 156.843C135.652 156.756 135.561 156.657 135.51 156.549C135.458 156.441 135.432 156.317 135.432 156.18C135.432 156.046 135.464 155.917 135.529 155.793C135.594 155.669 135.691 155.56 135.82 155.467C135.945 155.374 136.102 155.3 136.292 155.246C136.486 155.193 136.71 155.168 136.964 155.171C137.21 155.174 137.43 155.211 137.624 155.283C137.822 155.354 137.99 155.447 138.128 155.561C138.266 155.674 138.374 155.805 138.451 155.952C138.529 156.096 138.568 156.243 138.568 156.394L139.764 156.409C139.764 156.103 139.697 155.817 139.563 155.553C139.434 155.284 139.249 155.049 139.007 154.847C138.766 154.646 138.473 154.487 138.128 154.371C137.783 154.254 137.395 154.193 136.964 154.188C136.564 154.183 136.195 154.232 135.859 154.336C135.527 154.439 135.24 154.582 134.999 154.765C134.758 154.947 134.57 155.162 134.436 155.411C134.303 155.655 134.236 155.919 134.236 156.203C134.236 156.492 134.301 156.747 134.43 156.969C134.559 157.186 134.742 157.376 134.98 157.538C135.212 157.705 135.492 157.848 135.82 157.969C136.152 158.09 136.518 158.193 136.919 158.28C137.247 158.349 137.52 158.426 137.74 158.51C137.96 158.591 138.137 158.679 138.27 158.776C138.404 158.872 138.499 158.979 138.555 159.096C138.611 159.209 138.639 159.336 138.639 159.479Z" fill="white" fill-opacity="0.9"/>
<path d="M92.2751 61.7659L117.158 60.5113C117.421 60.4981 117.637 60.2802 117.637 60.0272C117.637 57.727 117.11 55.6431 116.088 53.889C115.059 52.1295 113.545 50.7509 111.661 49.8569C109.783 48.9682 107.588 48.5729 105.195 48.6935L104.238 48.7418C101.846 48.8624 99.6503 49.4791 97.7721 50.5572C95.888 51.6412 94.3746 53.1724 93.3458 55.0357C92.323 56.8929 91.7966 59.0298 91.7966 61.33C91.7966 61.583 92.0119 61.7792 92.2751 61.7659Z" fill="white" fill-opacity="0.9"/>
<path d="M130.318 73.1889L121.465 73.6352V67.8848C126.059 67.6532 129.779 63.8888 129.779 59.4724C129.779 59.2194 129.564 59.0233 129.301 59.0365L125.712 59.2175C125.449 59.2307 125.233 59.4486 125.233 59.7016C125.233 61.7028 123.547 63.4095 121.465 63.5144L87.9684 65.2033C85.8868 65.3083 84.2 63.7717 84.2 61.7705C84.2 61.5175 83.9847 61.3214 83.7215 61.3346L80.1326 61.5156C79.8694 61.5289 79.6541 61.7467 79.6541 61.9998C79.6541 66.4161 83.3746 69.8053 87.9684 69.5737V75.3241L79.1157 75.7705C78.8525 75.7838 78.6372 76.0016 78.6372 76.2546V79.4749C78.6372 79.7279 78.8525 79.9241 79.1157 79.9108L87.9684 79.4645V84.9849C87.9684 85.3587 87.9804 85.7319 88.0103 86.0926C83.9069 87.9844 81.0298 92.0455 81.0298 96.6056C81.0298 96.8586 81.2452 97.0548 81.5083 97.0415L84.858 96.8726C85.1212 96.8594 85.3365 96.6415 85.3365 96.3885C85.3365 93.8468 86.7661 91.5493 88.9015 90.2455C89.2604 91.2165 89.715 92.1366 90.2593 92.9948C91.7128 95.3079 93.7884 97.1987 96.2708 98.4709C97.9994 99.3556 99.9195 99.943 101.971 100.167C102.234 100.154 102.45 99.9362 102.45 99.6832V72.9839C102.45 72.7308 102.665 72.513 102.928 72.4997L106.517 72.3187C106.78 72.3055 106.996 72.5016 106.996 72.7546V99.4482C106.996 99.7013 107.211 99.8974 107.474 99.8842C109.526 99.4529 111.446 98.6718 113.175 97.6128C115.657 96.0903 117.733 93.9903 119.186 91.5305C119.73 90.6118 120.185 89.6458 120.544 88.6444C122.667 89.7391 124.097 91.8925 124.097 94.4342C124.097 94.6872 124.312 94.8834 124.575 94.8701L127.925 94.7012C128.188 94.6879 128.404 94.4701 128.404 94.217C128.404 89.6569 125.526 85.8859 121.423 84.4079C121.447 84.0387 121.465 83.6698 121.465 83.296V77.7756L130.318 77.3292C130.581 77.3159 130.796 77.0981 130.796 76.845V73.6248C130.796 73.3718 130.581 73.1756 130.318 73.1889Z" fill="white" fill-opacity="0.9"/>
<defs>
<linearGradient id="paint0_linear_91_3850" x1="228" y1="-0.26926" x2="39.2605" y2="351.955" gradientUnits="userSpaceOnUse">
<stop stop-color="#B388FF" stop-opacity="0.5"/>
<stop offset="1" stop-color="#673AB7"/>
<stop offset="1" stop-color="#5C00FF"/>
</linearGradient>
<linearGradient id="paint1_linear_91_3850" x1="-0.000181976" y1="163.869" x2="217.143" y2="163.887" gradientUnits="userSpaceOnUse">
<stop stop-color="#7044BF"/>
<stop offset="1" stop-color="#A97EF5"/>
</linearGradient>
<linearGradient id="paint2_linear_91_3850" x1="130.286" y1="-1.95229" x2="257.976" y2="273.208" gradientUnits="userSpaceOnUse">
<stop stop-color="#AC7DFF" stop-opacity="0"/>
<stop offset="1" stop-color="#562D9D" stop-opacity="0.65"/>
</linearGradient>
<linearGradient id="paint3_linear_91_3850" x1="228" y1="-0.26926" x2="39.2605" y2="351.955" gradientUnits="userSpaceOnUse">
<stop stop-color="#B388FF" stop-opacity="0.5"/>
<stop offset="1" stop-color="#673AB7"/>
<stop offset="1" stop-color="#5C00FF"/>
</linearGradient>
<linearGradient id="paint4_linear_91_3850" x1="-0.000181973" y1="163.765" x2="217.143" y2="163.783" gradientUnits="userSpaceOnUse">
<stop stop-color="#A97EF5"/>
<stop offset="1" stop-color="#7044BF"/>
</linearGradient>
<linearGradient id="paint5_linear_91_3850" x1="130.286" y1="-0.418279" x2="255.903" y2="272.976" gradientUnits="userSpaceOnUse">
<stop stop-color="#AC7DFF" stop-opacity="0"/>
<stop offset="1" stop-color="#562D9D" stop-opacity="0.65"/>
</linearGradient>
</defs>
</svg>
