<svg width="149" height="115" viewBox="0 0 149 115" fill="none" xmlns="http://www.w3.org/2000/svg">
<g clip-path="url(#clip0_37_1620)">
<mask id="mask0_37_1620" style="mask-type:luminance" maskUnits="userSpaceOnUse" x="0" y="0" width="149" height="115">
<path d="M149 0H0V115H149V0Z" fill="white"/>
</mask>
<g mask="url(#mask0_37_1620)">
<path d="M133.727 22.1774H124.287V15.1924C124.287 12.5924 122.161 10.4969 119.567 10.4969H89.8798C83.1115 10.4969 77.2014 14.1447 73.9831 19.5386C70.7647 14.1253 64.8351 10.4775 58.0668 10.4775H28.38C25.7663 10.4775 23.6597 12.5924 23.6597 15.173V22.158H15.2725C12.6588 22.158 10.5522 24.2729 10.5522 26.8534V99.8077C10.5522 102.408 12.6783 104.503 15.2725 104.503H133.747C136.361 104.503 138.467 102.388 138.467 99.8077V26.8534C138.467 24.2729 136.341 22.1774 133.727 22.1774ZM89.8798 15.5611H119.196V22.1774V86.8079C119.196 87.1183 119.079 87.4094 118.864 87.6228C118.65 87.8362 118.357 87.9526 118.045 87.9526H76.5187V28.8325C76.5187 21.5177 82.5068 15.5611 89.8798 15.5611ZM28.7506 15.5611H58.0668C65.4203 15.5611 71.4084 21.5177 71.4084 28.8325V87.972H29.9209C29.6088 87.972 29.3162 87.8556 29.1017 87.6228C28.8871 87.4094 28.7701 87.1183 28.7701 86.8079V22.1774V15.5611H28.7506ZM15.6431 27.2415H23.6597V86.7885V88.3213C23.6597 90.9213 25.7858 93.0168 28.38 93.0168H29.9209H65.4008L71.6034 99.4197H15.6236V27.2415H15.6431ZM133.357 99.4585H77.377L83.5796 93.0556H118.006H119.547C122.161 93.0556 124.267 90.9407 124.267 88.3601V86.8273V27.2415H133.337V99.4585H133.357Z" fill="#FDF6D3"/>
</g>
<mask id="mask1_37_1620" style="mask-type:luminance" maskUnits="userSpaceOnUse" x="0" y="0" width="149" height="115">
<path d="M149 0H0V115H149V0Z" fill="white"/>
</mask>
<g mask="url(#mask1_37_1620)">
<path d="M53.4443 40.4737H38.6594C37.7426 40.4737 36.9819 39.7364 36.9819 38.805V37.1364C36.9819 36.2245 37.7231 35.4678 38.6594 35.4678H53.4443C54.361 35.4678 55.1217 36.2051 55.1217 37.1364V38.805C55.1022 39.7364 54.361 40.4737 53.4443 40.4737Z" fill="#FFFAE0"/>
</g>
<mask id="mask2_37_1620" style="mask-type:luminance" maskUnits="userSpaceOnUse" x="0" y="0" width="149" height="115">
<path d="M149 0H0V115H149V0Z" fill="white"/>
</mask>
<g mask="url(#mask2_37_1620)">
<path d="M61.4804 53.1631H38.6594C37.7426 53.1631 36.9819 52.4258 36.9819 51.4945V49.8259C36.9819 48.9139 37.7231 48.1572 38.6594 48.1572H61.4804C62.3972 48.1572 63.1579 48.8945 63.1579 49.8259V51.4945C63.1579 52.4258 62.4167 53.1631 61.4804 53.1631Z" fill="#FFFAE0"/>
</g>
<mask id="mask3_37_1620" style="mask-type:luminance" maskUnits="userSpaceOnUse" x="0" y="0" width="149" height="115">
<path d="M149 0H0V115H149V0Z" fill="white"/>
</mask>
<g mask="url(#mask3_37_1620)">
<path d="M61.4804 65.8526H38.6594C37.7426 65.8526 36.9819 65.1153 36.9819 64.1839V62.5153C36.9819 61.6034 37.7231 60.8467 38.6594 60.8467H61.4804C62.3972 60.8467 63.1579 61.584 63.1579 62.5153V64.1839C63.1579 65.1153 62.4167 65.8526 61.4804 65.8526Z" fill="#FFFAE0"/>
</g>
<mask id="mask4_37_1620" style="mask-type:luminance" maskUnits="userSpaceOnUse" x="0" y="0" width="149" height="115">
<path d="M149 0H0V115H149V0Z" fill="white"/>
</mask>
<g mask="url(#mask4_37_1620)">
<path d="M101.934 40.4737H87.1491C86.2324 40.4737 85.4717 39.7364 85.4717 38.805V37.1364C85.4717 36.2245 86.2129 35.4678 87.1491 35.4678H101.934C102.851 35.4678 103.611 36.2051 103.611 37.1364V38.805C103.592 39.7364 102.851 40.4737 101.934 40.4737Z" fill="#FFFAE0"/>
</g>
<mask id="mask5_37_1620" style="mask-type:luminance" maskUnits="userSpaceOnUse" x="0" y="0" width="149" height="115">
<path d="M149 0H0V115H149V0Z" fill="white"/>
</mask>
<g mask="url(#mask5_37_1620)">
<path d="M109.97 53.1631H87.1491C86.2324 53.1631 85.4717 52.4258 85.4717 51.4945V49.8259C85.4717 48.9139 86.2129 48.1572 87.1491 48.1572H109.97C110.887 48.1572 111.648 48.8945 111.648 49.8259V51.4945C111.648 52.4258 110.906 53.1631 109.97 53.1631Z" fill="#FFFAE0"/>
</g>
<mask id="mask6_37_1620" style="mask-type:luminance" maskUnits="userSpaceOnUse" x="0" y="0" width="149" height="115">
<path d="M149 0H0V115H149V0Z" fill="white"/>
</mask>
<g mask="url(#mask6_37_1620)">
<path d="M109.97 65.8526H87.1491C86.2324 65.8526 85.4717 65.1153 85.4717 64.1839V62.5153C85.4717 61.6034 86.2129 60.8467 87.1491 60.8467H109.97C110.887 60.8467 111.648 61.584 111.648 62.5153V64.1839C111.648 65.1153 110.906 65.8526 109.97 65.8526Z" fill="#FFFAE0"/>
</g>
</g>
<defs>
<clipPath id="clip0_37_1620">
<rect width="149" height="115" fill="white"/>
</clipPath>
</defs>
</svg>
