<svg width="258" height="261" viewBox="0 0 258 261" fill="none" xmlns="http://www.w3.org/2000/svg">
<ellipse cx="129" cy="130.5" rx="129" ry="130.5" fill="#C83C33"/>
<path d="M183.88 130C183.88 149.361 179.979 167.172 173.449 181.658C173.836 178.967 174.092 176.213 174.22 173.41C175.175 152.47 169.039 128.162 155.834 105.29C149.858 94.9394 142.903 85.6951 135.354 77.782C141.999 71.7821 148.955 66.9089 155.923 63.2988C158.153 62.1433 160.374 61.1216 162.577 60.2348C164.169 62.233 165.7 64.3782 167.162 66.6642C177.4 82.6667 183.88 105.047 183.88 130ZM144.658 213.934C140.291 216.455 135.44 217.96 130.252 218.472C129.795 218.491 129.338 218.5 128.88 218.5C128.453 218.5 128.028 218.492 127.603 218.476C122.4 217.967 117.536 216.461 113.158 213.934C100.714 206.749 93.455 192.037 92.587 173C91.7218 154.022 97.3004 131.4 109.777 109.79C115.404 100.043 121.912 91.4086 128.908 84.0638C135.905 91.4086 142.412 100.043 148.04 109.79C160.516 131.4 166.095 154.022 165.23 173C164.362 192.037 157.103 206.749 144.658 213.934ZM83.5964 173.41C83.7271 176.277 83.9926 179.094 84.3949 181.844C77.8139 167.325 73.8798 149.443 73.8798 130C73.8798 105.047 80.3594 82.6667 90.5976 66.6642C92.0644 64.3716 93.5999 62.2205 95.1965 60.2174C97.414 61.1082 99.6491 62.1358 101.894 63.2988C108.861 66.9089 115.818 71.7821 122.463 77.782C114.914 85.6951 107.959 94.9394 101.983 105.29C88.778 128.162 82.6417 152.47 83.5964 173.41ZM83.0164 198.186C84.2581 200.127 85.5587 201.996 86.9148 203.786C74.2815 194.526 62.2757 181.243 52.7769 164.79C40.3004 143.18 34.7218 120.559 35.587 101.581C36.455 82.5436 43.7136 67.8321 56.1583 60.6471C64.6647 55.7359 75.005 54.6815 86.1017 57.3058C85.0369 58.7602 84.0079 60.2642 83.0164 61.8139C71.7197 79.4708 64.8798 103.591 64.8798 130C64.8798 156.409 71.7197 180.529 83.0164 198.186ZM106.034 55.3077C104.59 54.5594 103.138 53.8567 101.681 53.2014C109.882 45.6204 119.216 41.5 128.88 41.5C138.551 41.5 147.892 45.6266 156.097 53.2186C154.653 53.869 153.214 54.566 151.782 55.3077C143.943 59.3696 136.215 64.8198 128.908 71.4774C121.602 64.8198 113.874 59.3696 106.034 55.3077ZM174.743 61.8139C173.754 60.2683 172.728 58.7681 171.666 57.3173C182.781 54.6784 193.14 55.7288 201.658 60.6471C214.103 67.8321 221.362 82.5436 222.23 101.581C223.095 120.559 217.516 143.18 205.04 164.79C195.509 181.298 183.454 194.616 170.774 203.88C172.155 202.061 173.48 200.161 174.743 198.186C186.04 180.529 192.88 156.409 192.88 130C192.88 103.591 186.04 79.4708 174.743 61.8139Z" stroke="white" stroke-width="9"/>
</svg>
