<svg width="197" height="191" viewBox="0 0 197 191" fill="none" xmlns="http://www.w3.org/2000/svg">
<path d="M30.276 118C30.148 118 30.084 117.936 30.084 117.808V117.736C30.084 117.648 30.164 117.56 30.324 117.472C30.492 117.384 30.596 117.284 30.636 117.172L33.204 110.092C33.348 109.692 33.524 109.492 33.732 109.492H34.308C34.508 109.492 34.676 109.692 34.812 110.092L37.38 117.196C37.42 117.3 37.52 117.396 37.68 117.484C37.848 117.572 37.932 117.656 37.932 117.736V117.808C37.932 117.936 37.864 118 37.728 118H35.268C35.22 118 35.172 117.984 35.124 117.952C35.084 117.912 35.064 117.864 35.064 117.808V117.736C35.064 117.664 35.14 117.58 35.292 117.484C35.444 117.38 35.5 117.276 35.46 117.172L35.004 115.876C34.996 115.828 34.964 115.804 34.908 115.804H32.16C32.112 115.804 32.08 115.824 32.064 115.864L31.644 117.172C31.604 117.3 31.66 117.408 31.812 117.496C31.964 117.584 32.04 117.664 32.04 117.736V117.808C32.04 117.864 32.02 117.912 31.98 117.952C31.94 117.984 31.896 118 31.848 118H30.276ZM32.316 115.036C32.3 115.092 32.32 115.12 32.376 115.12H34.68C34.736 115.12 34.756 115.092 34.74 115.036L33.54 111.592C33.524 111.528 33.508 111.528 33.492 111.592L32.316 115.036ZM40.9769 118.084C40.1449 118.084 39.4249 117.796 38.8169 117.22C38.2169 116.644 37.9169 115.908 37.9169 115.012C37.9169 114.1 38.1849 113.356 38.7209 112.78C39.2569 112.204 39.9329 111.916 40.7489 111.916C40.9729 111.916 41.2169 111.948 41.4809 112.012C41.7449 112.076 41.9369 112.144 42.0569 112.216C42.0809 112.232 42.0929 112.228 42.0929 112.204V112.156C42.0929 112.06 42.1369 112.012 42.2249 112.012H42.5489C42.6369 112.012 42.6929 112.052 42.7169 112.132L43.0529 113.248C43.0769 113.312 43.0569 113.364 42.9929 113.404L42.5849 113.584C42.4889 113.632 42.4209 113.62 42.3809 113.548C41.8849 112.82 41.3969 112.456 40.9169 112.456C40.5249 112.456 40.1969 112.648 39.9329 113.032C39.6769 113.408 39.5489 113.884 39.5489 114.46C39.5489 115.124 39.7209 115.744 40.0649 116.32C40.4089 116.896 40.8849 117.184 41.4929 117.184C41.9169 117.184 42.2969 117.016 42.6329 116.68C42.7129 116.6 42.7969 116.56 42.8849 116.56C42.9569 116.56 43.0209 116.592 43.0769 116.656C43.1329 116.72 43.1609 116.8 43.1609 116.896C43.1609 117.032 43.0649 117.196 42.8729 117.388C42.4089 117.852 41.7769 118.084 40.9769 118.084ZM43.6488 116.332C43.6488 115.74 43.8688 115.26 44.3088 114.892C44.7488 114.516 45.3088 114.328 45.9888 114.328C46.2768 114.328 46.5448 114.376 46.7928 114.472C47.0408 114.568 47.2208 114.668 47.3328 114.772C47.3728 114.812 47.3928 114.808 47.3928 114.76V114.4C47.3928 113.84 47.3008 113.376 47.1168 113.008C46.9408 112.632 46.6728 112.444 46.3128 112.444C46.1208 112.444 45.9528 112.524 45.8088 112.684C45.6648 112.844 45.5928 113.064 45.5928 113.344C45.5928 113.528 45.5368 113.684 45.4248 113.812C45.3208 113.932 45.1528 113.992 44.9208 113.992C44.6888 113.992 44.5008 113.932 44.3568 113.812C44.2128 113.692 44.1408 113.516 44.1408 113.284C44.1408 112.924 44.3368 112.604 44.7288 112.324C45.1288 112.036 45.6648 111.892 46.3368 111.892C47.1528 111.892 47.7928 112.124 48.2568 112.588C48.7208 113.044 48.9528 113.64 48.9528 114.376V116.992C48.9528 117.12 49.0568 117.24 49.2648 117.352C49.3368 117.384 49.3728 117.436 49.3728 117.508V117.628C49.3728 117.756 49.1568 117.868 48.7248 117.964C48.2928 118.052 47.9688 118.096 47.7528 118.096C47.6488 118.096 47.5608 118.056 47.4888 117.976C47.4248 117.896 47.3928 117.788 47.3928 117.652V117.244C47.3928 117.172 47.3768 117.168 47.3448 117.232C47.2008 117.472 46.9808 117.672 46.6848 117.832C46.3888 117.984 46.0888 118.06 45.7848 118.06C45.0808 118.06 44.5488 117.904 44.1888 117.592C43.8288 117.272 43.6488 116.852 43.6488 116.332ZM46.4088 114.904C46.1208 114.904 45.8568 115.032 45.6168 115.288C45.3848 115.536 45.2688 115.856 45.2688 116.248C45.2688 116.56 45.3608 116.816 45.5448 117.016C45.7288 117.216 45.9568 117.316 46.2288 117.316C46.5488 117.316 46.8208 117.188 47.0448 116.932C47.2768 116.676 47.3928 116.388 47.3928 116.068V115.984C47.3928 115.696 47.2968 115.444 47.1048 115.228C46.9208 115.012 46.6888 114.904 46.4088 114.904ZM52.3523 118.06C51.6643 118.06 51.0883 117.824 50.6243 117.352C50.1683 116.88 49.9403 116.216 49.9403 115.36C49.9403 114.424 50.2243 113.644 50.7923 113.02C51.3683 112.388 52.0523 112.072 52.8443 112.072C53.2763 112.072 53.6003 112.148 53.8163 112.3C53.8483 112.324 53.8643 112.32 53.8643 112.288V110.344C53.8643 110.224 53.7523 110.1 53.5283 109.972C53.4723 109.948 53.4443 109.904 53.4443 109.84V109.72C53.4443 109.608 53.6843 109.456 54.1643 109.264C54.6443 109.072 54.9643 108.976 55.1243 108.976C55.2043 108.976 55.2723 109.016 55.3283 109.096C55.3923 109.176 55.4243 109.284 55.4243 109.42V116.968C55.4243 117.104 55.5323 117.232 55.7483 117.352C55.8123 117.384 55.8443 117.432 55.8443 117.496V117.616C55.8443 117.744 55.6243 117.856 55.1843 117.952C54.7523 118.04 54.4323 118.084 54.2243 118.084C54.1203 118.084 54.0323 118.044 53.9603 117.964C53.8963 117.884 53.8643 117.776 53.8643 117.64V117.316C53.8643 117.284 53.8523 117.28 53.8283 117.304C53.4123 117.808 52.9203 118.06 52.3523 118.06ZM51.6083 115.36C51.6083 116.032 51.7163 116.524 51.9323 116.836C52.1483 117.148 52.4083 117.304 52.7123 117.304C53.0323 117.304 53.3043 117.092 53.5283 116.668C53.7523 116.244 53.8643 115.792 53.8643 115.312V114.916C53.8643 114.172 53.7683 113.624 53.5763 113.272C53.3923 112.92 53.1643 112.744 52.8923 112.744C52.5243 112.744 52.2163 112.988 51.9683 113.476C51.7283 113.964 51.6083 114.592 51.6083 115.36ZM56.4105 115.012C56.4105 114.076 56.6945 113.328 57.2625 112.768C57.8305 112.208 58.4945 111.928 59.2545 111.928C59.9985 111.928 60.5945 112.132 61.0425 112.54C61.4905 112.94 61.7145 113.404 61.7145 113.932C61.7145 114.236 61.6145 114.48 61.4145 114.664C61.2145 114.848 61.0185 114.94 60.8265 114.94H58.0425C58.0025 114.94 57.9825 114.964 57.9825 115.012C58.0385 115.708 58.2665 116.248 58.6665 116.632C59.0745 117.008 59.4985 117.196 59.9385 117.196C60.4025 117.196 60.8305 117.024 61.2225 116.68C61.2945 116.608 61.3625 116.572 61.4265 116.572C61.5145 116.572 61.5905 116.6 61.6545 116.656C61.7185 116.712 61.7505 116.788 61.7505 116.884C61.7505 117.044 61.6625 117.208 61.4865 117.376C60.9745 117.848 60.3265 118.084 59.5425 118.084C58.6705 118.084 57.9305 117.808 57.3225 117.256C56.7145 116.704 56.4105 115.956 56.4105 115.012ZM57.9705 114.292C57.9705 114.332 57.9905 114.352 58.0305 114.352H59.9625C60.2265 114.352 60.3585 114.172 60.3585 113.812C60.3585 113.5 60.2665 113.204 60.0825 112.924C59.8985 112.644 59.6265 112.504 59.2665 112.504C58.9065 112.504 58.6105 112.676 58.3785 113.02C58.1545 113.356 58.0185 113.78 57.9705 114.292ZM62.5913 112.984C62.5273 112.952 62.4953 112.904 62.4953 112.84V112.732C62.4953 112.684 62.5553 112.612 62.6753 112.516C62.9153 112.356 63.1633 112.224 63.4193 112.12C63.6753 112.008 63.8593 111.952 63.9713 111.952C64.1553 111.952 64.2673 112.1 64.3073 112.396L64.3673 112.972C64.3673 113.02 64.3753 113.02 64.3913 112.972C64.4953 112.668 64.7033 112.412 65.0153 112.204C65.3273 111.988 65.6673 111.88 66.0353 111.88C66.5073 111.88 66.9153 112.004 67.2593 112.252C67.6113 112.5 67.8513 112.844 67.9793 113.284C67.9953 113.332 68.0033 113.332 68.0033 113.284C68.0833 112.948 68.2913 112.632 68.6273 112.336C68.9633 112.032 69.3313 111.88 69.7313 111.88C70.3953 111.88 70.9153 112.108 71.2913 112.564C71.6753 113.012 71.8673 113.64 71.8673 114.448V117.16C71.8673 117.272 71.9913 117.404 72.2393 117.556C72.3513 117.612 72.4073 117.684 72.4073 117.772V117.82C72.4073 117.868 72.3873 117.912 72.3473 117.952C72.3073 117.984 72.2713 118 72.2393 118H70.1873C70.1393 118 70.0953 117.984 70.0553 117.952C70.0233 117.912 70.0073 117.868 70.0073 117.82V117.772C70.0073 117.684 70.0553 117.616 70.1513 117.568C70.2553 117.496 70.3073 117.36 70.3073 117.16V114.448C70.3073 113.864 70.2153 113.44 70.0313 113.176C69.8473 112.904 69.6273 112.768 69.3713 112.768C69.1393 112.768 68.9393 112.852 68.7713 113.02C68.6033 113.188 68.4793 113.416 68.3993 113.704C68.3193 113.984 68.2593 114.264 68.2193 114.544C68.1873 114.824 68.1713 115.116 68.1713 115.42V117.16C68.1713 117.288 68.2953 117.42 68.5433 117.556C68.6553 117.612 68.7113 117.684 68.7113 117.772V117.82C68.7113 117.868 68.6913 117.912 68.6513 117.952C68.6113 117.984 68.5713 118 68.5313 118H66.4913C66.4433 118 66.3993 117.984 66.3593 117.952C66.3273 117.912 66.3113 117.868 66.3113 117.82V117.772C66.3113 117.676 66.3593 117.608 66.4553 117.568C66.5593 117.496 66.6113 117.36 66.6113 117.16V114.448C66.6113 113.864 66.5193 113.44 66.3353 113.176C66.1513 112.904 65.9313 112.768 65.6753 112.768C65.4433 112.768 65.2433 112.856 65.0753 113.032C64.9073 113.2 64.7833 113.428 64.7033 113.716C64.6233 113.996 64.5633 114.28 64.5233 114.568C64.4913 114.848 64.4753 115.14 64.4753 115.444V117.16C64.4753 117.32 64.5593 117.456 64.7273 117.568C64.8393 117.616 64.8953 117.684 64.8953 117.772V117.82C64.8953 117.868 64.8753 117.912 64.8353 117.952C64.7953 117.984 64.7553 118 64.7153 118H62.6633C62.6233 118 62.5833 117.984 62.5433 117.952C62.5113 117.912 62.4953 117.868 62.4953 117.82V117.772C62.4953 117.684 62.5433 117.616 62.6393 117.568C62.8233 117.448 62.9153 117.312 62.9153 117.16V113.356C62.9153 113.228 62.8073 113.104 62.5913 112.984ZM73.1968 112.972C73.1328 112.94 73.1008 112.888 73.1008 112.816V112.696C73.1008 112.576 73.3288 112.42 73.7848 112.228C74.2488 112.028 74.5608 111.928 74.7208 111.928C74.8008 111.928 74.8688 111.968 74.9248 112.048C74.9888 112.128 75.0208 112.236 75.0208 112.372V117.16C75.0208 117.32 75.1048 117.456 75.2728 117.568C75.3848 117.616 75.4408 117.684 75.4408 117.772V117.82C75.4408 117.868 75.4208 117.912 75.3808 117.952C75.3408 117.984 75.3008 118 75.2608 118H73.2688C73.2288 118 73.1888 117.984 73.1488 117.952C73.1168 117.912 73.1008 117.868 73.1008 117.82V117.772C73.1008 117.684 73.1488 117.616 73.2448 117.568C73.4288 117.448 73.5208 117.312 73.5208 117.16V113.344C73.5208 113.216 73.4128 113.092 73.1968 112.972ZM74.8408 110.932C74.6648 111.108 74.4488 111.196 74.1928 111.196C73.9368 111.196 73.7168 111.108 73.5328 110.932C73.3568 110.748 73.2688 110.528 73.2688 110.272C73.2688 110.016 73.3568 109.8 73.5328 109.624C73.7168 109.44 73.9368 109.348 74.1928 109.348C74.4488 109.348 74.6648 109.44 74.8408 109.624C75.0248 109.8 75.1168 110.016 75.1168 110.272C75.1168 110.528 75.0248 110.748 74.8408 110.932ZM76.1214 116.332C76.1214 115.74 76.3414 115.26 76.7814 114.892C77.2214 114.516 77.7814 114.328 78.4614 114.328C78.7494 114.328 79.0174 114.376 79.2654 114.472C79.5134 114.568 79.6934 114.668 79.8054 114.772C79.8454 114.812 79.8654 114.808 79.8654 114.76V114.4C79.8654 113.84 79.7734 113.376 79.5894 113.008C79.4134 112.632 79.1454 112.444 78.7854 112.444C78.5934 112.444 78.4254 112.524 78.2814 112.684C78.1374 112.844 78.0654 113.064 78.0654 113.344C78.0654 113.528 78.0094 113.684 77.8974 113.812C77.7934 113.932 77.6254 113.992 77.3934 113.992C77.1614 113.992 76.9734 113.932 76.8294 113.812C76.6854 113.692 76.6134 113.516 76.6134 113.284C76.6134 112.924 76.8094 112.604 77.2014 112.324C77.6014 112.036 78.1374 111.892 78.8094 111.892C79.6254 111.892 80.2654 112.124 80.7294 112.588C81.1934 113.044 81.4254 113.64 81.4254 114.376V116.992C81.4254 117.12 81.5294 117.24 81.7374 117.352C81.8094 117.384 81.8454 117.436 81.8454 117.508V117.628C81.8454 117.756 81.6294 117.868 81.1974 117.964C80.7654 118.052 80.4414 118.096 80.2254 118.096C80.1214 118.096 80.0334 118.056 79.9614 117.976C79.8974 117.896 79.8654 117.788 79.8654 117.652V117.244C79.8654 117.172 79.8494 117.168 79.8174 117.232C79.6734 117.472 79.4534 117.672 79.1574 117.832C78.8614 117.984 78.5614 118.06 78.2574 118.06C77.5534 118.06 77.0214 117.904 76.6614 117.592C76.3014 117.272 76.1214 116.852 76.1214 116.332ZM78.8814 114.904C78.5934 114.904 78.3294 115.032 78.0894 115.288C77.8574 115.536 77.7414 115.856 77.7414 116.248C77.7414 116.56 77.8334 116.816 78.0174 117.016C78.2014 117.216 78.4294 117.316 78.7014 117.316C79.0214 117.316 79.2934 117.188 79.5174 116.932C79.7494 116.676 79.8654 116.388 79.8654 116.068V115.984C79.8654 115.696 79.7694 115.444 79.5774 115.228C79.3934 115.012 79.1614 114.904 78.8814 114.904ZM88.2866 118.096C87.4386 118.096 86.7186 117.808 86.1266 117.232C85.5346 116.656 85.2386 115.916 85.2386 115.012C85.2386 114.108 85.5346 113.368 86.1266 112.792C86.7186 112.208 87.4386 111.916 88.2866 111.916C89.1266 111.916 89.8426 112.208 90.4346 112.792C91.0346 113.368 91.3346 114.108 91.3346 115.012C91.3346 115.916 91.0346 116.656 90.4346 117.232C89.8426 117.808 89.1266 118.096 88.2866 118.096ZM87.9986 112.516C87.5906 112.516 87.2826 112.76 87.0746 113.248C86.8666 113.728 86.7946 114.316 86.8586 115.012C86.9306 115.708 87.1186 116.304 87.4226 116.8C87.7346 117.288 88.0986 117.532 88.5146 117.532C88.9226 117.532 89.2386 117.284 89.4626 116.788C89.6866 116.284 89.7586 115.692 89.6786 115.012C89.6066 114.316 89.4146 113.728 89.1026 113.248C88.7906 112.76 88.4226 112.516 87.9986 112.516ZM96.2358 117.556C95.7798 117.908 95.2118 118.084 94.5318 118.084C93.8518 118.084 93.2638 117.956 92.7678 117.7C92.2718 117.444 92.0238 117.096 92.0238 116.656C92.0238 116.44 92.0838 116.264 92.2038 116.128C92.3238 115.992 92.4878 115.924 92.6958 115.924C92.7358 115.924 92.7718 115.928 92.8038 115.936C92.8438 115.936 92.8758 115.948 92.8998 115.972C92.9318 115.988 92.9558 116 92.9718 116.008C92.9958 116.016 93.0198 116.04 93.0438 116.08C93.0678 116.112 93.0838 116.136 93.0918 116.152C93.1078 116.168 93.1238 116.2 93.1398 116.248C93.1638 116.296 93.1798 116.332 93.1878 116.356C93.1958 116.372 93.2078 116.412 93.2238 116.476C93.2478 116.532 93.2638 116.572 93.2718 116.596C93.4798 117.204 93.8998 117.508 94.5318 117.508C94.8438 117.508 95.1118 117.42 95.3358 117.244C95.5598 117.06 95.6718 116.84 95.6718 116.584C95.6718 116.144 95.1398 115.772 94.0758 115.468C92.8678 115.132 92.2638 114.52 92.2638 113.632C92.2638 113.128 92.4558 112.716 92.8398 112.396C93.2318 112.076 93.7158 111.916 94.2918 111.916C94.4998 111.916 94.7398 111.948 95.0118 112.012C95.2838 112.076 95.4918 112.144 95.6358 112.216C95.6678 112.232 95.6838 112.224 95.6838 112.192C95.6838 112.072 95.7278 112.012 95.8158 112.012H96.1398C96.2278 112.012 96.2838 112.052 96.3078 112.132L96.6198 113.2C96.6518 113.304 96.6278 113.376 96.5478 113.416L96.1878 113.584C96.0758 113.648 95.9838 113.632 95.9118 113.536C95.3438 112.832 94.8038 112.48 94.2918 112.48C94.0278 112.48 93.8118 112.552 93.6438 112.696C93.4838 112.832 93.4038 113.02 93.4038 113.26C93.4038 113.388 93.4398 113.5 93.5118 113.596C93.5838 113.692 93.6878 113.776 93.8238 113.848C93.9678 113.912 94.0998 113.964 94.2198 114.004C94.3398 114.044 94.4878 114.084 94.6638 114.124C94.8398 114.164 94.9598 114.196 95.0238 114.22C95.6798 114.428 96.1598 114.692 96.4638 115.012C96.7678 115.324 96.9198 115.748 96.9198 116.284C96.9198 116.772 96.6918 117.196 96.2358 117.556Z" fill="white"/>
<path d="M42.8691 20.7901C68.0591 20.7901 97.7591 42.9301 116.789 75.8901C128.979 97.0001 135.299 119.73 134.599 139.89C133.929 159.05 126.949 173.42 114.949 180.35C109.628 183.36 103.602 184.899 97.4891 184.81C72.3091 184.81 42.6092 162.67 23.5792 129.72C11.3892 108.6 5.05916 85.8801 5.76916 65.7201C6.43916 46.5601 13.4191 32.1901 25.4191 25.2701C30.7344 22.2539 36.7583 20.7107 42.8691 20.8001M42.8691 15.0801C35.755 14.9904 28.7451 16.7954 22.5591 20.3101C-5.91086 36.7401 -7.67085 87.0001 18.6291 132.57C39.2491 168.29 71.0191 190.57 97.4891 190.57C104.606 190.66 111.62 188.855 117.809 185.34C146.279 168.9 148.039 118.64 121.739 73.0901C101.109 37.3601 69.3491 15.0901 42.8691 15.0901" fill="#C83C33"/>
<path d="M153.539 15.07V20.79C159.65 20.7007 165.674 22.2438 170.989 25.26C182.989 32.18 189.989 46.55 190.639 65.71C191.349 85.86 185.019 108.58 172.829 129.71C153.829 162.71 124.099 184.8 98.9192 184.8C92.8065 184.889 86.7802 183.35 81.4592 180.34C69.4592 173.41 62.4592 159.04 61.8092 139.88C61.1092 119.74 67.4292 97.01 79.6292 75.88C98.6292 42.88 128.349 20.79 153.539 20.78V15.07ZM153.539 15.07C127.059 15.07 95.2992 37.3 74.6692 73.07C48.3692 118.57 50.1292 168.84 78.6292 185.28C84.8186 188.795 91.8318 190.6 98.9492 190.51C125.419 190.51 157.189 168.28 177.809 132.51C204.119 86.95 202.359 36.69 173.879 20.25C167.693 16.7354 160.683 14.9303 153.569 15.02" fill="#C83C33"/>
<path d="M98.2092 5.72998C112.059 5.72998 125.289 14.73 135.449 30.94C146.129 48.03 152.019 70.88 152.019 95.26C152.019 119.64 146.129 142.49 135.449 159.57C125.289 175.83 112.059 184.78 98.2092 184.78C84.3592 184.78 71.1192 175.78 60.9592 159.57C50.2792 142.48 44.3892 119.64 44.3892 95.25C44.3892 70.86 50.2792 48.02 60.9592 30.93C71.1192 14.67 84.3492 5.72003 98.2092 5.72003M98.2092 0C65.3292 0 38.6692 42.65 38.6692 95.25C38.6692 147.85 65.3292 190.5 98.2092 190.5C131.089 190.5 157.739 147.86 157.739 95.25C157.739 42.64 131.079 0 98.2092 0Z" fill="#C83C33"/>
</svg>
