<svg width="242" height="45" viewBox="0 0 242 45" fill="none" xmlns="http://www.w3.org/2000/svg">
<path d="M45.9106 3.79984V3.47287C45.902 3.37765 45.9135 3.28161 45.9443 3.19158C45.9751 3.10156 46.0244 3.01976 46.0887 2.95199C46.1531 2.88422 46.2308 2.83216 46.3165 2.7995C46.4022 2.76684 46.4937 2.75438 46.5844 2.76302H55.0218C55.112 2.75727 55.2023 2.77171 55.2867 2.80539C55.3711 2.83907 55.4477 2.89121 55.5114 2.95835C55.5752 3.02549 55.6246 3.1061 55.6563 3.19481C55.6881 3.28352 55.7015 3.3783 55.6957 3.47287V3.79146C55.6957 4.46218 54.6303 4.60471 54.9872 5.77289L59.6108 20.3639C59.6454 20.4701 59.712 20.4701 59.7812 20.3639C62.0397 17.2898 64.3089 12.3599 64.3089 8.50049C64.3089 4.99317 61.2061 5.2419 61.2061 2.65682C61.1978 2.30271 61.2588 1.95059 61.3852 1.62215C61.5117 1.29372 61.7009 0.995946 61.9412 0.747188C62.1815 0.49843 62.4678 0.303963 62.7825 0.175779C63.0972 0.0475944 63.4336 -0.0115904 63.7709 0.00187464C66.1332 0.00187464 67.5501 3.01174 67.5501 6.19768C67.5501 15.1574 60.6255 27.5854 58.4389 27.5854H56.6838C55.8395 27.5854 55.4693 26.6296 55.0858 25.5676L47.9987 5.73935C47.5272 4.42865 45.908 4.71091 45.908 3.78308" fill="#FDF6D3"/>
<path d="M75.6107 9.90247C79.8186 9.90247 82.5089 12.9142 82.5089 16.2456C82.5089 18.2534 81.2136 18.7908 80.2427 19.0396L73.5387 20.9117C73.4417 20.9485 73.3778 21.0192 73.4084 21.1267C74.0242 24.2374 76.5816 25.1395 77.9408 25.1395C79.042 25.1395 80.1099 24.6757 81.1446 23.6718C81.3134 23.5269 81.5167 23.4394 81.7297 23.4201C81.8446 23.4148 81.9593 23.4349 82.0672 23.479C82.1751 23.5232 82.274 23.5907 82.3581 23.6775C82.4423 23.7643 82.51 23.8688 82.5574 23.9848C82.6047 24.1008 82.6308 24.2261 82.6341 24.3534C82.6341 24.7832 82.4732 25.3205 81.9239 25.9285C80.6924 27.3962 78.5565 28.2927 76.2571 28.2927C71.6584 28.2927 67.5501 24.9614 67.5501 19.1216C67.5501 13.2819 71.6941 9.91095 75.6107 9.91095M73.0559 18.3694C73.0524 18.3971 73.0553 18.4253 73.0644 18.4514C73.0736 18.4775 73.0886 18.5006 73.108 18.5184C73.1275 18.5363 73.1508 18.5483 73.1756 18.5534C73.2005 18.5585 73.2261 18.5565 73.25 18.5476L77.2919 17.3909C77.9715 17.2127 78.1963 16.6387 78.1963 15.7083C78.1963 13.8446 77.3889 11.8396 75.833 11.8396C74.1187 11.8396 72.8234 14.99 73.0508 18.3609" fill="#FDF6D3"/>
<path d="M84.6016 12.6091V12.2952C84.6016 11.4224 89.078 9.99333 89.8177 9.99333C90.2066 9.99333 90.6235 10.4449 90.6896 11.2489L90.8497 13.4104C90.8828 13.515 90.8828 13.515 90.9133 13.4462C91.4624 11.4224 93.4019 9.90247 95.5524 9.90247C97.6139 9.90247 99.0298 11.5766 99.0298 13.4242C99.0298 15.4149 97.5809 16.3896 96.2921 16.3896C94.167 16.3896 94.7466 13.6362 93.7171 13.6362C92.2351 13.6362 91.2031 16.0097 91.2031 19.603V25.0108C91.2111 25.2551 91.2777 25.493 91.3962 25.7011C91.5147 25.9091 91.6812 26.0802 91.8792 26.1975C92.0419 26.3379 92.3317 26.5803 92.3317 26.8941V27.0346C92.3212 27.1769 92.2643 27.3104 92.1712 27.4114C92.078 27.5123 91.9547 27.5739 91.8233 27.5853H85.1481C85.0088 27.5883 84.8739 27.5326 84.7719 27.4298C84.6699 27.327 84.6088 27.1853 84.6016 27.0346V26.8941C84.6207 26.7479 84.6714 26.6086 84.7496 26.4875C84.8278 26.3665 84.9312 26.2671 85.0515 26.1975C85.2467 26.0766 85.4108 25.9046 85.5289 25.6973C85.6471 25.49 85.7154 25.254 85.7277 25.0108V14.2144C85.7277 13.6912 85.2447 13.2727 84.9651 13.1323C84.838 13.0277 84.6118 12.8872 84.6118 12.6091" fill="#FDF6D3"/>
<path d="M100.997 12.3929V12.0387C100.997 11.7885 101.129 11.5748 101.465 11.3977C102.805 10.6471 106.02 9.71089 106.858 9.71089C107.26 9.71089 107.696 10.1748 107.696 11.0294V24.9567C107.704 25.2062 107.774 25.449 107.897 25.6615C108.02 25.8739 108.193 26.0486 108.399 26.1684C108.566 26.3118 108.867 26.5591 108.867 26.8796V27.023C108.856 27.1683 108.797 27.3047 108.7 27.4077C108.603 27.5108 108.475 27.5737 108.338 27.5853H101.571C101.426 27.5884 101.286 27.5315 101.18 27.4265C101.074 27.3216 101.01 27.1769 101.003 27.023V26.8796C101.022 26.7303 101.075 26.588 101.156 26.4645C101.238 26.3409 101.345 26.2394 101.47 26.1684C101.673 26.0449 101.844 25.8693 101.967 25.6576C102.09 25.446 102.161 25.205 102.174 24.9567V13.9925C102.174 13.4584 101.671 13.0676 101.381 12.8905C101.248 12.8174 101.013 12.6403 101.013 12.3901M101.616 4.73204C101.615 4.07624 101.798 3.43502 102.14 2.88951C102.482 2.34401 102.969 1.91874 103.539 1.66752C104.108 1.4163 104.735 1.35042 105.34 1.47823C105.945 1.60603 106.5 1.92177 106.937 2.38548C107.373 2.8492 107.669 3.44006 107.79 4.08328C107.91 4.7265 107.848 5.39318 107.612 5.99895C107.375 6.60472 106.976 7.12235 106.463 7.48634C105.95 7.85034 105.347 8.04433 104.73 8.04377C104.32 8.0479 103.913 7.96506 103.534 7.8001C103.154 7.63513 102.809 7.39135 102.519 7.083C102.229 6.77465 102 6.40792 101.845 6.00425C101.69 5.60059 101.612 5.16809 101.616 4.73204Z" fill="#FDF6D3"/>
<path d="M118.049 3.86363V3.53741C118.054 3.35136 118.126 3.17447 118.249 3.04285C118.373 2.91123 118.539 2.83482 118.713 2.82922H133.929C134.426 2.82922 134.714 2.90172 134.824 3.38686L135.719 7.5914C135.784 7.87022 135.784 8.14904 135.554 8.26335L135.292 8.439C134.531 8.8628 133.17 5.5421 130.845 5.5421H126.371C126.318 5.54478 126.266 5.55905 126.218 5.58403C126.171 5.60901 126.128 5.64417 126.094 5.68731C126.06 5.73046 126.034 5.78067 126.019 5.83484C126.003 5.889 125.998 5.94595 126.005 6.00215V12.1835C126.005 12.2198 126.039 12.2532 126.073 12.1835C126.346 11.8462 126.681 11.5721 127.057 11.3779C127.433 11.1837 127.842 11.0736 128.26 11.0543C129.884 11.0543 131.012 12.3592 132.137 12.3592C132.405 12.3678 132.67 12.2942 132.901 12.1473C132.948 12.1199 133.002 12.1088 133.055 12.1153C133.109 12.1217 133.159 12.1456 133.199 12.1835L133.265 12.2895C133.432 12.4317 133.299 12.7495 133.265 12.8192C132.767 13.8787 131.972 14.6204 130.879 14.6204C129.353 14.6204 128.558 13.2792 126.868 13.2792C126.62 13.2946 126.375 13.3414 126.138 13.4187C126.073 13.4549 126.005 13.4911 126.005 13.5971V24.549C126.005 25.9626 127.399 25.5722 127.399 26.562V26.8799C127.399 26.9729 127.382 27.065 127.349 27.1509C127.316 27.2369 127.267 27.3149 127.205 27.3805C127.143 27.4461 127.07 27.498 126.989 27.5332C126.908 27.5683 126.822 27.586 126.735 27.5853H118.713C118.541 27.5736 118.379 27.4955 118.257 27.3658C118.134 27.236 118.06 27.0633 118.049 26.8799V26.562C118.049 25.5722 119.441 25.8566 119.441 24.549V5.84043C119.441 4.56903 118.049 4.81718 118.049 3.86363Z" fill="#FDF6D3"/>
<path d="M136.412 12.6091V12.2952C136.412 11.4224 140.888 9.99333 141.631 9.99333C142.017 9.99333 142.434 10.4449 142.5 11.2489L142.66 13.4104C142.693 13.515 142.693 13.515 142.724 13.4462C143.262 11.4224 145.205 9.90247 147.363 9.90247C149.424 9.90247 150.84 11.5766 150.84 13.4242C150.84 15.4149 149.391 16.3896 148.105 16.3896C145.977 16.3896 146.557 13.6362 145.527 13.6362C144.045 13.6362 143.016 16.0097 143.016 19.603V25.0108C143.024 25.2551 143.091 25.493 143.209 25.7011C143.328 25.9091 143.494 26.0802 143.692 26.1975C143.852 26.3379 144.142 26.5803 144.142 26.8941V27.0346C144.132 27.1769 144.075 27.3104 143.981 27.4114C143.888 27.5123 143.765 27.5739 143.634 27.5853H136.958C136.819 27.5883 136.684 27.5326 136.582 27.4298C136.48 27.327 136.419 27.1853 136.412 27.0346V26.8941C136.431 26.7479 136.482 26.6086 136.56 26.4875C136.638 26.3665 136.742 26.2671 136.862 26.1975C137.057 26.0766 137.221 25.9046 137.339 25.6973C137.457 25.49 137.526 25.254 137.538 25.0108V14.2144C137.538 13.6912 137.055 13.2727 136.775 13.1323C136.648 13.0277 136.422 12.8872 136.422 12.6091" fill="#FDF6D3"/>
<path d="M161.782 9.91665C164.113 9.91665 165.811 10.5262 166.678 10.7076C167.07 10.7734 167.426 10.9928 167.677 11.3239C167.929 11.6549 168.059 12.0744 168.042 12.5021V24.8596C168.042 25.3982 168.641 25.8292 168.94 25.9936C169.016 26.0432 169.079 26.1116 169.125 26.193C169.17 26.2744 169.197 26.3664 169.203 26.4613V26.8214C169.186 26.9804 169.122 27.1293 169.02 27.2457C168.918 27.3622 168.784 27.4401 168.638 27.4677C167.04 28.0064 164.076 28.2927 163.382 28.2927C162.817 28.2927 162.384 27.8278 162.384 26.966V25.9227C162.384 25.8518 162.384 25.815 162.318 25.9227C161.868 26.6447 161.257 27.2334 160.541 27.635C159.825 28.0367 159.028 28.2384 158.221 28.2218C154.258 28.2218 151.496 25.8518 151.496 20.6072C151.496 14.8948 155.724 9.90247 161.784 9.90247M159.619 25.5627C161.085 25.5627 162.384 23.1218 162.384 20.0686V14.084C162.397 13.9713 162.374 13.857 162.318 13.7608C162.201 13.4407 162 13.1645 161.74 12.9665C161.479 12.7685 161.17 12.6573 160.852 12.6467C159.254 12.6467 157.456 15.9862 157.456 20.6214C157.456 24.5364 158.455 25.5768 159.619 25.5768" fill="#FDF6D3"/>
<path d="M170.515 18.5035C170.515 13.3858 174.383 9.96372 179.075 9.96372C180.034 9.94199 180.985 10.1624 181.85 10.6069C181.946 10.6368 182.047 10.649 182.147 10.6431C183.56 10.2827 184.997 10.0351 186.445 9.90247C187.105 9.90247 187.566 10.5011 187.566 11.3476V26.2721C187.566 34.2745 182.775 36.7805 178.222 36.7805C174.816 36.7805 172.108 34.9456 172.108 32.7932C172.108 31.2757 173 30.3958 174.289 30.3958C175.577 30.3958 176.237 31.6293 176.534 32.4758C176.832 33.3223 177.429 34.2049 178.749 34.2049C180.6 34.2049 181.954 30.3234 181.954 26.2665V24.5012C181.954 24.4288 181.954 24.3954 181.889 24.465C181.229 25.4869 179.873 26.8652 177.924 26.8652C174.19 26.8652 170.52 24.9579 170.52 18.5119M179.148 24.3592C180.566 24.3592 181.954 21.9952 181.954 18.7152V17.2673C181.954 13.0684 180.932 11.6566 179.643 11.6566C177.99 11.6566 176.404 14.6555 176.404 18.5035C176.404 23.0533 177.726 24.3508 179.148 24.3508" fill="#FDF6D3"/>
<path d="M190.19 19.1158C190.19 13.6361 194.143 9.90247 198.715 9.90247C203.288 9.90247 207.241 13.6361 207.241 19.1158C207.241 24.5956 203.255 28.2927 198.715 28.2927C194.176 28.2927 190.19 24.5928 190.19 19.1158ZM195.96 19.1158C196.413 23.0263 197.84 26.4147 199.527 26.4147C201.213 26.4147 201.893 23.046 201.405 19.1158C200.916 15.1857 199.527 11.8956 197.774 11.8956C196.021 11.8956 195.471 15.2025 195.96 19.1158Z" fill="#FDF6D3"/>
<path d="M211.268 21.6263C212.457 21.6263 212.683 22.6614 213.132 23.8006C213.582 24.9398 214.486 26.2618 216.287 26.2618C217.704 26.2618 218.862 25.2267 218.862 23.9441C218.862 22.3408 216.739 21.5194 215.095 21.0216C212.048 20.0596 209.884 18.3831 209.884 15.2131C209.884 11.7561 212.972 9.90247 216.03 9.90247C219.89 9.90247 222.379 12.0036 222.379 13.8939C222.379 14.7855 221.833 15.6406 220.672 15.6406C219.657 15.6406 219.032 14.9262 218.775 13.8939C218.453 12.645 217.165 11.7899 215.621 11.7899C214.527 11.7899 213.658 12.4678 213.658 13.5732C213.658 15.1399 216.233 15.6041 217.648 16.1385C220.932 17.3508 222.981 18.7769 222.981 22.518C222.981 25.584 219.987 28.2927 216.287 28.2927C212.972 28.2927 209.209 26.7963 209.209 23.9807C209.209 22.6249 210.044 21.6263 211.268 21.6263Z" fill="#FDF6D3"/>
<path d="M224.293 19.1158C224.293 13.6361 228.4 9.90247 233.148 9.90247C237.895 9.90247 242 13.6361 242 19.1158C242 24.5956 237.858 28.2927 233.148 28.2927C228.437 28.2927 224.293 24.5928 224.293 19.1158ZM230.284 19.1158C230.757 23.0263 232.236 26.4147 233.987 26.4147C235.738 26.4147 236.445 23.046 235.94 19.1158C235.435 15.1857 233.987 11.8956 232.17 11.8956C230.353 11.8956 229.779 15.2025 230.284 19.1158Z" fill="#FDF6D3"/>
<path d="M74.7642 43.1416C74.7642 43.4102 74.5986 43.5759 74.3157 43.6273L73.0237 43.8445C72.8148 43.876 72.6058 43.8445 72.6058 43.4445V42.9587C72.1905 43.5588 71.2527 43.8445 70.7176 43.8445C68.4114 43.8445 67.5501 41.9585 67.5501 39.5725C67.5501 37.1864 68.414 35.3204 70.7074 35.3204C71.2884 35.3204 72.1956 35.5548 72.5956 36.1034V34.4203C72.5956 33.563 72.2847 33.403 72.0019 33.2373C71.9161 33.2005 71.8427 33.1347 71.792 33.0489C71.7412 32.9632 71.7155 32.8618 71.7186 32.7589C71.7217 32.656 71.7534 32.5567 71.8092 32.475C71.865 32.3932 71.9422 32.3331 72.0299 32.3029L73.4595 31.8514C73.6684 31.7856 73.8749 31.8514 73.8749 32.2514V41.4928C73.8749 42.35 74.1883 42.5272 74.4711 42.6758C74.5538 42.7138 74.6246 42.7783 74.6749 42.8611C74.7252 42.9439 74.7527 43.0414 74.754 43.1416M72.5956 39.7582V39.5725C72.5956 37.6722 71.8974 36.0205 70.7227 36.0205C69.5479 36.0205 68.9389 37.6722 68.9389 39.5725C68.9389 41.4728 69.5505 43.0444 70.7227 43.0444C71.8949 43.0444 72.5956 41.8414 72.5956 39.7582Z" fill="#FDF6D3"/>
<path d="M78.0434 39.6168C78.0434 37.2461 79.4103 35.3658 81.7062 35.3658C84.0021 35.3658 85.2575 37.2461 85.2575 39.6168C85.2575 41.9874 84.0356 43.8536 81.7062 43.8536C79.3768 43.8536 78.0434 41.9734 78.0434 39.6168ZM83.6757 39.6168C83.6757 37.7029 83.2378 36.0019 81.6895 36.0019C80.1412 36.0019 79.6223 37.7029 79.6223 39.6168C79.6223 41.5306 80.144 43.2063 81.6895 43.2063C83.235 43.2063 83.6757 41.5054 83.6757 39.6083" fill="#FDF6D3"/>
<path d="M95.5592 42.5544C95.4321 42.8484 95.2665 43.1169 95.0687 43.3498C94.7446 43.7461 94.3545 44.0584 93.923 44.2666C93.4915 44.4749 93.0281 44.5746 92.5623 44.5595C90.2374 44.5595 89.1924 42.5121 89.1924 39.9687C89.1924 37.4253 90.5184 35.3658 92.6364 35.3658C93.8756 35.3658 94.9358 35.9707 95.5311 37.3407C96.2465 38.9828 95.0201 39.4425 94.6063 38.8074C94.1132 38.0665 94.5756 37.3951 94.2613 36.8114C94.0058 36.3366 93.4412 36.0523 92.8306 36.0523C91.4305 36.0523 90.6232 37.9062 90.6232 39.9838C90.6232 42.2974 91.6451 43.7611 92.7872 43.7611C93.4565 43.7611 94.1438 43.4798 94.4427 42.9839C94.7417 42.4879 94.3814 41.9798 94.7698 41.3599C95.1121 40.8125 96.1111 41.133 95.5592 42.5695" fill="#FDF6D3"/>
<path d="M101.105 40.2426C101.105 42.3629 101.98 43.7442 103.295 43.7442C103.901 43.7442 104.562 43.514 104.879 42.9839C105.145 42.5235 104.775 41.9419 105.173 41.3391C105.528 40.809 106.55 41.1271 105.987 42.5507C105.861 42.8456 105.697 43.1146 105.5 43.3474C105.183 43.746 104.799 44.06 104.373 44.2688C103.947 44.4776 103.489 44.5765 103.029 44.559C101.016 44.559 99.6856 42.8264 99.6856 39.8912C99.6856 37.362 100.953 35.3658 103.044 35.3658C105.057 35.3658 106.106 36.9197 106.24 39.0764C106.283 39.8034 105.929 39.7125 105.338 39.7125H101.105V40.2426ZM101.151 38.9704H104.317C104.76 38.9704 104.864 38.7069 104.864 38.4403C104.864 37.2287 104.124 36.0534 103.044 36.0534C101.777 36.0534 101.151 37.8709 101.151 38.9704Z" fill="#FDF6D3"/>
<path d="M116.081 41.5298C116.081 42.8004 114.877 43.8536 113.156 43.8536C111.265 43.8536 110.593 42.6338 110.379 42.2555C110.165 41.8771 109.969 41.0187 110.654 40.7561C110.739 40.7244 110.829 40.7128 110.918 40.722C111.008 40.7312 111.095 40.761 111.172 40.8094C111.25 40.8578 111.318 40.9237 111.37 41.0027C111.423 41.0817 111.459 41.1719 111.476 41.2672C111.583 41.6795 111.508 41.9251 111.555 42.2555C111.615 42.6677 112.163 43.2127 113.156 43.2127C114.329 43.2127 114.741 42.7835 114.741 42.1567C114.741 41.414 113.78 40.9538 112.895 40.4088C111.589 39.6013 110.379 38.8107 110.379 37.6756C110.379 36.4219 111.583 35.3658 113.276 35.3658C115.044 35.3658 115.7 36.5857 115.867 36.981C116.034 37.3763 116.327 38.2008 115.656 38.4492C115.476 38.5008 115.284 38.4768 115.12 38.382C114.956 38.2872 114.831 38.1286 114.77 37.9382C114.65 37.6078 114.741 37.3113 114.694 36.981C114.634 36.5546 114.13 35.9927 113.276 35.9927C112.179 35.9927 111.722 36.5856 111.722 37.2294C111.722 37.8732 112.652 38.3589 113.566 38.9603C115.211 40.0643 116.081 40.4088 116.081 41.5298Z" fill="#FDF6D3"/>
<path d="M130.15 34.1019C129.994 33.8567 129.924 33.5487 129.955 33.2432C129.955 32.894 129.73 32.4761 129.185 32.4761C128.371 32.4761 128.02 33.2432 128.02 35.1809V35.5673H129.309C129.674 35.5673 129.703 36.3516 129.309 36.3516H128.02V42.1305C128.029 42.3051 128.084 42.472 128.177 42.6071C128.27 42.7423 128.397 42.839 128.539 42.8833C128.625 42.9135 128.701 42.9749 128.756 43.0591C128.812 43.1432 128.844 43.2458 128.848 43.3527C128.85 43.4177 128.84 43.4824 128.82 43.5429C128.8 43.6034 128.77 43.6586 128.732 43.7052C128.694 43.7518 128.649 43.789 128.599 43.8145C128.549 43.8399 128.495 43.8533 128.44 43.8536H126.395C126.298 43.8518 126.205 43.8093 126.132 43.7336C126.059 43.6578 126.011 43.5538 125.996 43.4397C125.981 43.3257 126 43.2091 126.05 43.1104C126.1 43.0117 126.178 42.9374 126.27 42.9005C126.522 42.766 126.815 42.5484 126.815 42.1305V36.3573H126.212C125.807 36.3573 125.835 35.5731 126.212 35.5731H126.815V34.8718C126.815 32.9999 127.895 31.8292 129.185 31.8292C129.576 31.8292 130.431 31.9638 130.894 32.7308C131.614 33.9359 130.738 34.8546 130.15 34.1019Z" fill="#FDF6D3"/>
<path d="M136.412 43.3526C136.413 43.4174 136.402 43.4818 136.38 43.5421C136.357 43.6025 136.323 43.6576 136.28 43.7042C136.237 43.7508 136.185 43.788 136.128 43.8136C136.071 43.8393 136.009 43.8529 135.947 43.8536H133.6C133.489 43.8525 133.382 43.8104 133.298 43.7349C133.214 43.6593 133.158 43.5552 133.141 43.441C133.123 43.3268 133.145 43.2098 133.203 43.1109C133.26 43.0119 133.349 42.9373 133.454 42.9002C133.622 42.8541 133.772 42.7556 133.884 42.6178C133.996 42.4801 134.065 42.3099 134.081 42.1301V38.0704C134.081 37.2116 133.743 37.0341 133.438 36.8852C133.349 36.8466 133.272 36.7815 133.218 36.6981C133.164 36.6146 133.134 36.5164 133.133 36.4157C133.133 36.3101 133.165 36.2074 133.227 36.1231C133.288 36.0389 133.373 35.9777 133.471 35.949L135.01 35.4967C135.235 35.4308 135.461 35.4967 135.461 35.8975V42.1301C135.468 42.3058 135.529 42.4745 135.636 42.6104C135.743 42.7463 135.89 42.842 136.054 42.8831C136.154 42.911 136.242 42.9719 136.306 43.0566C136.369 43.1413 136.404 43.2452 136.406 43.3526M133.776 32.9744C133.776 32.3388 134.144 31.8292 134.801 31.8292C135.458 31.8292 135.829 32.3474 135.829 32.9744C135.829 33.6014 135.477 34.1196 134.801 34.1196C134.125 34.1196 133.776 33.6014 133.776 32.9744Z" fill="#FDF6D3"/>
<path d="M148.217 43.3857C148.218 43.4463 148.208 43.5066 148.187 43.5631C148.165 43.6196 148.132 43.6712 148.091 43.7148C148.049 43.7584 148 43.7931 147.945 43.817C147.89 43.8408 147.831 43.8532 147.771 43.8536H145.536C145.476 43.8544 145.416 43.8427 145.361 43.8192C145.306 43.7958 145.256 43.761 145.214 43.7171C145.172 43.6733 145.14 43.6212 145.119 43.5642C145.098 43.5072 145.089 43.4464 145.093 43.3857C145.092 43.2918 145.122 43.2004 145.177 43.1251C145.233 43.0498 145.311 42.9948 145.4 42.9683C145.56 42.9279 145.705 42.837 145.812 42.7086C145.918 42.5801 145.983 42.4208 145.995 42.2532V39.212C145.995 37.5213 144.985 37.1199 144.19 37.1199C143.301 37.1199 142.567 38.0184 142.567 38.9196V42.2532C142.571 42.417 142.629 42.5747 142.731 42.7014C142.834 42.828 142.975 42.9163 143.133 42.9524C143.229 42.9753 143.315 43.0307 143.376 43.1094C143.437 43.1881 143.47 43.2856 143.469 43.3857C143.471 43.446 143.461 43.5062 143.439 43.5625C143.418 43.6189 143.385 43.6703 143.344 43.7139C143.303 43.7574 143.253 43.7922 143.199 43.8162C143.144 43.8402 143.085 43.8529 143.026 43.8536H140.791C140.731 43.8544 140.671 43.8427 140.616 43.8192C140.561 43.7958 140.511 43.761 140.469 43.7171C140.427 43.6733 140.395 43.6212 140.374 43.5642C140.353 43.5072 140.344 43.4464 140.348 43.3857C140.347 43.2921 140.376 43.2007 140.431 43.1253C140.486 43.05 140.563 42.9949 140.652 42.9683C140.813 42.9284 140.958 42.8377 141.065 42.7092C141.173 42.5808 141.237 42.4211 141.25 42.2532V38.4836C141.25 37.6861 140.927 37.5213 140.639 37.383C140.553 37.3478 140.48 37.2875 140.428 37.2099C140.376 37.1323 140.348 37.0408 140.348 36.9471C140.349 36.8499 140.381 36.7558 140.438 36.678C140.496 36.6002 140.576 36.5428 140.668 36.5137L142.136 36.0937C142.352 36.0326 142.567 36.0937 142.567 36.4659V37.3352C142.813 36.9435 143.156 36.6232 143.561 36.4056C143.966 36.1881 144.419 36.0806 144.878 36.0937C145.95 36.0937 147.312 36.8912 147.312 38.9196V42.2532C147.319 42.4161 147.378 42.5723 147.48 42.6983C147.582 42.8244 147.722 42.9135 147.878 42.9524C147.973 42.9781 148.057 43.0341 148.118 43.1122C148.179 43.1903 148.214 43.2862 148.217 43.3857Z" fill="#FDF6D3"/>
<path d="M151.496 39.6168C151.496 37.2461 152.739 35.3658 154.826 35.3658C156.913 35.3658 158.054 37.2461 158.054 39.6168C158.054 41.9874 156.943 43.8536 154.826 43.8536C152.708 43.8536 151.496 41.9734 151.496 39.6168ZM156.619 39.6168C156.619 37.7029 156.218 36.0019 154.813 36.0019C153.408 36.0019 152.931 37.7029 152.931 39.6168C152.931 41.5306 153.406 43.2063 154.813 43.2063C156.221 43.2063 156.619 41.5054 156.619 39.6083" fill="#FDF6D3"/>
<path d="M167.892 41.5298C167.892 42.8004 166.687 43.8536 164.966 43.8536C163.075 43.8536 162.404 42.6338 162.189 42.2555C161.975 41.8771 161.779 41.0187 162.466 40.7561C162.551 40.7249 162.641 40.7136 162.731 40.723C162.82 40.7324 162.907 40.7623 162.985 40.8107C163.062 40.859 163.13 40.9248 163.182 41.0035C163.235 41.0822 163.271 41.1721 163.289 41.2672C163.394 41.6795 163.318 41.9251 163.365 42.2555C163.425 42.6677 163.973 43.2127 164.966 43.2127C166.139 43.2127 166.552 42.7835 166.552 42.1567C166.552 41.414 165.59 40.9538 164.705 40.4088C163.399 39.6013 162.189 38.8107 162.189 37.6756C162.189 36.4219 163.394 35.3658 165.086 35.3658C166.855 35.3658 167.51 36.5857 167.68 36.981C167.85 37.3763 168.137 38.2008 167.466 38.4492C167.286 38.5008 167.094 38.4768 166.93 38.382C166.766 38.2872 166.641 38.1286 166.58 37.9382C166.46 37.6078 166.552 37.3113 166.505 36.981C166.445 36.5546 165.94 35.9927 165.086 35.9927C163.989 35.9927 163.532 36.5856 163.532 37.2294C163.532 37.8732 164.462 38.3589 165.376 38.9603C167.024 40.0643 167.892 40.4088 167.892 41.5298Z" fill="#FDF6D3"/>
<path d="M8.81402 5.5135C13.991 5.5135 20.0954 10.4224 24.0096 17.7307C26.5168 22.4107 27.8163 27.4496 27.6775 31.9176C27.5386 36.1567 26.1055 39.353 23.6375 40.8876C22.5438 41.5554 21.3049 41.8968 20.0482 41.8767C14.8713 41.8767 8.76687 36.9678 4.8527 29.6624C2.34544 24.9796 1.04596 19.9407 1.18481 15.4726C1.32367 11.2335 2.75677 8.04002 5.22473 6.50263C6.31875 5.8356 7.55747 5.49423 8.81402 5.5135ZM8.81402 4.24459C7.35139 4.22491 5.91017 4.62478 4.63787 5.40328C-1.21503 9.04893 -1.57658 20.195 3.82831 30.2954C8.06997 38.2085 14.5988 43.1456 20.0404 43.1456C21.503 43.1653 22.9442 42.7655 24.2165 41.9869C30.0721 38.3413 30.4336 27.1981 25.0261 17.0948C20.7844 9.18176 14.2556 4.24459 8.81402 4.24459Z" fill="#FDF6D3"/>
<path d="M31.8397 4.2439V5.51274C33.0955 5.49315 34.3334 5.83454 35.4264 6.50181C37.8944 8.03912 39.3275 11.2239 39.4663 15.4713C39.6104 19.9391 38.3109 24.9777 35.7984 29.6603C31.8895 36.9653 25.7824 41.874 20.6028 41.874C19.3462 41.8941 18.1072 41.5527 17.0135 40.8849C14.556 39.3504 13.1203 36.1571 12.9841 31.9182C12.8373 27.4504 14.1394 22.4118 16.652 17.7321C20.5635 10.4242 26.6706 5.51556 31.8476 5.51556V4.24672M31.8476 4.24672C26.4033 4.24672 19.8745 9.17514 15.6354 17.0962C10.2279 27.1989 10.5894 38.3416 16.4424 41.987C17.7147 42.7655 19.1559 43.1653 20.6185 43.1456C26.0627 43.1456 32.5916 38.2172 36.8307 30.2961C42.2382 20.1963 41.8766 9.0508 36.0237 5.40535C34.7513 4.62714 33.3102 4.22731 31.8476 4.24672Z" fill="#FDF6D3"/>
<path d="M20.0027 1.98212C22.8262 1.98212 25.5223 3.96963 27.5951 7.59825C29.7718 11.4058 30.9718 16.4938 30.9718 21.9282C30.9718 27.3626 29.7744 32.4478 27.5951 36.2582C25.5172 39.8783 22.8262 41.8743 20.0027 41.8743C17.1793 41.8743 14.4831 39.8868 12.4129 36.2582C10.2362 32.4478 9.03619 27.3598 9.03619 21.9282C9.03619 16.4966 10.2362 11.4058 12.4129 7.59825C14.4909 3.97531 17.1793 1.98212 20.0027 1.98212ZM20.0027 0.707275C13.3012 0.707275 7.86993 10.2076 7.86993 21.9282C7.86993 33.6488 13.3012 43.1463 20.0027 43.1463C26.7042 43.1463 32.1355 33.646 32.1355 21.9282C32.1355 10.2104 26.7042 0.707275 20.0027 0.707275Z" fill="#FDF6D3"/>
</svg>
