<svg width="308" height="305" viewBox="0 0 308 305" fill="none" xmlns="http://www.w3.org/2000/svg">
<path d="M101.023 79.3528C126.203 79.3528 155.913 101.493 174.933 134.453C187.123 155.563 193.453 178.293 192.743 198.453C192.073 217.613 185.103 231.983 173.103 238.913C167.782 241.921 161.756 243.461 155.643 243.373C130.463 243.373 100.753 221.233 81.7332 188.283C69.5432 167.163 63.2132 144.433 63.9232 124.283C64.5932 105.123 71.5732 90.7529 83.5732 83.8329C88.8875 80.8131 94.9115 79.2665 101.023 79.3528ZM101.023 73.6329C93.9058 73.5428 86.8926 75.3478 80.7032 78.8628C52.2332 95.3028 50.4732 145.563 76.7732 191.123C97.4032 226.843 129.163 249.123 155.643 249.123C162.785 249.208 169.821 247.386 176.023 243.843C204.493 227.403 206.253 177.143 179.953 131.583C159.323 95.8629 127.563 73.6329 101.083 73.6329" fill="#FDF6D3"/>
<path d="M211.723 73.6329V79.3528C217.834 79.2635 223.858 80.8066 229.173 83.8229C241.173 90.7429 248.173 105.113 248.823 124.273C249.523 144.413 243.203 167.143 231.003 188.273C212.003 221.223 182.283 243.363 157.093 243.363C150.988 243.463 144.965 241.938 139.643 238.943C127.643 232.013 120.643 217.643 119.993 198.483C119.283 178.343 125.613 155.613 137.803 134.483C156.803 101.483 186.533 79.3829 211.713 79.3829V73.6628M211.713 73.6628C185.233 73.6628 153.473 95.8928 132.853 131.613C106.543 177.173 108.303 227.433 136.783 243.873C142.969 247.387 149.979 249.193 157.093 249.103C183.573 249.103 215.333 226.873 235.963 191.103C262.263 145.543 260.503 95.2829 232.033 78.8429C225.844 75.3279 218.831 73.5228 211.713 73.6128" fill="#FDF6D3"/>
<path d="M156.384 64.2927C170.244 64.2927 183.463 73.2427 193.633 89.5027C204.313 106.593 210.194 129.443 210.194 153.823C210.194 178.203 204.313 201.053 193.633 218.143C183.463 234.403 170.244 243.353 156.384 243.353C142.524 243.353 129.304 234.403 119.144 218.143C108.454 201.053 102.574 178.203 102.574 153.823C102.574 129.443 108.454 106.593 119.144 89.5027C129.304 73.2427 142.524 64.2927 156.384 64.2927ZM156.384 58.5728C123.504 58.5728 96.8535 101.213 96.8535 153.823C96.8535 206.433 123.504 249.073 156.384 249.073C189.264 249.073 215.914 206.433 215.914 153.823C215.914 101.213 189.264 58.5728 156.384 58.5728Z" fill="#FDF6D3"/>
<path d="M1.12354 138.843L0.663537 138.743C0.554566 138.722 0.451034 138.678 0.359208 138.616C0.267383 138.554 0.189175 138.473 0.129335 138.38C0.0694939 138.286 0.029265 138.182 0.011079 138.072C-0.0071069 137.963 -0.0028699 137.851 0.0235378 137.743L2.23354 127.153C2.28139 126.935 2.41359 126.746 2.6011 126.626C2.7886 126.506 3.01607 126.465 3.23354 126.513L3.69354 126.603C4.61354 126.793 4.40354 128.603 6.20354 128.353L31.4935 124.943C31.6535 124.943 31.7235 124.833 31.5935 124.703C27.8035 120.193 19.2635 114.793 13.5135 113.593C8.42354 112.533 7.81354 116.983 4.19354 116.223C3.74656 116.133 3.32216 115.954 2.94544 115.697C2.56871 115.441 2.24731 115.111 2.00024 114.728C1.75317 114.344 1.58546 113.916 1.50701 113.466C1.42857 113.017 1.44098 112.557 1.54353 112.113C2.23353 108.803 6.72354 107.663 11.3035 108.623C24.1835 111.313 39.9435 125.163 39.3035 128.273L38.9935 129.793C38.7235 131.073 37.2335 131.343 35.5935 131.583L4.39354 136.443C2.75354 136.633 2.39354 139.093 1.12354 138.843Z" fill="#FDF6D3"/>
<path d="M26.6035 86.4328C29.6835 80.4328 35.3935 78.9628 39.1935 80.9128C40.1661 81.3789 40.9264 82.1958 41.3215 83.1993C41.7166 84.2029 41.7173 85.3188 41.3235 86.3229L35.8135 97.0628C35.7894 97.1334 35.7925 97.2103 35.8221 97.2787C35.8516 97.3471 35.9056 97.4021 35.9735 97.4328C42.0935 99.9828 46.7935 97.0829 48.2635 94.2129C49.1634 92.3444 49.3587 90.2138 48.8135 88.2129C48.6884 87.8913 48.6884 87.5345 48.8135 87.2129C48.8902 87.0483 48.9994 86.9009 49.1345 86.7796C49.2696 86.6582 49.4277 86.5654 49.5995 86.5066C49.7713 86.4478 49.9531 86.4242 50.1342 86.4373C50.3153 86.4504 50.4919 86.4999 50.6535 86.5829C51.0052 86.8074 51.3085 87.1 51.5455 87.4435C51.7825 87.7869 51.9484 88.1743 52.0335 88.5829C52.81 91.5837 52.4093 94.7679 50.9135 97.4828C47.6435 103.873 40.4235 107.353 32.9135 103.483C25.4035 99.6128 23.8135 91.9328 26.6435 86.4228M33.5235 95.9429L37.3435 88.4928C37.8935 87.4328 37.4335 86.6129 36.0435 85.9029C34.1035 84.9029 30.4135 84.4729 28.8435 87.5229C27.2735 90.5729 29.6235 93.7628 33.1735 96.0628C33.204 96.0796 33.2377 96.0899 33.2724 96.0929C33.3071 96.0959 33.3421 96.0916 33.375 96.0803C33.408 96.069 33.4382 96.0509 33.4638 96.0273C33.4893 96.0036 33.5097 95.9748 33.5235 95.9429Z" fill="#FDF6D3"/>
<path d="M43.4136 66.7928L43.0636 66.4729C42.2836 65.7929 44.0636 60.2229 44.7336 59.4729C45.0624 59.1994 45.4841 59.0634 45.9107 59.0932C46.3373 59.123 46.736 59.3163 47.0236 59.6328L49.5336 61.5028C49.6136 61.5728 49.6536 61.5028 49.6036 61.4228C48.829 60.0007 48.5095 58.3751 48.6883 56.7656C48.8671 55.1561 49.5357 53.6402 50.6036 52.4228C51.3987 51.4358 52.5499 50.8009 53.8089 50.6549C55.0679 50.509 56.3338 50.8639 57.3336 51.6428C57.713 51.9677 58.0245 52.3644 58.2501 52.81C58.4757 53.2557 58.6109 53.7415 58.6481 54.2397C58.6853 54.7378 58.6236 55.2383 58.4667 55.7126C58.3097 56.1868 58.0606 56.6252 57.7336 57.0028C55.6036 59.4128 53.5336 56.3329 52.4336 57.5829C50.9136 59.3029 52.0636 62.9529 56.4336 66.8429L63.0536 72.6928C63.3382 72.919 63.6754 73.0696 64.0337 73.1308C64.3921 73.1919 64.7601 73.1617 65.1036 73.0428C65.277 72.9378 65.4759 72.8823 65.6786 72.8823C65.8813 72.8823 66.0802 72.9378 66.2536 73.0428L66.4036 73.1828C66.5479 73.3258 66.6346 73.5168 66.6475 73.7196C66.6604 73.9223 66.5986 74.1227 66.4736 74.2829L60.5836 80.9528C60.4384 81.0843 60.2495 81.157 60.0536 81.157C59.8577 81.157 59.6688 81.0843 59.5236 80.9528L59.3636 80.8128C59.2419 80.6802 59.1553 80.5192 59.1116 80.3446C59.0679 80.1699 59.0686 79.9871 59.1136 79.8128C59.1943 79.4504 59.1884 79.0741 59.0963 78.7144C59.0042 78.3548 58.8285 78.0218 58.5836 77.7428L46.2936 66.9428C45.7136 66.4328 44.6636 66.7528 44.1636 66.9428C44.0399 66.9885 43.9069 67.0032 43.7762 66.9858C43.6455 66.9684 43.521 66.9193 43.4136 66.8429" fill="#FDF6D3"/>
<path d="M61.4132 33.2528C60.9412 32.6188 60.6675 31.8591 60.6269 31.0697C60.5862 30.2803 60.7804 29.4966 61.1848 28.8174C61.5892 28.1383 62.1858 27.5942 62.8992 27.2538C63.6126 26.9135 64.4109 26.7921 65.1932 26.9051C65.9755 27.018 66.7068 27.3602 67.2948 27.8885C67.8828 28.4167 68.3011 29.1074 68.4969 29.8732C68.6927 30.639 68.6572 31.4457 68.3949 32.1913C68.1326 32.937 67.6553 33.5882 67.0232 34.0628C66.6021 34.379 66.1226 34.6089 65.6124 34.7394C65.1022 34.8698 64.5712 34.8982 64.05 34.823C63.5287 34.7477 63.0275 34.5703 62.575 34.3008C62.1225 34.0314 61.7277 33.6752 61.4132 33.2528ZM67.4132 42.5228L67.1032 42.1028C66.4132 41.1928 69.8632 35.8928 70.7432 35.2428C71.2432 34.8728 72.1832 35.0028 72.9332 36.0028L85.3332 52.6428C85.567 52.9191 85.8657 53.1332 86.2025 53.2658C86.5393 53.3984 86.9038 53.4455 87.2632 53.4028C87.4552 53.3419 87.6603 53.3348 87.856 53.3824C88.0517 53.43 88.2306 53.5304 88.3732 53.6728L88.5032 53.8428C88.6144 54.0126 88.6596 54.2173 88.6301 54.4182C88.6006 54.6191 88.4986 54.8021 88.3432 54.9328L81.4232 60.0928C81.2614 60.1861 81.0714 60.2183 80.8879 60.1834C80.7044 60.1485 80.5395 60.049 80.4232 59.9028L80.3032 59.7428C80.2075 59.5771 80.1572 59.3891 80.1572 59.1978C80.1572 59.0065 80.2075 58.8185 80.3032 58.6528C80.4565 58.3152 80.5273 57.946 80.5099 57.5757C80.4925 57.2054 80.3874 56.8445 80.2032 56.5228L70.3132 43.2728C69.8532 42.6428 68.7632 42.7428 68.2332 42.8128C68.0952 42.8352 67.9537 42.8201 67.8235 42.7691C67.6933 42.7181 67.5792 42.633 67.4932 42.5228" fill="#FDF6D3"/>
<path d="M104.793 7.16273L104.673 6.71278C104.624 6.5022 104.658 6.28071 104.768 6.09443C104.878 5.90816 105.055 5.77145 105.263 5.71278L126.023 0.122752C126.783 -0.0772476 127.254 -0.0972452 127.594 0.562755L130.473 5.87275C130.593 6.11275 130.733 6.45275 130.473 6.68275L130.043 7.06275C129.233 7.87275 125.923 3.54277 122.503 4.45277L115.123 6.45277C115.044 6.47717 114.97 6.51789 114.907 6.57234C114.844 6.62679 114.793 6.69379 114.757 6.76905C114.721 6.84431 114.702 6.92619 114.699 7.00947C114.697 7.09275 114.712 7.17559 114.743 7.25276L117.313 16.8527C117.313 16.9527 117.393 16.9327 117.423 16.8527C117.708 16.2652 118.114 15.7443 118.614 15.3239C119.113 14.9035 119.696 14.593 120.323 14.4127C122.783 13.7527 124.993 15.1528 126.703 14.6928C127.107 14.5815 127.461 14.3342 127.703 13.9927C127.761 13.9454 127.831 13.9148 127.905 13.9042C127.979 13.8936 128.055 13.9035 128.124 13.9327L128.264 14.0628C128.454 14.1728 128.363 14.6227 128.333 14.7427C128.223 15.4866 127.898 16.1823 127.399 16.7451C126.9 17.3079 126.249 17.7135 125.523 17.9127C123.413 18.4827 121.523 16.9128 118.933 17.6328C118.549 17.7614 118.18 17.9325 117.833 18.1428C117.753 18.2228 117.713 18.2828 117.743 18.3828L122.103 34.6627C122.593 36.5227 124.403 35.6028 124.723 36.8128L124.844 37.2628C124.881 37.4725 124.842 37.6887 124.734 37.8722C124.626 38.0557 124.455 38.1943 124.253 38.2628L114.663 40.8328C114.559 40.8612 114.45 40.8685 114.343 40.8541C114.235 40.8397 114.132 40.8039 114.039 40.7489C113.946 40.6939 113.864 40.6208 113.8 40.5338C113.735 40.4469 113.689 40.3479 113.663 40.2427L113.543 39.7927C113.213 38.5927 115.194 38.3328 114.734 36.6228L107.423 9.34278C106.953 7.58278 105.103 8.34277 104.793 7.14277" fill="#FDF6D3"/>
<path d="M144.463 11.7128V11.2527C144.463 10.2527 149.763 7.78275 150.753 7.77275C151.373 7.77275 152.113 8.37273 152.183 9.56273L152.493 12.6827C152.493 12.7827 152.493 12.7827 152.603 12.6827C153.138 11.1647 154.123 9.84625 155.428 8.90428C156.733 7.96232 158.294 7.44182 159.903 7.41271C161.168 7.33809 162.412 7.76235 163.367 8.59435C164.322 9.42635 164.913 10.5998 165.013 11.8627C165.031 12.3611 164.949 12.8581 164.773 13.3247C164.597 13.7913 164.33 14.2184 163.988 14.5811C163.645 14.9438 163.235 15.235 162.779 15.4379C162.323 15.6407 161.832 15.7511 161.333 15.7627C158.113 15.8227 158.993 12.2127 157.333 12.2427C155.043 12.2427 153.123 15.5828 153.213 21.4628L153.353 30.3027C153.382 30.6639 153.5 31.0124 153.695 31.3176C153.89 31.6227 154.158 31.8752 154.473 32.0527C154.733 32.1527 155.213 32.4527 155.213 32.9227V33.1327C155.2 33.3345 155.115 33.5248 154.974 33.6696C154.833 33.8144 154.645 33.9041 154.443 33.9227L145.553 34.0627C145.356 34.0503 145.171 33.9643 145.034 33.8217C144.897 33.6791 144.818 33.4904 144.813 33.2927V33.0828C144.828 32.8939 144.892 32.7123 144.999 32.5561C145.106 32.3999 145.253 32.2746 145.423 32.1927C145.745 32.0083 146.018 31.7496 146.22 31.4383C146.422 31.1269 146.546 30.7719 146.583 30.4028L146.313 13.9427C146.313 13.1627 145.313 12.6027 144.883 12.3527C144.766 12.2944 144.665 12.2067 144.592 12.0981C144.518 11.9894 144.474 11.8635 144.463 11.7327" fill="#FDF6D3"/>
<path d="M186.023 21.2326C188.074 21.6984 189.911 22.8351 191.243 24.4627C191.363 24.6527 191.463 24.6727 191.503 24.4627L191.873 22.9427C192.873 18.6527 192.533 14.3926 189.303 13.6126C187.783 13.2526 185.953 14.2026 185.353 16.6726C185.293 17.0549 185.148 17.4191 184.93 17.7391C184.712 18.059 184.426 18.327 184.093 18.5237C183.76 18.7205 183.387 18.8412 183.002 18.8774C182.616 18.9135 182.228 18.864 181.863 18.7326C180.043 18.2926 178.863 16.9827 179.293 14.9527C179.953 12.2227 183.893 9.85266 189.963 11.3127C196.963 12.9927 199.913 18.4026 198.473 24.4226L195.823 35.4226C195.643 36.1726 196.383 36.8927 196.823 37.2527C196.93 37.3467 197.013 37.4646 197.065 37.5967C197.117 37.7287 197.137 37.8713 197.123 38.0127L197.003 38.5227C196.703 39.7827 190.713 39.1026 189.703 38.8526C188.693 38.6026 188.343 37.8527 188.633 36.6227L189.023 34.9427C189.083 34.6927 189.023 34.6627 188.833 34.8427C187.84 35.7286 186.649 36.3642 185.36 36.6965C184.071 37.0287 182.721 37.048 181.423 36.7527C175.253 35.2727 173.173 31.4627 174.173 27.3127C175.373 22.3127 180.393 19.8726 186.053 21.2326M181.053 28.5927C180.423 31.2227 181.743 33.5227 184.053 34.0727C186.783 34.7227 189.593 32.6126 190.223 29.9826L190.313 29.6327C190.633 28.4911 190.491 27.2697 189.919 26.2315C189.347 25.1934 188.389 24.4217 187.253 24.0827C184.983 23.5427 181.933 25.0827 181.093 28.5927" fill="#FDF6D3"/>
<path d="M205.623 46.3428C207.253 47.2628 207.023 49.2727 206.623 50.9827C205.763 54.5527 207.623 57.1928 210.563 58.8428C213.503 60.4928 217.503 60.8427 218.953 58.2327C220.093 56.2327 219.553 53.7427 213.153 50.1627C207.153 46.8127 204.293 42.8928 206.323 39.2628C207.723 36.7628 210.623 36.3628 212.903 36.5628C212.903 36.5628 212.973 36.5627 212.973 36.4227C212.548 35.2854 212.379 34.068 212.479 32.8578C212.579 31.6476 212.946 30.4745 213.553 29.4227C216.243 24.6127 222.103 23.8328 227.323 26.7528C228.544 27.4243 229.651 28.2849 230.603 29.3027C232.903 27.4327 235.683 26.6028 238.223 28.0228C239.903 28.9628 240.523 30.6228 239.763 32.0228C239.63 32.3014 239.442 32.5498 239.209 32.7527C238.976 32.9556 238.704 33.1086 238.41 33.2023C238.116 33.296 237.805 33.3284 237.498 33.2976C237.191 33.2667 236.893 33.1732 236.623 33.0228C234.983 32.1128 236.083 30.5828 234.973 29.9028C234.183 29.4028 233.053 29.7228 231.703 30.6328C232.657 31.962 233.211 33.5362 233.299 35.1698C233.388 36.8033 233.008 38.4282 232.203 39.8527C229.513 44.6627 223.613 45.4127 218.493 42.5427C216.989 41.7318 215.662 40.6265 214.593 39.2927C213.353 38.8427 211.473 38.6828 210.913 39.6828C210.133 41.0828 212.913 42.8927 217.333 45.3527C226.183 50.3527 225.983 55.1328 223.853 58.9428C221.593 62.9428 214.793 63.9428 208.123 60.2228C202.413 57.0228 198.543 52.1228 200.953 47.8128C201.134 47.388 201.404 47.0074 201.745 46.6968C202.086 46.3862 202.491 46.1531 202.93 46.0135C203.37 45.8739 203.835 45.831 204.293 45.8878C204.751 45.9447 205.191 46.0999 205.583 46.3428M219.463 40.7028C221.363 41.7728 224.463 40.0527 226.403 36.6027C228.343 33.1527 228.233 29.7027 226.233 28.6027C224.233 27.5027 221.323 29.1828 219.363 32.6828C217.403 36.1828 217.503 39.6228 219.463 40.6828" fill="#FDF6D3"/>
<path d="M240.874 50.4428C242.734 48.6176 245.093 47.3835 247.653 46.8958C250.213 46.408 252.86 46.6884 255.261 47.7017C257.662 48.715 259.71 50.4159 261.147 52.5903C262.583 54.7647 263.345 57.3155 263.335 59.9216C263.325 62.5277 262.545 65.0727 261.092 67.2363C259.639 69.4 257.579 71.0856 255.17 72.0809C252.762 73.0763 250.112 73.337 247.556 72.8301C245 72.3233 242.65 71.0717 240.804 69.2327C239.539 68.0143 238.535 66.5524 237.851 64.9351C237.167 63.3178 236.817 61.5788 236.824 59.8228C236.83 58.0669 237.193 56.3304 237.889 54.7183C238.585 53.1061 239.6 51.6517 240.874 50.4428ZM245.874 55.4428C242.214 60.0128 240.644 65.6427 243.264 68.2427C245.884 70.8427 250.914 68.6628 254.544 64.0628C258.174 59.4628 259.664 53.9028 257.014 51.2628C254.364 48.6228 249.584 50.9128 245.874 55.4428Z" fill="#FDF6D3"/>
<path d="M260.393 82.3628C260.726 82.1245 261.106 81.9604 261.508 81.8815C261.909 81.8026 262.323 81.8109 262.721 81.9057C263.119 82.0005 263.492 82.1796 263.815 82.431C264.138 82.6824 264.404 83.0001 264.593 83.3628C265.393 84.7628 264.483 85.5829 263.303 86.9729C262.461 87.8556 261.933 88.9912 261.801 90.2041C261.669 91.4171 261.94 92.6397 262.573 93.6828C263.893 95.9828 266.573 97.0928 268.503 95.9828C270.893 94.6128 269.903 90.1529 269.273 87.5729C268.043 82.7029 268.713 78.8529 272.273 76.8129C276.113 74.6229 280.633 76.4629 283.093 80.7529C284.031 82.5263 284.628 84.4596 284.853 86.4529C284.85 86.4764 284.854 86.5003 284.864 86.5218C284.874 86.5434 284.889 86.5619 284.909 86.5753C284.929 86.5887 284.951 86.5964 284.975 86.5978C284.999 86.5991 285.022 86.594 285.043 86.5829C285.403 86.3729 285.743 86.2429 286.043 86.6929L286.743 87.9128C286.843 88.0454 286.889 88.2105 286.872 88.3754C286.855 88.5403 286.777 88.6929 286.653 88.8028L283.303 92.2729C283.252 92.3532 283.185 92.4221 283.106 92.4755C283.027 92.5289 282.938 92.5656 282.844 92.5834C282.751 92.6012 282.654 92.5997 282.561 92.579C282.468 92.5582 282.38 92.5187 282.303 92.4629L280.903 91.4629C280.7 91.3633 280.543 91.1893 280.465 90.977C280.387 90.7647 280.393 90.5304 280.483 90.3229C281.613 87.4629 282.423 84.4829 280.973 81.9529C279.863 80.0129 277.973 79.2528 276.133 80.2928C273.603 81.7328 275.503 86.1029 276.003 88.4529C277.223 94.0429 276.473 97.6429 272.313 100.023C268.703 102.083 263.373 100.093 260.413 94.9029C257.653 90.0729 256.913 84.3929 260.413 82.4029" fill="#FDF6D3"/>
<path d="M281.703 107.763C284.232 107.142 286.888 107.283 289.337 108.167C291.786 109.051 293.919 110.64 295.468 112.732C297.018 114.825 297.914 117.329 298.045 119.929C298.175 122.53 297.535 125.111 296.203 127.349C294.871 129.586 292.908 131.38 290.56 132.505C288.212 133.63 285.583 134.037 283.005 133.673C280.427 133.309 278.014 132.191 276.069 130.46C274.124 128.729 272.734 126.462 272.073 123.943C271.606 122.251 271.487 120.481 271.722 118.742C271.958 117.002 272.543 115.328 273.443 113.821C274.343 112.314 275.539 111.004 276.958 109.972C278.378 108.939 279.992 108.205 281.703 107.813M283.463 114.613C277.973 116.673 273.763 120.713 274.683 124.293C275.603 127.873 281.043 128.553 286.513 126.443C291.983 124.333 296.103 120.313 295.173 116.693C294.243 113.073 288.953 112.603 283.463 114.613Z" fill="#FDF6D3"/>
<path d="M271.253 197.613C271.058 197.562 270.875 197.472 270.714 197.35C270.554 197.227 270.42 197.074 270.319 196.899C270.219 196.724 270.154 196.531 270.129 196.331C270.104 196.13 270.119 195.927 270.173 195.733L271.273 188.663C271.353 187.923 271.633 187.243 272.843 187.553L274.303 187.923C273.638 187.029 273.182 185.997 272.969 184.903C272.756 183.809 272.792 182.681 273.073 181.603C275.193 173.283 281.693 171.603 288.903 173.393C296.113 175.183 300.903 179.843 298.823 188.163C298.58 189.218 298.116 190.209 297.461 191.071C296.806 191.933 295.975 192.646 295.023 193.163L300.113 194.453C302.733 195.123 303.453 194.183 304.203 193.353C304.384 193.094 304.641 192.897 304.938 192.789C305.235 192.682 305.559 192.669 305.863 192.753C306.189 192.82 306.481 192.999 306.689 193.258C306.897 193.517 307.008 193.84 307.003 194.173L306.483 201.873C306.483 202.623 306.133 203.283 304.923 202.973L277.023 195.943C274.403 195.273 273.633 196.203 272.933 197.043C272.748 197.295 272.493 197.486 272.199 197.593C271.906 197.7 271.587 197.717 271.283 197.643M284.023 190.393L284.583 190.533C290.333 191.943 295.723 191.653 296.583 188.173C297.443 184.693 292.803 182.113 287.063 180.653C281.323 179.193 276.243 179.293 275.363 182.773C274.483 186.253 277.703 188.773 283.993 190.393" fill="#FDF6D3"/>
<path d="M276.163 212.673C282.573 216.673 285.353 223.513 280.803 230.843C276.253 238.173 269.093 238.393 262.693 234.423C256.293 230.453 253.293 224.013 257.873 216.633C262.453 209.253 269.803 208.733 276.163 212.633M266.683 227.943C271.853 231.153 277.193 232.803 279.113 229.713C281.033 226.623 277.333 222.313 272.163 219.103C266.993 215.893 261.543 214.543 259.623 217.633C257.703 220.723 261.563 224.773 266.683 227.943Z" fill="#FDF6D3"/>
<path d="M215.963 271.723C213.113 266.003 209.213 263.493 205.673 265.113C204.824 265.448 204.071 265.988 203.482 266.687C202.894 267.385 202.489 268.219 202.303 269.113C202.063 270.713 203.933 271.683 203.513 273.873C203.153 276.333 198.393 277.313 198.283 272.323C198.332 271.351 198.531 270.393 198.873 269.483C199.973 266.483 201.873 264.233 205.713 262.483C213.323 258.993 219.713 261.683 223.303 269.483C226.403 276.243 224.923 283.383 217.123 286.963C210.123 290.193 204.983 287.433 201.753 281.963C200.753 280.093 201.963 279.813 204.043 278.863L216.613 273.093L215.963 271.723ZM217.383 275.193L210.433 278.383C209.023 279.033 209.013 279.893 209.333 280.603C211.133 284.523 214.103 286.133 216.283 285.133C219.493 283.663 218.813 278.313 217.383 275.193Z" fill="#FDF6D3"/>
<path d="M164.313 280.863C163.733 276.863 167.313 273.003 174.403 271.963C181.913 270.843 184.693 274.323 185.583 275.403C186.473 276.483 187.123 279.403 184.873 280.553C184.524 280.764 184.133 280.9 183.728 280.949C183.322 280.999 182.911 280.962 182.521 280.841C182.13 280.72 181.77 280.518 181.464 280.248C181.157 279.977 180.912 279.645 180.743 279.273C180.412 278.28 180.175 277.259 180.033 276.223C179.633 274.973 177.733 273.513 174.853 273.943C171.973 274.373 170.733 275.943 171.023 277.873C171.363 280.193 174.813 281.103 178.023 282.353C182.823 284.223 187.313 286.133 187.833 289.683C188.413 293.593 184.833 297.483 177.833 298.523C170.633 299.583 168.013 296.133 167.103 294.953C165.943 293.493 165.743 290.693 167.863 289.743C168.59 289.427 169.41 289.402 170.155 289.674C170.899 289.945 171.511 290.493 171.863 291.203C172.423 292.203 172.253 293.143 172.563 294.143C172.961 295.046 173.66 295.783 174.541 296.228C175.422 296.673 176.43 296.798 177.393 296.583C180.113 296.183 181.273 294.433 181.003 292.583C180.603 289.913 177.183 289.153 173.813 287.703C167.753 285.083 164.813 284.363 164.283 280.863" fill="#FDF6D3"/>
<path d="M109.503 296.743C109.844 297.721 109.808 298.79 109.404 299.743C109.301 300.039 109.267 300.354 109.302 300.665C109.337 300.976 109.441 301.275 109.607 301.541C109.773 301.806 109.996 302.032 110.26 302.2C110.524 302.368 110.823 302.475 111.133 302.513C113.653 303.183 114.924 300.023 116.214 295.153L116.523 293.993L111.904 292.763C110.604 292.363 111.133 289.973 112.523 290.403L117.154 291.633L121.764 274.233C121.873 273.7 121.81 273.146 121.583 272.652C121.357 272.157 120.978 271.748 120.503 271.483C120.222 271.309 120.001 271.052 119.87 270.748C119.739 270.444 119.706 270.107 119.773 269.783C119.819 269.586 119.904 269.399 120.023 269.235C120.142 269.071 120.292 268.933 120.466 268.828C120.64 268.724 120.832 268.655 121.033 268.627C121.233 268.599 121.438 268.611 121.633 268.663L131.484 271.273C131.679 271.326 131.862 271.417 132.022 271.542C132.182 271.667 132.315 271.823 132.414 272C132.513 272.177 132.575 272.372 132.597 272.573C132.619 272.775 132.601 272.979 132.544 273.173C132.458 273.475 132.28 273.743 132.034 273.939C131.788 274.134 131.487 274.248 131.173 274.263C130.615 274.267 130.07 274.44 129.611 274.76C129.153 275.079 128.801 275.53 128.604 276.053L124.023 293.483L126.184 294.053C127.644 294.443 126.913 296.783 125.563 296.423L123.393 295.843L122.833 297.963C121.343 303.583 116.383 306.043 110.503 304.473C108.443 303.933 105.424 302.533 104.354 299.883C102.534 295.203 107.934 293.303 109.544 296.743" fill="#FDF6D3"/>
<path d="M90.6636 292.943C90.4266 293.401 90.0984 293.807 89.6991 294.134C89.2997 294.461 88.8378 294.704 88.3415 294.846C87.8452 294.988 87.3251 295.028 86.813 294.962C86.3009 294.896 85.8077 294.726 85.3636 294.463C84.885 294.261 84.452 293.965 84.0905 293.593C83.729 293.22 83.4464 292.778 83.2596 292.293C83.0729 291.809 82.9859 291.291 83.0038 290.772C83.0216 290.253 83.144 289.743 83.3636 289.273C83.6101 288.813 83.9463 288.407 84.3525 288.079C84.7586 287.752 85.2264 287.509 85.728 287.365C86.2297 287.222 86.7551 287.18 87.2731 287.243C87.7911 287.306 88.2911 287.473 88.7436 287.733C89.2188 287.94 89.647 288.242 90.0024 288.62C90.3578 288.997 90.633 289.443 90.8115 289.93C90.99 290.417 91.068 290.935 91.0409 291.452C91.0137 291.97 90.882 292.477 90.6537 292.943M95.7637 259.363C95.8503 259.18 95.9723 259.017 96.1224 258.882C96.2726 258.747 96.4481 258.643 96.6387 258.576C96.8292 258.509 97.0312 258.48 97.2329 258.492C97.4345 258.503 97.6319 258.555 97.8136 258.643L106.914 263.233C107.095 263.324 107.255 263.45 107.387 263.604C107.518 263.758 107.617 263.937 107.677 264.13C107.738 264.323 107.759 264.526 107.74 264.728C107.72 264.929 107.66 265.125 107.564 265.303C107.419 265.581 107.191 265.807 106.911 265.949C106.631 266.09 106.314 266.141 106.004 266.093C105.455 265.974 104.883 266.028 104.366 266.246C103.849 266.465 103.411 266.837 103.114 267.313L97.4236 278.593C96.2036 281.013 96.9537 281.963 97.6237 282.833C97.8281 283.069 97.9581 283.36 97.9973 283.669C98.0364 283.979 97.983 284.293 97.8437 284.573C97.6983 284.868 97.4601 285.107 97.1656 285.253C96.871 285.4 96.5366 285.445 96.2137 285.383L88.8036 283.223C88.0836 283.033 87.5036 282.563 88.0636 281.453L96.7937 264.133C97.0297 263.63 97.0929 263.063 96.9736 262.521C96.8542 261.978 96.5589 261.49 96.1336 261.133C95.8859 260.911 95.7161 260.615 95.6495 260.289C95.5829 259.963 95.6229 259.624 95.7637 259.323" fill="#FDF6D3"/>
<path d="M64.6633 234.853C64.793 234.698 64.9522 234.571 65.1315 234.479C65.3108 234.387 65.5066 234.331 65.7077 234.315C65.9087 234.3 66.1109 234.324 66.3024 234.387C66.4939 234.45 66.671 234.551 66.8233 234.683L74.3733 241.373C74.5235 241.508 74.6452 241.672 74.7313 241.855C74.8173 242.038 74.8659 242.237 74.8743 242.439C74.8827 242.641 74.8507 242.843 74.7801 243.032C74.7095 243.222 74.6018 243.395 74.4633 243.543C74.2525 243.775 73.9736 243.935 73.6666 244C73.3595 244.065 73.0399 244.031 72.7533 243.903C72.261 243.668 71.7079 243.591 71.1704 243.685C70.6329 243.778 70.1376 244.036 69.7533 244.423L62.9833 252.053C59.8133 255.633 61.3333 258.303 62.5833 259.403C63.4771 260.174 64.6369 260.566 65.8155 260.495C66.9941 260.424 68.0985 259.896 68.8933 259.023L76.5233 250.423C76.879 250.013 77.0903 249.497 77.1246 248.955C77.1589 248.413 77.0144 247.875 76.7133 247.423C76.5359 247.142 76.4511 246.812 76.4709 246.48C76.4906 246.148 76.6138 245.831 76.8233 245.573C76.9529 245.418 77.1123 245.291 77.292 245.199C77.4717 245.106 77.6681 245.051 77.8695 245.036C78.0709 245.021 78.2732 245.047 78.4645 245.112C78.6558 245.176 78.8322 245.279 78.9833 245.413L86.5333 252.103C86.8053 252.343 86.9825 252.672 87.0328 253.032C87.0831 253.391 87.0032 253.757 86.8075 254.062C86.6119 254.368 86.3133 254.593 85.9659 254.698C85.6185 254.803 85.2452 254.779 84.9133 254.633C84.4118 254.388 83.8484 254.299 83.2957 254.377C82.7431 254.455 82.2267 254.698 81.8133 255.073L73.4333 264.533C71.6333 266.533 72.1433 267.633 72.5433 268.673C72.6861 268.954 72.7406 269.271 72.6996 269.584C72.6585 269.896 72.5238 270.188 72.3133 270.423C72.1008 270.675 71.8093 270.848 71.4861 270.913C71.1628 270.979 70.827 270.933 70.5333 270.783L63.9133 266.783C63.2633 266.413 62.8233 265.783 63.6533 264.883L65.5833 262.703C64.1161 263.115 62.5683 263.147 61.0851 262.797C59.6019 262.448 58.2318 261.727 57.1033 260.703C53.3633 257.393 53.1733 252.353 57.0433 247.993L64.4533 239.633C64.7783 239.205 64.9641 238.688 64.9856 238.152C65.0071 237.615 64.8631 237.085 64.5733 236.633C64.3944 236.352 64.3088 236.022 64.3286 235.69C64.3483 235.358 64.4724 235.04 64.6833 234.783" fill="#FDF6D3"/>
<path d="M48.6935 232.683C42.2135 236.523 34.8335 235.813 30.4335 228.393C26.0335 220.973 29.1735 214.513 35.6535 210.673C42.1335 206.833 49.2335 207.163 53.6535 214.673C58.0735 222.183 55.1335 228.903 48.6535 232.673M39.4835 217.193C34.2535 220.293 30.3135 224.253 32.1735 227.383C34.0335 230.513 39.5535 229.243 44.7835 226.143C50.0135 223.043 53.7835 218.833 51.8935 215.703C50.0035 212.573 44.6735 214.113 39.4835 217.193Z" fill="#FDF6D3"/>
<path d="M30.8136 174.613C34.6936 173.613 38.9436 176.843 40.6836 183.753C42.5536 191.113 39.3736 194.223 38.3936 195.223C37.4136 196.223 34.5836 197.153 33.1936 195.033C32.949 194.706 32.7764 194.331 32.6869 193.932C32.5975 193.533 32.5932 193.121 32.6744 192.72C32.7556 192.32 32.9204 191.941 33.1581 191.609C33.3957 191.277 33.7009 190.999 34.0536 190.793C35.0203 190.367 36.0247 190.032 37.0536 189.793C38.2636 189.263 39.5136 187.233 38.8036 184.413C38.0936 181.593 36.4136 180.513 34.5036 180.993C32.2336 181.563 31.6736 185.093 30.7536 188.433C29.3836 193.433 27.9336 198.053 24.4536 198.933C20.6236 199.933 16.3835 196.733 14.6535 189.883C12.8635 182.823 16.0335 179.883 17.1135 178.883C18.4535 177.573 21.2236 177.093 22.3736 179.103C22.7667 179.788 22.8822 180.599 22.6962 181.367C22.5101 182.135 22.0368 182.803 21.3736 183.233C20.4636 183.893 19.4835 183.813 18.5135 184.233C17.6648 184.716 17.0086 185.478 16.6553 186.388C16.3019 187.299 16.2731 188.303 16.5736 189.233C17.2436 191.903 19.1036 192.883 20.9136 192.423C23.5336 191.763 23.9135 188.283 25.0435 184.783C27.0435 178.483 27.4636 175.483 30.8936 174.613" fill="#FDF6D3"/>
<path d="M295.313 153.823C295.313 154.614 295.079 155.387 294.639 156.045C294.2 156.703 293.575 157.215 292.844 157.518C292.113 157.821 291.309 157.9 290.533 157.746C289.757 157.592 289.044 157.211 288.485 156.651C287.926 156.092 287.545 155.379 287.39 154.603C287.236 153.827 287.315 153.023 287.618 152.292C287.921 151.561 288.433 150.936 289.091 150.497C289.749 150.057 290.522 149.823 291.313 149.823C292.374 149.823 293.392 150.244 294.142 150.994C294.892 151.744 295.313 152.762 295.313 153.823Z" fill="#FDF6D3"/>
<path d="M25.0835 153.823C25.0835 154.614 24.8489 155.387 24.4094 156.045C23.9699 156.703 23.3451 157.215 22.6142 157.518C21.8833 157.821 21.0791 157.9 20.3031 157.746C19.5272 157.592 18.8145 157.211 18.2551 156.651C17.6957 156.092 17.3147 155.379 17.1604 154.603C17.006 153.827 17.0852 153.023 17.388 152.292C17.6907 151.561 18.2034 150.936 18.8612 150.497C19.519 150.057 20.2924 149.823 21.0835 149.823C22.1444 149.823 23.1618 150.244 23.9119 150.994C24.6621 151.744 25.0835 152.762 25.0835 153.823Z" fill="#FDF6D3"/>
</svg>
