<svg width="72" height="72" viewBox="0 0 72 72" fill="none" xmlns="http://www.w3.org/2000/svg">
<g filter="url(#filter0_d_164_44)">
<path d="M4 64L8.52344 47.5766C5.73553 42.7592 4.26246 37.3143 4.26246 31.7119C4.26246 14.2247 18.5699 0 36.1224 0C44.6444 0 52.6402 3.29869 58.6718 9.30232C64.6859 15.2885 68 23.2645 68 31.7294C68 49.2165 53.6925 63.4413 36.14 63.4413H36.1224C30.7915 63.4413 25.5498 62.115 20.9032 59.5838L4 64ZM21.6743 53.8602L22.6388 54.4364C26.7064 56.8451 31.3704 58.1014 36.1224 58.1189H36.14C50.7464 58.1189 62.6163 46.3028 62.6163 31.7656C62.6163 24.7145 59.8636 18.0996 54.8667 13.126C49.8698 8.15234 43.2241 5.39489 36.14 5.39489C21.5337 5.39489 9.64614 17.2109 9.64614 31.7481C9.64614 36.7218 11.0489 41.5742 13.6961 45.7804L14.3278 46.7753L11.6454 56.4964L21.6743 53.8602Z" fill="white"/>
<path d="M5.104 62.8997L9.47047 47.035C6.77047 42.3926 5.36772 37.1215 5.36772 31.7291C5.36772 14.8519 19.1666 1.11719 36.1226 1.11719C44.3456 1.11719 52.0789 4.31088 57.8821 10.0883C63.6864 15.8832 66.895 23.5618 66.8774 31.7466C66.8774 48.6238 53.0786 62.3585 36.1226 62.3585H36.105C30.9499 62.3585 25.9003 61.0673 21.412 58.6411L5.104 62.8997Z" fill="url(#paint0_linear_164_44)"/>
<path d="M4 64L8.52344 47.5766C5.73553 42.7592 4.26246 37.3143 4.26246 31.7119C4.26246 14.2247 18.5699 0 36.1224 0C44.6444 0 52.6402 3.29869 58.6718 9.30232C64.6859 15.2885 68 23.2645 68 31.7294C68 49.2165 53.6925 63.4413 36.14 63.4413H36.1224C30.7915 63.4413 25.5498 62.115 20.9032 59.5838L4 64ZM21.6743 53.8602L22.6388 54.4364C26.7064 56.8451 31.3704 58.1014 36.1224 58.1189H36.14C50.7464 58.1189 62.6163 46.3028 62.6163 31.7656C62.6163 24.7145 59.8636 18.0996 54.8667 13.126C49.8698 8.15234 43.2241 5.39489 36.14 5.39489C21.5337 5.39489 9.64614 17.2109 9.64614 31.7481C9.64614 36.7218 11.0489 41.5742 13.6961 45.7804L14.3278 46.7753L11.6454 56.4964L21.6743 53.8602Z" fill="url(#paint1_linear_164_44)"/>
<path d="M28.1635 18.4608C27.567 17.1345 26.9366 17.117 26.3752 17.0995C25.9194 17.082 25.3756 17.082 24.8494 17.082C24.3232 17.082 23.4642 17.2745 22.7283 18.077C21.9924 18.862 19.9404 20.782 19.9404 24.6919C19.9404 28.5843 22.7987 32.353 23.1842 32.8942C23.5873 33.418 28.6897 41.6728 36.7909 44.849C43.5246 47.4839 44.8922 46.9602 46.3464 46.839C47.8019 46.699 51.0632 44.919 51.7288 43.069C52.3957 41.2191 52.3957 39.6303 52.1847 39.2991C51.9913 38.9679 51.4488 38.7754 50.6589 38.3741C49.8702 37.9729 45.942 36.0529 45.2237 35.7917C44.4878 35.5304 43.9616 35.3904 43.4354 36.1929C42.9093 36.9779 41.3834 38.7754 40.91 39.2991C40.4541 39.8228 39.9807 39.8928 39.192 39.4916C38.4034 39.0904 35.8252 38.2529 32.7924 35.5642C30.4252 33.4705 28.8303 30.8693 28.3569 30.0843C27.901 29.2993 28.3041 28.8631 28.7073 28.4618C29.0576 28.1131 29.4959 27.5368 29.899 27.0656C30.3021 26.5943 30.4252 26.2806 30.6877 25.7394C30.9501 25.2156 30.8283 24.7444 30.6174 24.3431C30.4252 23.9406 28.8818 20.032 28.1635 18.4608Z" fill="white"/>
</g>
<defs>
<filter id="filter0_d_164_44" x="0" y="0" width="72" height="72" filterUnits="userSpaceOnUse" color-interpolation-filters="sRGB">
<feFlood flood-opacity="0" result="BackgroundImageFix"/>
<feColorMatrix in="SourceAlpha" type="matrix" values="0 0 0 0 0 0 0 0 0 0 0 0 0 0 0 0 0 0 127 0" result="hardAlpha"/>
<feOffset dy="4"/>
<feGaussianBlur stdDeviation="2"/>
<feComposite in2="hardAlpha" operator="out"/>
<feColorMatrix type="matrix" values="0 0 0 0 0 0 0 0 0 0 0 0 0 0 0 0 0 0 0.25 0"/>
<feBlend mode="normal" in2="BackgroundImageFix" result="effect1_dropShadow_164_44"/>
<feBlend mode="normal" in="SourceGraphic" in2="effect1_dropShadow_164_44" result="shape"/>
</filter>
<linearGradient id="paint0_linear_164_44" x1="35.9908" y1="62.9002" x2="35.9908" y2="1.11792" gradientUnits="userSpaceOnUse">
<stop stop-color="#20B038"/>
<stop offset="1" stop-color="#60D66A"/>
</linearGradient>
<linearGradient id="paint1_linear_164_44" x1="35.9994" y1="64" x2="35.9994" y2="0.0012512" gradientUnits="userSpaceOnUse">
<stop stop-color="#F9F9F9"/>
<stop offset="1" stop-color="white"/>
</linearGradient>
</defs>
</svg>
